<?xml version="1.0" standalone="no"?>
<!DOCTYPE svg PUBLIC "-//W3C//DTD SVG 1.1//EN" "http://www.w3.org/Graphics/SVG/1.1/DTD/svg11.dtd" >
<svg xmlns="http://www.w3.org/2000/svg" xmlns:xlink="http://www.w3.org/1999/xlink" version="1.1">
<metadata>
Created by FontForge 20161116 at Tue Jan 31 19:06:46 2017
 By Jimmy Wärting
Copyright \(c\) 2016 by Martin V_cha. All rights reserved.
</metadata>
<defs>
<font id="Matter-Medium" horiz-adv-x="0" >
  <font-face 
    font-family="Matter Medium"
    font-weight="500"
    font-stretch="normal"
    units-per-em="1000"
    panose-1="0 0 6 0 0 0 0 0 0 0"
    ascent="810"
    descent="-190"
    x-height="504"
    cap-height="700"
    bbox="-745 -212 1588 1086"
    underline-thickness="50"
    underline-position="-100"
    stemh="103"
    stemv="117"
    unicode-range="U+000D-F8FF"
  />
<missing-glyph horiz-adv-x="791" 
d="M396 708c199 0 358 -159 358 -357c0 -197 -159 -359 -358 -359c-197 0 -358 162 -358 359c0 198 161 357 358 357zM286 306c27 0 52 54 52 120s-25 119 -52 119c-30 0 -56 -53 -56 -119s26 -120 56 -120zM507 306c31 0 55 54 55 120s-24 119 -55 119
c-28 0 -52 -53 -52 -119s24 -120 52 -120zM396 97c42 0 75 34 75 73c0 42 -33 74 -75 74s-73 -32 -73 -74c0 -39 31 -73 73 -73z" />
    <glyph glyph-name=".notdef" horiz-adv-x="791" 
d="M396 708c199 0 358 -159 358 -357c0 -197 -159 -359 -358 -359c-197 0 -358 162 -358 359c0 198 161 357 358 357zM286 306c27 0 52 54 52 120s-25 119 -52 119c-30 0 -56 -53 -56 -119s26 -120 56 -120zM507 306c31 0 55 54 55 120s-24 119 -55 119
c-28 0 -52 -53 -52 -119s24 -120 52 -120zM396 97c42 0 75 34 75 73c0 42 -33 74 -75 74s-73 -32 -73 -74c0 -39 31 -73 73 -73z" />
    <glyph glyph-name="A" unicode="A" horiz-adv-x="670" 
d="M541 0l-62 165h-288l-62 -165h-121l272 700h109l273 -700h-121zM229 266h212l-106 280z" />
    <glyph glyph-name="Aacute" unicode="&#xc1;" horiz-adv-x="670" 
d="M480 904l-119 -148h-78l67 148h130zM541 0l-62 165h-288l-62 -165h-121l272 700h109l273 -700h-121zM229 266h212l-106 280z" />
    <glyph glyph-name="Abreve" unicode="&#x102;" horiz-adv-x="670" 
d="M335 753c-77 0 -134 56 -134 132h82c0 -34 21 -58 52 -58s53 24 53 58h83c0 -76 -58 -132 -136 -132zM541 0l-62 165h-288l-62 -165h-121l272 700h109l273 -700h-121zM229 266h212l-106 280z" />
    <glyph glyph-name="Acircumflex" unicode="&#xc2;" horiz-adv-x="670" 
d="M335 838l-79 -82h-82l115 148h91l115 -148h-82zM541 0l-62 165h-288l-62 -165h-121l272 700h109l273 -700h-121zM229 266h212l-106 280z" />
    <glyph glyph-name="Adieresis" unicode="&#xc4;" horiz-adv-x="670" 
d="M242 777c-39 0 -66 27 -66 63c0 37 27 65 66 65s67 -28 67 -65c0 -36 -28 -63 -67 -63zM426 777c-37 0 -65 27 -65 63c0 37 28 65 65 65c39 0 68 -28 68 -65c0 -36 -29 -63 -68 -63zM541 0l-62 165h-288l-62 -165h-121l272 700h109l273 -700h-121zM229 266h212l-106 280z
" />
    <glyph glyph-name="Agrave" unicode="&#xc0;" horiz-adv-x="670" 
d="M376 756h-78l-119 148h130zM541 0l-62 165h-288l-62 -165h-121l272 700h109l273 -700h-121zM229 266h212l-106 280z" />
    <glyph glyph-name="Amacron" unicode="&#x100;" horiz-adv-x="670" 
d="M471 869v-86h-273v86h273zM541 0l-62 165h-288l-62 -165h-121l272 700h109l273 -700h-121zM229 266h212l-106 280z" />
    <glyph glyph-name="Aogonek" unicode="&#x104;" horiz-adv-x="670" 
d="M657 -104l11 -80c-9 -3 -32 -6 -53 -6c-70 0 -117 40 -117 100c0 30 18 68 42 93l-61 162h-288l-62 -165h-121l272 700h109l273 -700h-34c-20 -20 -38 -48 -38 -70c0 -23 16 -37 39 -37c13 0 24 2 28 3zM229 266h212l-106 280z" />
    <glyph glyph-name="Aring" unicode="&#xc5;" horiz-adv-x="670" 
d="M335 738c-65 0 -113 45 -113 106s48 107 113 107c66 0 114 -46 114 -107s-48 -106 -114 -106zM335 893c-28 0 -50 -20 -50 -49c0 -28 22 -48 50 -48c30 0 51 20 51 48c0 29 -21 49 -51 49zM541 0l-62 165h-288l-62 -165h-121l272 700h109l273 -700h-121zM229 266h212
l-106 280z" />
    <glyph glyph-name="Aringacute" unicode="&#x1fa;" horiz-adv-x="670" 
d="M335 738c-65 0 -113 45 -113 106c0 49 31 88 77 102l63 140h130l-114 -142c43 -15 71 -53 71 -100c0 -61 -48 -106 -114 -106zM335 893c-28 0 -50 -20 -50 -49c0 -28 22 -48 50 -48c30 0 51 20 51 48c0 29 -21 49 -51 49zM541 0l-62 165h-288l-62 -165h-121l272 700h109
l273 -700h-121zM229 266h212l-106 280z" />
    <glyph glyph-name="Atilde" unicode="&#xc3;" horiz-adv-x="670" 
d="M267 823c-23 0 -38 -17 -42 -51l-76 12c2 70 50 118 118 118c28 0 53 -8 80 -27c23 -14 36 -25 59 -25s38 17 41 50l77 -12c-3 -71 -51 -118 -118 -118c-31 0 -57 11 -81 26c-22 15 -36 27 -58 27zM541 0l-62 165h-288l-62 -165h-121l272 700h109l273 -700h-121zM229 266
h212l-106 280z" />
    <glyph glyph-name="AE" unicode="&#xc6;" horiz-adv-x="970" 
d="M581 103h351v-103h-468v172h-236l-93 -172h-129l388 700h527v-102h-340v-176h274v-102h-274v-217zM284 275h180v334z" />
    <glyph glyph-name="AEacute" unicode="&#x1fc;" horiz-adv-x="970" 
d="M663 904l-119 -148h-78l67 148h130zM581 103h351v-103h-468v172h-236l-93 -172h-129l388 700h527v-102h-340v-176h274v-102h-274v-217zM284 275h180v334z" />
    <glyph glyph-name="B" unicode="B" horiz-adv-x="621" 
d="M69 0v700h264c130 0 218 -65 218 -180c0 -65 -44 -117 -88 -137c68 -25 121 -82 121 -177c0 -129 -93 -206 -239 -206h-276zM184 421h142c75 0 113 32 113 91c0 60 -38 92 -114 92h-141v-183zM184 103h147c94 0 139 37 139 108s-45 109 -139 109h-147v-217z" />
    <glyph glyph-name="C" unicode="C" horiz-adv-x="723" 
d="M382 -8c-181 0 -344 119 -344 358s165 358 344 358c162 0 279 -89 304 -228l-116 -25c-20 94 -91 151 -188 151c-128 0 -225 -90 -225 -256s96 -255 225 -255c98 0 164 53 186 141l117 -25c-34 -135 -146 -219 -303 -219z" />
    <glyph glyph-name="Cacute" unicode="&#x106;" horiz-adv-x="723" 
d="M323 756l67 148h130l-119 -148h-78zM382 -8c-181 0 -344 119 -344 358s165 358 344 358c162 0 279 -89 304 -228l-116 -25c-20 94 -91 151 -188 151c-128 0 -225 -90 -225 -256s96 -255 225 -255c98 0 164 53 186 141l117 -25c-34 -135 -146 -219 -303 -219z" />
    <glyph glyph-name="Ccaron" unicode="&#x10c;" horiz-adv-x="723" 
d="M329 756l-115 148h82l79 -82l78 82h82l-115 -148h-91zM382 -8c-181 0 -344 119 -344 358s165 358 344 358c162 0 279 -89 304 -228l-116 -25c-20 94 -91 151 -188 151c-128 0 -225 -90 -225 -256s96 -255 225 -255c98 0 164 53 186 141l117 -25
c-34 -135 -146 -219 -303 -219z" />
    <glyph glyph-name="Ccedilla" unicode="&#xc7;" horiz-adv-x="723" 
d="M382 95c98 0 164 53 186 141l117 -25c-32 -127 -133 -209 -275 -218l-64 -140h-130l114 142c-159 21 -292 139 -292 355c0 239 165 358 344 358c162 0 279 -89 304 -228l-116 -25c-20 94 -91 151 -188 151c-128 0 -225 -90 -225 -256s96 -255 225 -255z" />
    <glyph glyph-name="Ccircumflex" unicode="&#x108;" horiz-adv-x="723" 
d="M329 904h91l115 -148h-82l-78 82l-79 -82h-82zM382 -8c-181 0 -344 119 -344 358s165 358 344 358c162 0 279 -89 304 -228l-116 -25c-20 94 -91 151 -188 151c-128 0 -225 -90 -225 -256s96 -255 225 -255c98 0 164 53 186 141l117 -25c-34 -135 -146 -219 -303 -219z
" />
    <glyph glyph-name="Cdotaccent" unicode="&#x10a;" horiz-adv-x="723" 
d="M375 784c-40 0 -70 31 -70 70c0 40 30 71 70 71c41 0 72 -31 72 -71c0 -39 -31 -70 -72 -70zM382 -8c-181 0 -344 119 -344 358s165 358 344 358c162 0 279 -89 304 -228l-116 -25c-20 94 -91 151 -188 151c-128 0 -225 -90 -225 -256s96 -255 225 -255
c98 0 164 53 186 141l117 -25c-34 -135 -146 -219 -303 -219z" />
    <glyph glyph-name="D" unicode="D" horiz-adv-x="682" 
d="M69 0v700h220c195 0 356 -119 356 -350s-161 -350 -356 -350h-220zM184 103h97c126 0 244 68 244 247s-118 248 -244 248h-97v-495z" />
    <glyph glyph-name="Eth" unicode="&#xd0;" horiz-adv-x="682" 
d="M289 700c195 0 356 -119 356 -350s-161 -350 -356 -350h-220v310h-62v80h62v310h220zM281 103c126 0 244 68 244 247s-118 248 -244 248h-97v-208h136v-80h-136v-207h97z" />
    <glyph glyph-name="Dcaron" unicode="&#x10e;" horiz-adv-x="682" 
d="M259 756l-115 148h82l79 -82l78 82h82l-115 -148h-91zM69 0v700h220c195 0 356 -119 356 -350s-161 -350 -356 -350h-220zM184 103h97c126 0 244 68 244 247s-118 248 -244 248h-97v-495z" />
    <glyph glyph-name="Dcroat" unicode="&#x110;" horiz-adv-x="682" 
d="M289 700c195 0 356 -119 356 -350s-161 -350 -356 -350h-220v310h-62v80h62v310h220zM281 103c126 0 244 68 244 247s-118 248 -244 248h-97v-208h136v-80h-136v-207h97z" />
    <glyph glyph-name="E" unicode="E" horiz-adv-x="575" 
d="M69 0v700h457v-102h-340v-176h274v-102h-274v-217h351v-103h-468z" />
    <glyph glyph-name="Eacute" unicode="&#xc9;" horiz-adv-x="575" 
d="M253 756l67 148h130l-119 -148h-78zM69 0v700h457v-102h-340v-176h274v-102h-274v-217h351v-103h-468z" />
    <glyph glyph-name="Ebreve" unicode="&#x114;" horiz-adv-x="575" 
d="M305 753c-77 0 -134 56 -134 132h82c0 -34 21 -58 52 -58s53 24 53 58h83c0 -76 -58 -132 -136 -132zM69 0v700h457v-102h-340v-176h274v-102h-274v-217h351v-103h-468z" />
    <glyph glyph-name="Ecaron" unicode="&#x11a;" horiz-adv-x="575" 
d="M259 756l-115 148h82l79 -82l78 82h82l-115 -148h-91zM69 0v700h457v-102h-340v-176h274v-102h-274v-217h351v-103h-468z" />
    <glyph glyph-name="Ecircumflex" unicode="&#xca;" horiz-adv-x="575" 
d="M259 904h91l115 -148h-82l-78 82l-79 -82h-82zM69 0v700h457v-102h-340v-176h274v-102h-274v-217h351v-103h-468z" />
    <glyph glyph-name="Edieresis" unicode="&#xcb;" horiz-adv-x="575" 
d="M212 777c-39 0 -66 27 -66 63c0 37 27 65 66 65s67 -28 67 -65c0 -36 -28 -63 -67 -63zM396 777c-37 0 -65 27 -65 63c0 37 28 65 65 65c39 0 68 -28 68 -65c0 -36 -29 -63 -68 -63zM69 0v700h457v-102h-340v-176h274v-102h-274v-217h351v-103h-468z" />
    <glyph glyph-name="Edotaccent" unicode="&#x116;" horiz-adv-x="575" 
d="M305 784c-40 0 -70 31 -70 70c0 40 30 71 70 71c41 0 72 -31 72 -71c0 -39 -31 -70 -72 -70zM69 0v700h457v-102h-340v-176h274v-102h-274v-217h351v-103h-468z" />
    <glyph glyph-name="Egrave" unicode="&#xc8;" horiz-adv-x="575" 
d="M346 756h-78l-119 148h130zM69 0v700h457v-102h-340v-176h274v-102h-274v-217h351v-103h-468z" />
    <glyph glyph-name="Emacron" unicode="&#x112;" horiz-adv-x="575" 
d="M168 783v86h273v-86h-273zM69 0v700h457v-102h-340v-176h274v-102h-274v-217h351v-103h-468z" />
    <glyph glyph-name="Eogonek" unicode="&#x118;" horiz-adv-x="575" 
d="M566 -104l11 -80c-9 -3 -32 -6 -53 -6c-70 0 -117 40 -117 100c0 28 17 65 39 90h-377v700h457v-102h-340v-176h274v-102h-274v-217h351v-103c-20 -20 -38 -48 -38 -70c0 -23 16 -37 39 -37c13 0 24 2 28 3z" />
    <glyph glyph-name="F" unicode="F" horiz-adv-x="566" 
d="M69 0v700h463v-102h-346v-184h281v-102h-281v-312h-117z" />
    <glyph glyph-name="G" unicode="G" horiz-adv-x="748" 
d="M378 -8c-176 0 -340 119 -340 358s167 358 346 358c163 0 281 -87 308 -228l-116 -24c-18 92 -91 150 -193 150c-132 0 -226 -92 -226 -256s94 -255 225 -255c116 0 192 72 198 177h-224v97h333v-369h-106v94c-32 -62 -114 -102 -205 -102z" />
    <glyph glyph-name="Gbreve" unicode="&#x11e;" horiz-adv-x="748" 
d="M373 753c-77 0 -134 56 -134 132h82c0 -34 21 -58 52 -58s53 24 53 58h83c0 -76 -58 -132 -136 -132zM378 -8c-176 0 -340 119 -340 358s167 358 346 358c163 0 281 -87 308 -228l-116 -24c-18 92 -91 150 -193 150c-132 0 -226 -92 -226 -256s94 -255 225 -255
c116 0 192 72 198 177h-224v97h333v-369h-106v94c-32 -62 -114 -102 -205 -102z" />
    <glyph glyph-name="Gcircumflex" unicode="&#x11c;" horiz-adv-x="748" 
d="M327 904h91l115 -148h-82l-78 82l-79 -82h-82zM378 -8c-176 0 -340 119 -340 358s167 358 346 358c163 0 281 -87 308 -228l-116 -24c-18 92 -91 150 -193 150c-132 0 -226 -92 -226 -256s94 -255 225 -255c116 0 192 72 198 177h-224v97h333v-369h-106v94
c-32 -62 -114 -102 -205 -102z" />
    <glyph glyph-name="Gcommaaccent" unicode="&#x122;" horiz-adv-x="748" 
d="M378 -8c-176 0 -340 119 -340 358s167 358 346 358c163 0 281 -87 308 -228l-116 -24c-18 92 -91 150 -193 150c-132 0 -226 -92 -226 -256s94 -255 225 -255c116 0 192 72 198 177h-224v97h333v-369h-106v94c-32 -62 -114 -102 -205 -102zM270 -190l41 148h121l-84 -148
h-78z" />
    <glyph glyph-name="Gdotaccent" unicode="&#x120;" horiz-adv-x="748" 
d="M373 784c-40 0 -70 31 -70 70c0 40 30 71 70 71c41 0 72 -31 72 -71c0 -39 -31 -70 -72 -70zM378 -8c-176 0 -340 119 -340 358s167 358 346 358c163 0 281 -87 308 -228l-116 -24c-18 92 -91 150 -193 150c-132 0 -226 -92 -226 -256s94 -255 225 -255
c116 0 192 72 198 177h-224v97h333v-369h-106v94c-32 -62 -114 -102 -205 -102z" />
    <glyph glyph-name="H" unicode="H" horiz-adv-x="703" 
d="M516 700h118v-700h-118v314h-330v-314h-117v700h117v-283h330v283z" />
    <glyph glyph-name="Hbar" unicode="&#x126;" horiz-adv-x="703" 
d="M698 603v-89h-64v-514h-118v314h-330v-314h-117v514h-66v89h66v97h117v-97h330v97h118v-97h64zM516 417v97h-330v-97h330z" />
    <glyph glyph-name="Hcircumflex" unicode="&#x124;" horiz-adv-x="703" 
d="M351 838l-79 -82h-82l115 148h91l115 -148h-82zM516 700h118v-700h-118v314h-330v-314h-117v700h117v-283h330v283z" />
    <glyph glyph-name="I" unicode="I" horiz-adv-x="255" 
d="M69 0v700h117v-700h-117z" />
    <glyph glyph-name="IJ" unicode="&#x132;" horiz-adv-x="607" 
d="M69 0v700h117v-700h-117zM280 104c15 -4 33 -6 49 -6c64 0 96 30 96 110v492h113v-492c0 -146 -76 -214 -189 -214c-20 0 -53 4 -69 8v102z" />
    <glyph glyph-name="Iacute" unicode="&#xcd;" horiz-adv-x="255" 
d="M75 756l67 148h130l-119 -148h-78zM69 0v700h117v-700h-117z" />
    <glyph glyph-name="Ibreve" unicode="&#x12c;" horiz-adv-x="255" 
d="M127 753c-77 0 -134 56 -134 132h82c0 -34 21 -58 52 -58s53 24 53 58h83c0 -76 -58 -132 -136 -132zM69 0v700h117v-700h-117z" />
    <glyph glyph-name="Icircumflex" unicode="&#xce;" horiz-adv-x="255" 
d="M81 904h91l115 -148h-82l-78 82l-79 -82h-82zM69 0v700h117v-700h-117z" />
    <glyph glyph-name="Idieresis" unicode="&#xcf;" horiz-adv-x="255" 
d="M34 777c-39 0 -66 27 -66 63c0 37 27 65 66 65s67 -28 67 -65c0 -36 -28 -63 -67 -63zM218 777c-37 0 -65 27 -65 63c0 37 28 65 65 65c39 0 68 -28 68 -65c0 -36 -29 -63 -68 -63zM69 0v700h117v-700h-117z" />
    <glyph glyph-name="Idotaccent" unicode="&#x130;" horiz-adv-x="255" 
d="M127 784c-40 0 -70 31 -70 70c0 40 30 71 70 71c41 0 72 -31 72 -71c0 -39 -31 -70 -72 -70zM69 0v700h117v-700h-117z" />
    <glyph glyph-name="Igrave" unicode="&#xcc;" horiz-adv-x="255" 
d="M168 756h-78l-119 148h130zM69 0v700h117v-700h-117z" />
    <glyph glyph-name="Imacron" unicode="&#x12a;" horiz-adv-x="255" 
d="M-10 783v86h273v-86h-273zM69 0v700h117v-700h-117z" />
    <glyph glyph-name="Iogonek" unicode="&#x12e;" horiz-adv-x="255" 
d="M215 -104l11 -80c-9 -3 -32 -6 -53 -6c-70 0 -117 40 -117 100c0 28 17 65 39 90h-26v700h117v-700c-20 -20 -38 -48 -38 -70c0 -23 16 -37 39 -37c13 0 24 2 28 3z" />
    <glyph glyph-name="Itilde" unicode="&#x128;" horiz-adv-x="255" 
d="M17 772l-76 12c2 70 50 118 118 118c28 0 53 -8 80 -27c23 -14 36 -25 59 -25s38 17 41 50l77 -12c-3 -71 -51 -118 -118 -118c-31 0 -57 11 -81 26c-22 15 -36 27 -58 27c-23 0 -38 -17 -42 -51zM69 0v700h117v-700h-117z" />
    <glyph glyph-name="J" unicode="J" horiz-adv-x="352" 
d="M25 104c15 -4 33 -6 49 -6c64 0 96 30 96 110v492h113v-492c0 -146 -76 -214 -189 -214c-20 0 -53 4 -69 8v102z" />
    <glyph glyph-name="Jcircumflex" unicode="&#x134;" horiz-adv-x="352" 
d="M180 904h91l115 -148h-82l-78 82l-79 -82h-82zM25 104c15 -4 33 -6 49 -6c64 0 96 30 96 110v492h113v-492c0 -146 -76 -214 -189 -214c-20 0 -53 4 -69 8v102z" />
    <glyph glyph-name="K" unicode="K" horiz-adv-x="654" 
d="M503 0l-233 337l-84 -87v-250h-117v700h117v-293l280 293h155l-270 -279l296 -421h-144z" />
    <glyph glyph-name="Kcommaaccent" unicode="&#x136;" horiz-adv-x="654" 
d="M351 421l296 -421h-144l-233 337l-84 -87v-250h-117v700h117v-293l280 293h155zM212 -190l41 148h121l-84 -148h-78z" />
    <glyph glyph-name="L" unicode="L" horiz-adv-x="533" 
d="M69 0v700h117v-597h334v-103h-451z" />
    <glyph glyph-name="Lacute" unicode="&#x139;" horiz-adv-x="533" 
d="M75 756l67 148h130l-119 -148h-78zM69 0v700h117v-597h334v-103h-451z" />
    <glyph glyph-name="Lcaron" unicode="&#x13d;" horiz-adv-x="533" 
d="M239 560l32 181h107l-75 -181h-64zM69 0v700h117v-597h334v-103h-451z" />
    <glyph glyph-name="Lcommaaccent" unicode="&#x13b;" horiz-adv-x="533" 
d="M69 0v700h117v-597h334v-103h-451zM199 -190l41 148h121l-84 -148h-78z" />
    <glyph glyph-name="Ldot" unicode="&#x13f;" horiz-adv-x="533" 
d="M69 0v700h117v-597h334v-103h-451zM378 293c-41 0 -71 30 -71 70s30 70 71 70s71 -30 71 -70s-30 -70 -71 -70z" />
    <glyph glyph-name="Lslash" unicode="&#x141;" horiz-adv-x="554" 
d="M207 103h334v-103h-451v261l-86 -40v95l86 40v344h117v-290l163 76v-94l-163 -76v-213z" />
    <glyph glyph-name="M" unicode="M" horiz-adv-x="854" 
d="M69 0v700h135l223 -532l223 532h135v-700h-112v481l-200 -481h-91l-201 481v-481h-112z" />
    <glyph glyph-name="N" unicode="N" horiz-adv-x="694" 
d="M69 0v700h123l321 -515v515h112v-700h-123l-322 514v-514h-111z" />
    <glyph glyph-name="Nacute" unicode="&#x143;" horiz-adv-x="694" 
d="M296 756l67 148h130l-119 -148h-78zM69 0v700h123l321 -515v515h112v-700h-123l-322 514v-514h-111z" />
    <glyph glyph-name="Ncaron" unicode="&#x147;" horiz-adv-x="694" 
d="M302 756l-115 148h82l79 -82l78 82h82l-115 -148h-91zM69 0v700h123l321 -515v515h112v-700h-123l-322 514v-514h-111z" />
    <glyph glyph-name="Ncommaaccent" unicode="&#x145;" horiz-adv-x="694" 
d="M69 0v700h123l321 -515v515h112v-700h-123l-322 514v-514h-111zM248 -190l41 148h121l-84 -148h-78z" />
    <glyph glyph-name="Eng" unicode="&#x14a;" horiz-adv-x="694" 
d="M513 700h112v-735c0 -107 -79 -182 -200 -173v97c63 -5 89 25 89 96v6l-334 523v-514h-111v700h123l321 -515v515z" />
    <glyph glyph-name="Ntilde" unicode="&#xd1;" horiz-adv-x="694" 
d="M238 772l-76 12c2 70 50 118 118 118c28 0 53 -8 80 -27c23 -14 36 -25 59 -25s38 17 41 50l77 -12c-3 -71 -51 -118 -118 -118c-31 0 -57 11 -81 26c-22 15 -36 27 -58 27c-23 0 -38 -17 -42 -51zM69 0v700h123l321 -515v515h112v-700h-123l-322 514v-514h-111z" />
    <glyph glyph-name="O" unicode="O" horiz-adv-x="776" 
d="M388 -8c-202 0 -350 151 -350 358s148 358 350 358s350 -151 350 -358s-148 -358 -350 -358zM388 95c135 0 232 107 232 255s-97 256 -232 256s-232 -108 -232 -256s97 -255 232 -255z" />
    <glyph glyph-name="Oacute" unicode="&#xd3;" horiz-adv-x="776" 
d="M336 756l67 148h130l-119 -148h-78zM388 -8c-202 0 -350 151 -350 358s148 358 350 358s350 -151 350 -358s-148 -358 -350 -358zM388 95c135 0 232 107 232 255s-97 256 -232 256s-232 -108 -232 -256s97 -255 232 -255z" />
    <glyph glyph-name="Obreve" unicode="&#x14e;" horiz-adv-x="776" 
d="M388 753c-77 0 -134 56 -134 132h82c0 -34 21 -58 52 -58s53 24 53 58h83c0 -76 -58 -132 -136 -132zM388 -8c-202 0 -350 151 -350 358s148 358 350 358s350 -151 350 -358s-148 -358 -350 -358zM388 95c135 0 232 107 232 255s-97 256 -232 256s-232 -108 -232 -256
s97 -255 232 -255z" />
    <glyph glyph-name="Ocircumflex" unicode="&#xd4;" horiz-adv-x="776" 
d="M342 904h91l115 -148h-82l-78 82l-79 -82h-82zM388 -8c-202 0 -350 151 -350 358s148 358 350 358s350 -151 350 -358s-148 -358 -350 -358zM388 95c135 0 232 107 232 255s-97 256 -232 256s-232 -108 -232 -256s97 -255 232 -255z" />
    <glyph glyph-name="Odieresis" unicode="&#xd6;" horiz-adv-x="776" 
d="M295 777c-39 0 -66 27 -66 63c0 37 27 65 66 65s67 -28 67 -65c0 -36 -28 -63 -67 -63zM479 777c-37 0 -65 27 -65 63c0 37 28 65 65 65c39 0 68 -28 68 -65c0 -36 -29 -63 -68 -63zM388 -8c-202 0 -350 151 -350 358s148 358 350 358s350 -151 350 -358
s-148 -358 -350 -358zM388 95c135 0 232 107 232 255s-97 256 -232 256s-232 -108 -232 -256s97 -255 232 -255z" />
    <glyph glyph-name="Ograve" unicode="&#xd2;" horiz-adv-x="776" 
d="M429 756h-78l-119 148h130zM388 -8c-202 0 -350 151 -350 358s148 358 350 358s350 -151 350 -358s-148 -358 -350 -358zM388 95c135 0 232 107 232 255s-97 256 -232 256s-232 -108 -232 -256s97 -255 232 -255z" />
    <glyph glyph-name="Ohungarumlaut" unicode="&#x150;" horiz-adv-x="776" 
d="M254 756l67 148h97l-75 -148h-89zM407 756l66 148h102l-80 -148h-88zM388 -8c-202 0 -350 151 -350 358s148 358 350 358s350 -151 350 -358s-148 -358 -350 -358zM388 95c135 0 232 107 232 255s-97 256 -232 256s-232 -108 -232 -256s97 -255 232 -255z" />
    <glyph glyph-name="Omacron" unicode="&#x14c;" horiz-adv-x="776" 
d="M251 783v86h273v-86h-273zM388 -8c-202 0 -350 151 -350 358s148 358 350 358s350 -151 350 -358s-148 -358 -350 -358zM388 95c135 0 232 107 232 255s-97 256 -232 256s-232 -108 -232 -256s97 -255 232 -255z" />
    <glyph glyph-name="Oslash" unicode="&#xd8;" horiz-adv-x="776" 
d="M388 708c202 0 350 -151 350 -358s-148 -358 -350 -358s-350 151 -350 358s148 358 350 358zM388 606c-135 0 -232 -108 -232 -256c0 -55 14 -105 38 -146l312 370c-34 21 -74 32 -118 32zM388 95c135 0 232 107 232 255c0 61 -16 115 -45 158l-316 -374
c36 -25 80 -39 129 -39z" />
    <glyph glyph-name="Otilde" unicode="&#xd5;" horiz-adv-x="776" 
d="M278 772l-76 12c2 70 50 118 118 118c28 0 53 -8 80 -27c23 -14 36 -25 59 -25s38 17 41 50l77 -12c-3 -71 -51 -118 -118 -118c-31 0 -57 11 -81 26c-22 15 -36 27 -58 27c-23 0 -38 -17 -42 -51zM388 -8c-202 0 -350 151 -350 358s148 358 350 358s350 -151 350 -358
s-148 -358 -350 -358zM388 95c135 0 232 107 232 255s-97 256 -232 256s-232 -108 -232 -256s97 -255 232 -255z" />
    <glyph glyph-name="OE" unicode="&#x152;" horiz-adv-x="1134" 
d="M745 103h351v-103h-468v83c-61 -57 -145 -91 -240 -91c-202 0 -350 151 -350 358s148 358 350 358c95 0 179 -34 240 -91v83h457v-102h-340v-176h274v-102h-274v-217zM388 95c135 0 232 107 232 255s-97 256 -232 256s-232 -108 -232 -256s97 -255 232 -255z" />
    <glyph glyph-name="P" unicode="P" horiz-adv-x="596" 
d="M69 0v700h276c139 0 229 -82 229 -209s-90 -209 -229 -209h-158v-282h-118zM187 384h150c74 0 118 40 118 107s-44 107 -118 107h-150v-214z" />
    <glyph glyph-name="Thorn" unicode="&#xde;" horiz-adv-x="596" 
d="M69 0v700h118v-146h158c143 0 229 -78 229 -204c0 -125 -86 -204 -229 -204h-158v-146h-118zM187 246h153c85 0 119 44 119 104s-34 104 -119 104h-153v-208z" />
    <glyph glyph-name="Q" unicode="Q" horiz-adv-x="777" 
d="M738 350c0 -103 -36 -191 -98 -255l78 -85l-72 -63l-82 89c-51 -28 -111 -44 -176 -44c-202 0 -350 151 -350 358s148 358 350 358s350 -151 350 -358zM388 95c37 0 71 8 101 23l-128 139l73 65l131 -143c35 44 55 103 55 171c0 148 -97 256 -232 256
s-232 -108 -232 -256s97 -255 232 -255z" />
    <glyph glyph-name="R" unicode="R" horiz-adv-x="642" 
d="M629 0h-135l-177 297h-130v-297h-117l-1 700h263c135 0 223 -79 223 -201c0 -82 -44 -150 -118 -182zM187 598v-198h128c77 0 121 36 121 99c0 62 -44 99 -121 99h-128z" />
    <glyph glyph-name="Racute" unicode="&#x154;" horiz-adv-x="642" 
d="M433 904l-119 -148h-78l67 148h130zM629 0h-135l-177 297h-130v-297h-117l-1 700h263c135 0 223 -79 223 -201c0 -82 -44 -150 -118 -182zM187 598v-198h128c77 0 121 36 121 99c0 62 -44 99 -121 99h-128z" />
    <glyph glyph-name="Rcaron" unicode="&#x158;" horiz-adv-x="642" 
d="M333 756h-91l-115 148h82l79 -82l78 82h82zM629 0h-135l-177 297h-130v-297h-117l-1 700h263c135 0 223 -79 223 -201c0 -82 -44 -150 -118 -182zM187 598v-198h128c77 0 121 36 121 99c0 62 -44 99 -121 99h-128z" />
    <glyph glyph-name="Rcommaaccent" unicode="&#x156;" horiz-adv-x="642" 
d="M437 317l192 -317h-135l-177 297h-130v-297h-117l-1 700h263c135 0 223 -79 223 -201c0 -82 -44 -150 -118 -182zM187 598v-198h128c77 0 121 36 121 99c0 62 -44 99 -121 99h-128zM215 -190l41 148h121l-84 -148h-78z" />
    <glyph glyph-name="S" unicode="S" horiz-adv-x="589" 
d="M295 -8c-136 0 -248 90 -268 218l107 33c12 -90 81 -149 165 -149c83 0 137 39 137 99c0 166 -383 75 -383 327c0 111 103 188 240 188c131 0 234 -70 254 -175l-105 -43c-14 71 -69 116 -149 116c-76 0 -122 -32 -122 -86c0 -141 384 -43 384 -325
c0 -122 -103 -203 -260 -203z" />
    <glyph glyph-name="Sacute" unicode="&#x15a;" horiz-adv-x="589" 
d="M240 756l67 148h130l-119 -148h-78zM295 -8c-136 0 -248 90 -268 218l107 33c12 -90 81 -149 165 -149c83 0 137 39 137 99c0 166 -383 75 -383 327c0 111 103 188 240 188c131 0 234 -70 254 -175l-105 -43c-14 71 -69 116 -149 116c-76 0 -122 -32 -122 -86
c0 -141 384 -43 384 -325c0 -122 -103 -203 -260 -203z" />
    <glyph glyph-name="Scaron" unicode="&#x160;" horiz-adv-x="589" 
d="M246 756l-115 148h82l79 -82l78 82h82l-115 -148h-91zM295 -8c-136 0 -248 90 -268 218l107 33c12 -90 81 -149 165 -149c83 0 137 39 137 99c0 166 -383 75 -383 327c0 111 103 188 240 188c131 0 234 -70 254 -175l-105 -43c-14 71 -69 116 -149 116
c-76 0 -122 -32 -122 -86c0 -141 384 -43 384 -325c0 -122 -103 -203 -260 -203z" />
    <glyph glyph-name="Scedilla" unicode="&#x15e;" horiz-adv-x="589" 
d="M555 195c0 -109 -82 -185 -212 -200l-65 -142h-130l112 141c-120 14 -215 99 -233 216l107 33c12 -90 81 -149 165 -149c83 0 137 39 137 99c0 166 -383 75 -383 327c0 111 103 188 240 188c131 0 234 -70 254 -175l-105 -43c-14 71 -69 116 -149 116
c-76 0 -122 -32 -122 -86c0 -141 384 -43 384 -325z" />
    <glyph glyph-name="Scircumflex" unicode="&#x15c;" horiz-adv-x="589" 
d="M246 904h91l115 -148h-82l-78 82l-79 -82h-82zM295 -8c-136 0 -248 90 -268 218l107 33c12 -90 81 -149 165 -149c83 0 137 39 137 99c0 166 -383 75 -383 327c0 111 103 188 240 188c131 0 234 -70 254 -175l-105 -43c-14 71 -69 116 -149 116c-76 0 -122 -32 -122 -86
c0 -141 384 -43 384 -325c0 -122 -103 -203 -260 -203z" />
    <glyph glyph-name="Scommaaccent" unicode="&#x218;" horiz-adv-x="589" 
d="M295 -8c-136 0 -248 90 -268 218l107 33c12 -90 81 -149 165 -149c83 0 137 39 137 99c0 166 -383 75 -383 327c0 111 103 188 240 188c131 0 234 -70 254 -175l-105 -43c-14 71 -69 116 -149 116c-76 0 -122 -32 -122 -86c0 -141 384 -43 384 -325
c0 -122 -103 -203 -260 -203zM187 -190l41 148h121l-84 -148h-78z" />
    <glyph glyph-name="T" unicode="T" horiz-adv-x="582" 
d="M233 0v598h-216v102h549v-102h-216v-598h-117z" />
    <glyph glyph-name="Tbar" unicode="&#x166;" horiz-adv-x="568" 
d="M566 598h-216v-160h170v-92h-170v-346h-117v346h-183v92h183v160h-216v102h549v-102z" />
    <glyph glyph-name="Tcaron" unicode="&#x164;" horiz-adv-x="582" 
d="M245 756l-115 148h82l79 -82l78 82h82l-115 -148h-91zM233 0v598h-216v102h549v-102h-216v-598h-117z" />
    <glyph glyph-name="uni0162" unicode="&#x162;" horiz-adv-x="582" 
d="M17 700h549v-102h-216v-598l-68 -147h-130l117 147h-36v598h-216v102z" />
    <glyph glyph-name="uni021A" unicode="&#x21a;" horiz-adv-x="582" 
d="M233 0v598h-216v102h549v-102h-216v-598h-117zM191 -190l41 148h121l-84 -148h-78z" />
    <glyph glyph-name="U" unicode="U" horiz-adv-x="681" 
d="M341 -8c-162 0 -272 92 -272 257v451h111v-453c0 -98 65 -152 161 -152c95 0 160 54 160 152v453h111v-451c0 -165 -110 -257 -271 -257z" />
    <glyph glyph-name="Uacute" unicode="&#xda;" horiz-adv-x="681" 
d="M289 756l67 148h130l-119 -148h-78zM341 -8c-162 0 -272 92 -272 257v451h111v-453c0 -98 65 -152 161 -152c95 0 160 54 160 152v453h111v-451c0 -165 -110 -257 -271 -257z" />
    <glyph glyph-name="Ubreve" unicode="&#x16c;" horiz-adv-x="681" 
d="M341 753c-77 0 -134 56 -134 132h82c0 -34 21 -58 52 -58s53 24 53 58h83c0 -76 -58 -132 -136 -132zM341 -8c-162 0 -272 92 -272 257v451h111v-453c0 -98 65 -152 161 -152c95 0 160 54 160 152v453h111v-451c0 -165 -110 -257 -271 -257z" />
    <glyph glyph-name="Ucircumflex" unicode="&#xdb;" horiz-adv-x="681" 
d="M295 904h91l115 -148h-82l-78 82l-79 -82h-82zM341 -8c-162 0 -272 92 -272 257v451h111v-453c0 -98 65 -152 161 -152c95 0 160 54 160 152v453h111v-451c0 -165 -110 -257 -271 -257z" />
    <glyph glyph-name="Udieresis" unicode="&#xdc;" horiz-adv-x="681" 
d="M248 777c-39 0 -66 27 -66 63c0 37 27 65 66 65s67 -28 67 -65c0 -36 -28 -63 -67 -63zM432 777c-37 0 -65 27 -65 63c0 37 28 65 65 65c39 0 68 -28 68 -65c0 -36 -29 -63 -68 -63zM341 -8c-162 0 -272 92 -272 257v451h111v-453c0 -98 65 -152 161 -152
c95 0 160 54 160 152v453h111v-451c0 -165 -110 -257 -271 -257z" />
    <glyph glyph-name="Ugrave" unicode="&#xd9;" horiz-adv-x="681" 
d="M382 756h-78l-119 148h130zM341 -8c-162 0 -272 92 -272 257v451h111v-453c0 -98 65 -152 161 -152c95 0 160 54 160 152v453h111v-451c0 -165 -110 -257 -271 -257z" />
    <glyph glyph-name="Uhungarumlaut" unicode="&#x170;" horiz-adv-x="681" 
d="M207 756l67 148h97l-75 -148h-89zM360 756l66 148h102l-80 -148h-88zM341 -8c-162 0 -272 92 -272 257v451h111v-453c0 -98 65 -152 161 -152c95 0 160 54 160 152v453h111v-451c0 -165 -110 -257 -271 -257z" />
    <glyph glyph-name="Umacron" unicode="&#x16a;" horiz-adv-x="681" 
d="M204 783v86h273v-86h-273zM341 -8c-162 0 -272 92 -272 257v451h111v-453c0 -98 65 -152 161 -152c95 0 160 54 160 152v453h111v-451c0 -165 -110 -257 -271 -257z" />
    <glyph glyph-name="Uogonek" unicode="&#x172;" horiz-adv-x="681" 
d="M501 700h111v-451c0 -154 -96 -244 -239 -256c-18 -19 -32 -43 -32 -63c0 -23 16 -37 39 -37c13 0 24 2 28 3l11 -80c-9 -3 -32 -6 -53 -6c-70 0 -117 40 -117 100c0 27 15 61 36 86c-131 19 -216 108 -216 253v451h111v-453c0 -98 65 -152 161 -152c95 0 160 54 160 152
v453z" />
    <glyph glyph-name="Uring" unicode="&#x16e;" horiz-adv-x="681" 
d="M341 738c-65 0 -113 45 -113 106s48 107 113 107c66 0 114 -46 114 -107s-48 -106 -114 -106zM341 796c30 0 51 20 51 48c0 29 -21 49 -51 49c-28 0 -50 -20 -50 -49c0 -28 22 -48 50 -48zM341 -8c-162 0 -272 92 -272 257v451h111v-453c0 -98 65 -152 161 -152
c95 0 160 54 160 152v453h111v-451c0 -165 -110 -257 -271 -257z" />
    <glyph glyph-name="Utilde" unicode="&#x168;" horiz-adv-x="681" 
d="M231 772l-76 12c2 70 50 118 118 118c28 0 53 -8 80 -27c23 -14 36 -25 59 -25s38 17 41 50l77 -12c-3 -71 -51 -118 -118 -118c-31 0 -57 11 -81 26c-22 15 -36 27 -58 27c-23 0 -38 -17 -42 -51zM341 -8c-162 0 -272 92 -272 257v451h111v-453c0 -98 65 -152 161 -152
c95 0 160 54 160 152v453h111v-451c0 -165 -110 -257 -271 -257z" />
    <glyph glyph-name="V" unicode="V" horiz-adv-x="647" 
d="M266 0l-258 700h120l195 -562l198 562h119l-259 -700h-115z" />
    <glyph glyph-name="W" unicode="W" horiz-adv-x="1001" 
d="M224 0l-208 700h121l148 -562l151 562h129l150 -562l149 562h121l-206 -700h-124l-154 534l-155 -534h-122z" />
    <glyph glyph-name="Wacute" unicode="&#x1e82;" horiz-adv-x="1001" 
d="M449 756l67 148h130l-119 -148h-78zM224 0l-208 700h121l148 -562l151 562h129l150 -562l149 562h121l-206 -700h-124l-154 534l-155 -534h-122z" />
    <glyph glyph-name="Wcircumflex" unicode="&#x174;" horiz-adv-x="1001" 
d="M455 904h91l115 -148h-82l-78 82l-79 -82h-82zM224 0l-208 700h121l148 -562l151 562h129l150 -562l149 562h121l-206 -700h-124l-154 534l-155 -534h-122z" />
    <glyph glyph-name="Wdieresis" unicode="&#x1e84;" horiz-adv-x="1001" 
d="M408 777c-39 0 -66 27 -66 63c0 37 27 65 66 65s67 -28 67 -65c0 -36 -28 -63 -67 -63zM592 777c-37 0 -65 27 -65 63c0 37 28 65 65 65c39 0 68 -28 68 -65c0 -36 -29 -63 -68 -63zM224 0l-208 700h121l148 -562l151 562h129l150 -562l149 562h121l-206 -700h-124
l-154 534l-155 -534h-122z" />
    <glyph glyph-name="Wgrave" unicode="&#x1e80;" horiz-adv-x="1001" 
d="M542 756h-78l-119 148h130zM224 0l-208 700h121l148 -562l151 562h129l150 -562l149 562h121l-206 -700h-124l-154 534l-155 -534h-122z" />
    <glyph glyph-name="X" unicode="X" horiz-adv-x="613" 
d="M602 0h-123l-172 276l-172 -276h-124l234 376l-202 324h124l140 -225l140 225h123l-201 -324z" />
    <glyph glyph-name="Y" unicode="Y" horiz-adv-x="609" 
d="M246 0v291l-243 409h128l173 -298l174 298h128l-243 -409v-291h-117z" />
    <glyph glyph-name="Yacute" unicode="&#xdd;" horiz-adv-x="609" 
d="M252 756l67 148h130l-119 -148h-78zM246 0v291l-243 409h128l173 -298l174 298h128l-243 -409v-291h-117z" />
    <glyph glyph-name="Ycircumflex" unicode="&#x176;" horiz-adv-x="609" 
d="M258 904h91l115 -148h-82l-78 82l-79 -82h-82zM246 0v291l-243 409h128l173 -298l174 298h128l-243 -409v-291h-117z" />
    <glyph glyph-name="Ydieresis" unicode="&#x178;" horiz-adv-x="609" 
d="M211 777c-39 0 -66 27 -66 63c0 37 27 65 66 65s67 -28 67 -65c0 -36 -28 -63 -67 -63zM395 777c-37 0 -65 27 -65 63c0 37 28 65 65 65c39 0 68 -28 68 -65c0 -36 -29 -63 -68 -63zM246 0v291l-243 409h128l173 -298l174 298h128l-243 -409v-291h-117z" />
    <glyph glyph-name="Ygrave" unicode="&#x1ef2;" horiz-adv-x="609" 
d="M345 756h-78l-119 148h130zM246 0v291l-243 409h128l173 -298l174 298h128l-243 -409v-291h-117z" />
    <glyph glyph-name="Z" unicode="Z" horiz-adv-x="598" 
d="M26 0v97l397 501h-377v102h513v-97l-392 -500h393v-103h-534z" />
    <glyph glyph-name="Zacute" unicode="&#x179;" horiz-adv-x="598" 
d="M245 756l67 148h130l-119 -148h-78zM26 0v97l397 501h-377v102h513v-97l-392 -500h393v-103h-534z" />
    <glyph glyph-name="Zcaron" unicode="&#x17d;" horiz-adv-x="598" 
d="M251 756l-115 148h82l79 -82l78 82h82l-115 -148h-91zM26 0v97l397 501h-377v102h513v-97l-392 -500h393v-103h-534z" />
    <glyph glyph-name="Zdotaccent" unicode="&#x17b;" horiz-adv-x="598" 
d="M297 784c-40 0 -70 31 -70 70c0 40 30 71 70 71c41 0 72 -31 72 -71c0 -39 -31 -70 -72 -70zM26 0v97l397 501h-377v102h513v-97l-392 -500h393v-103h-534z" />
    <glyph glyph-name="G.ss03" horiz-adv-x="754" 
d="M389 -8c-207 0 -351 148 -351 358s144 358 350 358c163 0 291 -92 317 -228l-117 -24c-19 93 -98 150 -200 150c-136 0 -232 -95 -232 -256c0 -150 96 -255 232 -255c118 0 198 70 203 177h-247v97h372v-45c0 -200 -130 -332 -327 -332z" />
    <glyph glyph-name="Gbreve.ss03" horiz-adv-x="754" 
d="M382 753c-77 0 -134 56 -134 132h82c0 -34 21 -58 52 -58s53 24 53 58h83c0 -76 -58 -132 -136 -132zM389 -8c-207 0 -351 148 -351 358s144 358 350 358c163 0 291 -92 317 -228l-117 -24c-19 93 -98 150 -200 150c-136 0 -232 -95 -232 -256c0 -150 96 -255 232 -255
c118 0 198 70 203 177h-247v97h372v-45c0 -200 -130 -332 -327 -332z" />
    <glyph glyph-name="Gcircumflex.ss03" horiz-adv-x="754" 
d="M336 904h91l115 -148h-82l-78 82l-79 -82h-82zM389 -8c-207 0 -351 148 -351 358s144 358 350 358c163 0 291 -92 317 -228l-117 -24c-19 93 -98 150 -200 150c-136 0 -232 -95 -232 -256c0 -150 96 -255 232 -255c118 0 198 70 203 177h-247v97h372v-45
c0 -200 -130 -332 -327 -332z" />
    <glyph glyph-name="Gcommaaccent.ss03" horiz-adv-x="754" 
d="M389 -8c-207 0 -351 148 -351 358s144 358 350 358c163 0 291 -92 317 -228l-117 -24c-19 93 -98 150 -200 150c-136 0 -232 -95 -232 -256c0 -150 96 -255 232 -255c118 0 198 70 203 177h-247v97h372v-45c0 -200 -130 -332 -327 -332zM279 -190l41 148h121l-84 -148
h-78z" />
    <glyph glyph-name="Gdotaccent.ss03" horiz-adv-x="754" 
d="M382 784c-40 0 -70 31 -70 70c0 40 30 71 70 71c41 0 72 -31 72 -71c0 -39 -31 -70 -72 -70zM389 -8c-207 0 -351 148 -351 358s144 358 350 358c163 0 291 -92 317 -228l-117 -24c-19 93 -98 150 -200 150c-136 0 -232 -95 -232 -256c0 -150 96 -255 232 -255
c118 0 198 70 203 177h-247v97h372v-45c0 -200 -130 -332 -327 -332z" />
    <glyph glyph-name="a" unicode="a" horiz-adv-x="536" 
d="M256 512c128 0 216 -72 216 -198v-314h-107v77c-29 -51 -91 -85 -158 -85c-100 0 -169 63 -169 149c0 99 77 152 232 168l95 10v7c0 62 -43 100 -109 100c-61 0 -104 -36 -111 -96l-98 18c16 99 102 164 209 164zM229 76c85 0 135 59 136 141v21l-96 -11
c-82 -9 -124 -39 -124 -83c0 -40 33 -68 84 -68z" />
    <glyph glyph-name="aacute" unicode="&#xe1;" horiz-adv-x="536" 
d="M405 708l-119 -148h-78l67 148h130zM256 512c128 0 216 -72 216 -198v-314h-107v77c-29 -51 -91 -85 -158 -85c-100 0 -169 63 -169 149c0 99 77 152 232 168l95 10v7c0 62 -43 100 -109 100c-61 0 -104 -36 -111 -96l-98 18c16 99 102 164 209 164zM229 76
c85 0 135 59 136 141v21l-96 -11c-82 -9 -124 -39 -124 -83c0 -40 33 -68 84 -68z" />
    <glyph glyph-name="abreve" unicode="&#x103;" horiz-adv-x="536" 
d="M260 557c-77 0 -134 56 -134 132h82c0 -34 21 -58 52 -58s53 24 53 58h83c0 -76 -58 -132 -136 -132zM256 512c128 0 216 -72 216 -198v-314h-107v77c-29 -51 -91 -85 -158 -85c-100 0 -169 63 -169 149c0 99 77 152 232 168l95 10v7c0 62 -43 100 -109 100
c-61 0 -104 -36 -111 -96l-98 18c16 99 102 164 209 164zM229 76c85 0 135 59 136 141v21l-96 -11c-82 -9 -124 -39 -124 -83c0 -40 33 -68 84 -68z" />
    <glyph glyph-name="acircumflex" unicode="&#xe2;" horiz-adv-x="536" 
d="M260 642l-79 -82h-82l115 148h91l115 -148h-82zM256 512c128 0 216 -72 216 -198v-314h-107v77c-29 -51 -91 -85 -158 -85c-100 0 -169 63 -169 149c0 99 77 152 232 168l95 10v7c0 62 -43 100 -109 100c-61 0 -104 -36 -111 -96l-98 18c16 99 102 164 209 164zM229 76
c85 0 135 59 136 141v21l-96 -11c-82 -9 -124 -39 -124 -83c0 -40 33 -68 84 -68z" />
    <glyph glyph-name="adieresis" unicode="&#xe4;" horiz-adv-x="536" 
d="M167 581c-39 0 -66 27 -66 63c0 37 27 65 66 65s67 -28 67 -65c0 -36 -28 -63 -67 -63zM351 581c-37 0 -65 27 -65 63c0 37 28 65 65 65c39 0 68 -28 68 -65c0 -36 -29 -63 -68 -63zM256 512c128 0 216 -72 216 -198v-314h-107v77c-29 -51 -91 -85 -158 -85
c-100 0 -169 63 -169 149c0 99 77 152 232 168l95 10v7c0 62 -43 100 -109 100c-61 0 -104 -36 -111 -96l-98 18c16 99 102 164 209 164zM229 76c85 0 135 59 136 141v21l-96 -11c-82 -9 -124 -39 -124 -83c0 -40 33 -68 84 -68z" />
    <glyph glyph-name="agrave" unicode="&#xe0;" horiz-adv-x="536" 
d="M301 560h-78l-119 148h130zM256 512c128 0 216 -72 216 -198v-314h-107v77c-29 -51 -91 -85 -158 -85c-100 0 -169 63 -169 149c0 99 77 152 232 168l95 10v7c0 62 -43 100 -109 100c-61 0 -104 -36 -111 -96l-98 18c16 99 102 164 209 164zM229 76c85 0 135 59 136 141
v21l-96 -11c-82 -9 -124 -39 -124 -83c0 -40 33 -68 84 -68z" />
    <glyph glyph-name="amacron" unicode="&#x101;" horiz-adv-x="536" 
d="M396 673v-86h-273v86h273zM256 512c128 0 216 -72 216 -198v-314h-107v77c-29 -51 -91 -85 -158 -85c-100 0 -169 63 -169 149c0 99 77 152 232 168l95 10v7c0 62 -43 100 -109 100c-61 0 -104 -36 -111 -96l-98 18c16 99 102 164 209 164zM229 76c85 0 135 59 136 141
v21l-96 -11c-82 -9 -124 -39 -124 -83c0 -40 33 -68 84 -68z" />
    <glyph glyph-name="aogonek" unicode="&#x105;" horiz-adv-x="536" 
d="M501 -104l11 -80c-9 -3 -32 -6 -53 -6c-70 0 -117 40 -117 100c0 28 17 65 39 90h-16v77c-29 -51 -91 -85 -158 -85c-100 0 -169 63 -169 149c0 99 77 152 232 168l95 10v7c0 62 -43 100 -109 100c-61 0 -104 -36 -111 -96l-98 18c16 99 102 164 209 164
c128 0 216 -72 216 -198v-314c-20 -20 -38 -48 -38 -70c0 -23 16 -37 39 -37c13 0 24 2 28 3zM229 76c85 0 135 59 136 141v21l-96 -11c-82 -9 -124 -39 -124 -83c0 -40 33 -68 84 -68z" />
    <glyph glyph-name="aring" unicode="&#xe5;" horiz-adv-x="536" 
d="M260 542c-65 0 -113 45 -113 106s48 107 113 107c66 0 114 -46 114 -107s-48 -106 -114 -106zM260 697c-28 0 -50 -20 -50 -49c0 -28 22 -48 50 -48c30 0 51 20 51 48c0 29 -21 49 -51 49zM256 512c128 0 216 -72 216 -198v-314h-107v77c-29 -51 -91 -85 -158 -85
c-100 0 -169 63 -169 149c0 99 77 152 232 168l95 10v7c0 62 -43 100 -109 100c-61 0 -104 -36 -111 -96l-98 18c16 99 102 164 209 164zM229 76c85 0 135 59 136 141v21l-96 -11c-82 -9 -124 -39 -124 -83c0 -40 33 -68 84 -68z" />
    <glyph glyph-name="aringacute" unicode="&#x1fb;" horiz-adv-x="536" 
d="M260 542c-65 0 -113 45 -113 106c0 49 31 88 77 102l63 140h130l-114 -142c43 -15 71 -53 71 -100c0 -61 -48 -106 -114 -106zM260 697c-28 0 -50 -20 -50 -49c0 -28 22 -48 50 -48c30 0 51 20 51 48c0 29 -21 49 -51 49zM256 512c128 0 216 -72 216 -198v-314h-107v77
c-29 -51 -91 -85 -158 -85c-100 0 -169 63 -169 149c0 99 77 152 232 168l95 10v7c0 62 -43 100 -109 100c-61 0 -104 -36 -111 -96l-98 18c16 99 102 164 209 164zM229 76c85 0 135 59 136 141v21l-96 -11c-82 -9 -124 -39 -124 -83c0 -40 33 -68 84 -68z" />
    <glyph glyph-name="atilde" unicode="&#xe3;" horiz-adv-x="536" 
d="M192 627c-23 0 -38 -17 -42 -51l-76 12c2 70 50 118 118 118c28 0 53 -8 80 -27c23 -14 36 -25 59 -25s38 17 41 50l77 -12c-3 -71 -51 -118 -118 -118c-31 0 -57 11 -81 26c-22 15 -36 27 -58 27zM256 512c128 0 216 -72 216 -198v-314h-107v77
c-29 -51 -91 -85 -158 -85c-100 0 -169 63 -169 149c0 99 77 152 232 168l95 10v7c0 62 -43 100 -109 100c-61 0 -104 -36 -111 -96l-98 18c16 99 102 164 209 164zM229 76c85 0 135 59 136 141v21l-96 -11c-82 -9 -124 -39 -124 -83c0 -40 33 -68 84 -68z" />
    <glyph glyph-name="ae" unicode="&#xe6;" horiz-adv-x="908" 
d="M872 271c0 -15 -1 -36 -2 -45h-385c10 -87 66 -141 146 -141c66 0 113 31 126 86l103 -26c-27 -97 -113 -153 -231 -153c-92 0 -161 41 -203 101c-40 -63 -109 -101 -201 -101c-116 0 -187 63 -187 149c0 99 79 165 239 165h98v20c0 62 -47 101 -116 101
c-62 0 -108 -40 -112 -91l-95 19c15 92 100 157 207 157c80 0 145 -27 184 -77c41 47 102 77 181 77c162 0 248 -118 248 -241zM490 309h266c-7 68 -52 117 -132 117c-69 0 -118 -42 -134 -117zM235 74c88 0 140 61 140 146v7h-101c-85 0 -128 -36 -128 -83
c0 -41 37 -70 89 -70z" />
    <glyph glyph-name="aeacute" unicode="&#x1fd;" horiz-adv-x="908" 
d="M616 708l-119 -148h-78l67 148h130zM872 271c0 -15 -1 -36 -2 -45h-385c10 -87 66 -141 146 -141c66 0 113 31 126 86l103 -26c-27 -97 -113 -153 -231 -153c-92 0 -161 41 -203 101c-40 -63 -109 -101 -201 -101c-116 0 -187 63 -187 149c0 99 79 165 239 165h98v20
c0 62 -47 101 -116 101c-62 0 -108 -40 -112 -91l-95 19c15 92 100 157 207 157c80 0 145 -27 184 -77c41 47 102 77 181 77c162 0 248 -118 248 -241zM490 309h266c-7 68 -52 117 -132 117c-69 0 -118 -42 -134 -117zM235 74c88 0 140 61 140 146v7h-101
c-85 0 -128 -36 -128 -83c0 -41 37 -70 89 -70z" />
    <glyph glyph-name="b" unicode="b" horiz-adv-x="604" 
d="M326 -8c-67 0 -128 30 -152 72v-64h-109v708h109v-267c30 42 89 71 154 71c152 0 239 -108 239 -260s-87 -260 -241 -260zM312 87c88 0 146 66 146 165c0 100 -58 165 -146 165s-146 -65 -146 -165c0 -99 58 -165 146 -165z" />
    <glyph glyph-name="c" unicode="c" horiz-adv-x="556" 
d="M290 -8c-151 0 -253 105 -253 260s102 260 253 260c124 0 213 -66 230 -170l-106 -21c-10 57 -57 96 -121 96c-87 0 -143 -65 -143 -165s57 -165 143 -165c64 0 109 35 121 94l107 -21c-21 -105 -108 -168 -231 -168z" />
    <glyph glyph-name="cacute" unicode="&#x107;" horiz-adv-x="556" 
d="M236 560l67 148h130l-119 -148h-78zM290 -8c-151 0 -253 105 -253 260s102 260 253 260c124 0 213 -66 230 -170l-106 -21c-10 57 -57 96 -121 96c-87 0 -143 -65 -143 -165s57 -165 143 -165c64 0 109 35 121 94l107 -21c-21 -105 -108 -168 -231 -168z" />
    <glyph glyph-name="ccaron" unicode="&#x10d;" horiz-adv-x="556" 
d="M242 560l-115 148h82l79 -82l78 82h82l-115 -148h-91zM290 -8c-151 0 -253 105 -253 260s102 260 253 260c124 0 213 -66 230 -170l-106 -21c-10 57 -57 96 -121 96c-87 0 -143 -65 -143 -165s57 -165 143 -165c64 0 109 35 121 94l107 -21c-21 -105 -108 -168 -231 -168
z" />
    <glyph glyph-name="ccedilla" unicode="&#xe7;" horiz-adv-x="556" 
d="M521 160c-19 -94 -90 -154 -192 -166l-65 -141h-130l113 142c-127 18 -210 117 -210 257c0 155 102 260 253 260c124 0 213 -66 230 -170l-106 -21c-10 57 -57 96 -121 96c-87 0 -143 -65 -143 -165s57 -165 143 -165c64 0 109 35 121 94z" />
    <glyph glyph-name="ccircumflex" unicode="&#x109;" horiz-adv-x="556" 
d="M242 708h91l115 -148h-82l-78 82l-79 -82h-82zM290 -8c-151 0 -253 105 -253 260s102 260 253 260c124 0 213 -66 230 -170l-106 -21c-10 57 -57 96 -121 96c-87 0 -143 -65 -143 -165s57 -165 143 -165c64 0 109 35 121 94l107 -21c-21 -105 -108 -168 -231 -168z" />
    <glyph glyph-name="cdotaccent" unicode="&#x10b;" horiz-adv-x="556" 
d="M288 588c-40 0 -70 31 -70 70c0 40 30 71 70 71c41 0 72 -31 72 -71c0 -39 -31 -70 -72 -70zM290 -8c-151 0 -253 105 -253 260s102 260 253 260c124 0 213 -66 230 -170l-106 -21c-10 57 -57 96 -121 96c-87 0 -143 -65 -143 -165s57 -165 143 -165c64 0 109 35 121 94
l107 -21c-21 -105 -108 -168 -231 -168z" />
    <glyph glyph-name="d" unicode="d" horiz-adv-x="604" 
d="M278 -8c-154 0 -241 108 -241 260s87 260 239 260c65 0 124 -29 154 -71v267h109v-708h-109v64c-24 -42 -85 -72 -152 -72zM292 87c88 0 146 66 146 165c0 100 -58 165 -146 165s-146 -65 -146 -165c0 -99 58 -165 146 -165z" />
    <glyph glyph-name="eth" unicode="&#xf0;" horiz-adv-x="597" 
d="M618 647v-80h-79v-303c0 -173 -90 -272 -248 -272c-153 0 -254 104 -254 260c0 152 87 260 239 260c65 0 124 -29 154 -71v126h-125v80h125v61h109v-61h79zM292 87c88 0 146 66 146 165c0 100 -58 165 -146 165s-146 -65 -146 -165c0 -99 58 -165 146 -165z" />
    <glyph glyph-name="dcaron" unicode="&#x10f;" horiz-adv-x="707" 
d="M583 560l32 181h107l-75 -181h-64zM278 -8c-154 0 -241 108 -241 260s87 260 239 260c65 0 124 -29 154 -71v267h109v-708h-109v64c-24 -42 -85 -72 -152 -72zM292 87c88 0 146 66 146 165c0 100 -58 165 -146 165s-146 -65 -146 -165c0 -99 58 -165 146 -165z" />
    <glyph glyph-name="dcroat" unicode="&#x111;" horiz-adv-x="604" 
d="M617 646v-80h-78v-566h-109v64c-24 -42 -85 -72 -152 -72c-154 0 -241 108 -241 260s87 260 239 260c65 0 124 -29 154 -71v125h-126v80h126v62h109v-62h78zM292 87c88 0 146 66 146 165c0 100 -58 165 -146 165s-146 -65 -146 -165c0 -99 58 -165 146 -165z" />
    <glyph glyph-name="e" unicode="e" horiz-adv-x="568" 
d="M531 271c0 -15 -1 -36 -2 -45h-385c10 -87 66 -141 146 -141c66 0 113 31 126 86l103 -26c-27 -97 -113 -153 -231 -153c-160 0 -251 124 -251 260s86 260 246 260c162 0 248 -118 248 -241zM149 309h266c-7 68 -52 117 -132 117c-69 0 -118 -42 -134 -117z" />
    <glyph glyph-name="eacute" unicode="&#xe9;" horiz-adv-x="568" 
d="M423 708l-119 -148h-78l67 148h130zM531 271c0 -15 -1 -36 -2 -45h-385c10 -87 66 -141 146 -141c66 0 113 31 126 86l103 -26c-27 -97 -113 -153 -231 -153c-160 0 -251 124 -251 260s86 260 246 260c162 0 248 -118 248 -241zM149 309h266c-7 68 -52 117 -132 117
c-69 0 -118 -42 -134 -117z" />
    <glyph glyph-name="ebreve" unicode="&#x115;" horiz-adv-x="568" 
d="M278 557c-77 0 -134 56 -134 132h82c0 -34 21 -58 52 -58s53 24 53 58h83c0 -76 -58 -132 -136 -132zM531 271c0 -15 -1 -36 -2 -45h-385c10 -87 66 -141 146 -141c66 0 113 31 126 86l103 -26c-27 -97 -113 -153 -231 -153c-160 0 -251 124 -251 260s86 260 246 260
c162 0 248 -118 248 -241zM149 309h266c-7 68 -52 117 -132 117c-69 0 -118 -42 -134 -117z" />
    <glyph glyph-name="ecaron" unicode="&#x11b;" horiz-adv-x="568" 
d="M323 560h-91l-115 148h82l79 -82l78 82h82zM531 271c0 -15 -1 -36 -2 -45h-385c10 -87 66 -141 146 -141c66 0 113 31 126 86l103 -26c-27 -97 -113 -153 -231 -153c-160 0 -251 124 -251 260s86 260 246 260c162 0 248 -118 248 -241zM149 309h266
c-7 68 -52 117 -132 117c-69 0 -118 -42 -134 -117z" />
    <glyph glyph-name="ecircumflex" unicode="&#xea;" horiz-adv-x="568" 
d="M278 642l-79 -82h-82l115 148h91l115 -148h-82zM531 271c0 -15 -1 -36 -2 -45h-385c10 -87 66 -141 146 -141c66 0 113 31 126 86l103 -26c-27 -97 -113 -153 -231 -153c-160 0 -251 124 -251 260s86 260 246 260c162 0 248 -118 248 -241zM149 309h266
c-7 68 -52 117 -132 117c-69 0 -118 -42 -134 -117z" />
    <glyph glyph-name="edieresis" unicode="&#xeb;" horiz-adv-x="568" 
d="M185 581c-39 0 -66 27 -66 63c0 37 27 65 66 65s67 -28 67 -65c0 -36 -28 -63 -67 -63zM369 581c-37 0 -65 27 -65 63c0 37 28 65 65 65c39 0 68 -28 68 -65c0 -36 -29 -63 -68 -63zM531 271c0 -15 -1 -36 -2 -45h-385c10 -87 66 -141 146 -141c66 0 113 31 126 86
l103 -26c-27 -97 -113 -153 -231 -153c-160 0 -251 124 -251 260s86 260 246 260c162 0 248 -118 248 -241zM149 309h266c-7 68 -52 117 -132 117c-69 0 -118 -42 -134 -117z" />
    <glyph glyph-name="edotaccent" unicode="&#x117;" horiz-adv-x="568" 
d="M278 588c-40 0 -70 31 -70 70c0 40 30 71 70 71c41 0 72 -31 72 -71c0 -39 -31 -70 -72 -70zM531 271c0 -15 -1 -36 -2 -45h-385c10 -87 66 -141 146 -141c66 0 113 31 126 86l103 -26c-27 -97 -113 -153 -231 -153c-160 0 -251 124 -251 260s86 260 246 260
c162 0 248 -118 248 -241zM149 309h266c-7 68 -52 117 -132 117c-69 0 -118 -42 -134 -117z" />
    <glyph glyph-name="egrave" unicode="&#xe8;" horiz-adv-x="568" 
d="M319 560h-78l-119 148h130zM531 271c0 -15 -1 -36 -2 -45h-385c10 -87 66 -141 146 -141c66 0 113 31 126 86l103 -26c-27 -97 -113 -153 -231 -153c-160 0 -251 124 -251 260s86 260 246 260c162 0 248 -118 248 -241zM149 309h266c-7 68 -52 117 -132 117
c-69 0 -118 -42 -134 -117z" />
    <glyph glyph-name="emacron" unicode="&#x113;" horiz-adv-x="568" 
d="M414 673v-86h-273v86h273zM531 271c0 -15 -1 -36 -2 -45h-385c10 -87 66 -141 146 -141c66 0 113 31 126 86l103 -26c-27 -97 -113 -153 -231 -153c-160 0 -251 124 -251 260s86 260 246 260c162 0 248 -118 248 -241zM149 309h266c-7 68 -52 117 -132 117
c-69 0 -118 -42 -134 -117z" />
    <glyph glyph-name="eogonek" unicode="&#x119;" horiz-adv-x="568" 
d="M531 271c0 -15 -1 -36 -2 -45h-385c10 -87 66 -141 146 -141c66 0 113 31 126 86l103 -26c-22 -79 -83 -131 -168 -147c-19 -20 -36 -47 -36 -68c0 -23 16 -37 39 -37c13 0 24 2 28 3l11 -80c-9 -3 -32 -6 -53 -6c-70 0 -117 40 -117 100c0 26 14 59 34 84
c-141 15 -220 131 -220 258c0 136 86 260 246 260c162 0 248 -118 248 -241zM149 309h266c-7 68 -52 117 -132 117c-69 0 -118 -42 -134 -117z" />
    <glyph glyph-name="f" unicode="f" horiz-adv-x="375" 
d="M111 0v411h-83v93h83v43c0 114 70 177 166 177c25 0 50 -4 72 -11l-6 -92c-18 7 -35 10 -52 10c-43 0 -71 -32 -71 -82v-45h123v-93h-123v-411h-109z" />
    <glyph glyph-name="g" unicode="g" horiz-adv-x="594" 
d="M422 504h108v-476c0 -130 -99 -218 -244 -218c-118 0 -211 63 -227 155l102 17c6 -50 59 -83 125 -83c81 0 137 48 137 118v61c-25 -38 -84 -64 -150 -64c-150 0 -236 103 -236 249s86 249 234 249c64 0 122 -27 151 -66v58zM288 109c85 0 141 61 141 154
s-56 154 -141 154c-86 0 -142 -61 -142 -154s56 -154 142 -154z" />
    <glyph glyph-name="gbreve" unicode="&#x11f;" horiz-adv-x="594" 
d="M287 557c-77 0 -134 56 -134 132h82c0 -34 21 -58 52 -58s53 24 53 58h83c0 -76 -58 -132 -136 -132zM422 504h108v-476c0 -130 -99 -218 -244 -218c-118 0 -211 63 -227 155l102 17c6 -50 59 -83 125 -83c81 0 137 48 137 118v61c-25 -38 -84 -64 -150 -64
c-150 0 -236 103 -236 249s86 249 234 249c64 0 122 -27 151 -66v58zM288 109c85 0 141 61 141 154s-56 154 -141 154c-86 0 -142 -61 -142 -154s56 -154 142 -154z" />
    <glyph glyph-name="gcircumflex" unicode="&#x11d;" horiz-adv-x="594" 
d="M287 642l-79 -82h-82l115 148h91l115 -148h-82zM422 504h108v-476c0 -130 -99 -218 -244 -218c-118 0 -211 63 -227 155l102 17c6 -50 59 -83 125 -83c81 0 137 48 137 118v61c-25 -38 -84 -64 -150 -64c-150 0 -236 103 -236 249s86 249 234 249c64 0 122 -27 151 -66
v58zM288 109c85 0 141 61 141 154s-56 154 -141 154c-86 0 -142 -61 -142 -154s56 -154 142 -154z" />
    <glyph glyph-name="gcommaaccent" unicode="&#x123;" horiz-adv-x="594" 
d="M389 708l-28 -148h-117l61 148h84zM422 504h108v-476c0 -130 -99 -218 -244 -218c-118 0 -211 63 -227 155l102 17c6 -50 59 -83 125 -83c81 0 137 48 137 118v61c-25 -38 -84 -64 -150 -64c-150 0 -236 103 -236 249s86 249 234 249c64 0 122 -27 151 -66v58zM288 109
c85 0 141 61 141 154s-56 154 -141 154c-86 0 -142 -61 -142 -154s56 -154 142 -154z" />
    <glyph glyph-name="gdotaccent" unicode="&#x121;" horiz-adv-x="594" 
d="M287 588c-40 0 -70 31 -70 70c0 40 30 71 70 71c41 0 72 -31 72 -71c0 -39 -31 -70 -72 -70zM422 504h108v-476c0 -130 -99 -218 -244 -218c-118 0 -211 63 -227 155l102 17c6 -50 59 -83 125 -83c81 0 137 48 137 118v61c-25 -38 -84 -64 -150 -64
c-150 0 -236 103 -236 249s86 249 234 249c64 0 122 -27 151 -66v58zM288 109c85 0 141 61 141 154s-56 154 -141 154c-86 0 -142 -61 -142 -154s56 -154 142 -154z" />
    <glyph glyph-name="h" unicode="h" horiz-adv-x="591" 
d="M64 0v708h109v-291c35 63 94 95 165 95c114 0 189 -71 189 -181v-331h-109v306c0 67 -42 108 -110 108c-84 0 -135 -73 -135 -196v-218h-109z" />
    <glyph glyph-name="hbar" unicode="&#x127;" horiz-adv-x="591" 
d="M338 512c114 0 189 -71 189 -181v-331h-109v306c0 67 -42 108 -110 108c-84 0 -135 -73 -135 -196v-218h-109v567h-77v80h77v61h109v-61h127v-80h-127v-150c35 63 94 95 165 95z" />
    <glyph glyph-name="hcircumflex" unicode="&#x125;" horiz-adv-x="591" 
d="M72 904h91l115 -148h-82l-78 82l-79 -82h-82zM64 0v708h109v-291c35 63 94 95 165 95c114 0 189 -71 189 -181v-331h-109v306c0 67 -42 108 -110 108c-84 0 -135 -73 -135 -196v-218h-109z" />
    <glyph glyph-name="i" unicode="i" horiz-adv-x="238" 
d="M118 588c-40 0 -70 31 -70 70c0 40 30 71 70 71c41 0 72 -31 72 -71c0 -39 -31 -70 -72 -70zM64 0v504h109v-504h-109z" />
    <glyph glyph-name="dotlessi" unicode="&#x131;" horiz-adv-x="238" 
d="M64 0v504h109v-504h-109z" />
    <glyph glyph-name="iacute" unicode="&#xed;" horiz-adv-x="238" 
d="M66 560l67 148h130l-119 -148h-78zM64 0v504h109v-504h-109z" />
    <glyph glyph-name="ibreve" unicode="&#x12d;" horiz-adv-x="238" 
d="M118 557c-77 0 -134 56 -134 132h82c0 -34 21 -58 52 -58s53 24 53 58h83c0 -76 -58 -132 -136 -132zM64 0v504h109v-504h-109z" />
    <glyph glyph-name="icircumflex" unicode="&#xee;" horiz-adv-x="238" 
d="M72 708h91l115 -148h-82l-78 82l-79 -82h-82zM64 0v504h109v-504h-109z" />
    <glyph glyph-name="idieresis" unicode="&#xef;" horiz-adv-x="238" 
d="M25 581c-39 0 -66 27 -66 63c0 37 27 65 66 65s67 -28 67 -65c0 -36 -28 -63 -67 -63zM209 581c-37 0 -65 27 -65 63c0 37 28 65 65 65c39 0 68 -28 68 -65c0 -36 -29 -63 -68 -63zM64 0v504h109v-504h-109z" />
    <glyph glyph-name="i.loclTRK" horiz-adv-x="238" 
d="M118 588c-40 0 -70 31 -70 70c0 40 30 71 70 71c41 0 72 -31 72 -71c0 -39 -31 -70 -72 -70zM64 0v504h109v-504h-109z" />
    <glyph glyph-name="igrave" unicode="&#xec;" horiz-adv-x="238" 
d="M159 560h-78l-119 148h130zM64 0v504h109v-504h-109z" />
    <glyph glyph-name="imacron" unicode="&#x12b;" horiz-adv-x="238" 
d="M-19 587v86h273v-86h-273zM64 0v504h109v-504h-109z" />
    <glyph glyph-name="iogonek" unicode="&#x12f;" horiz-adv-x="238" 
d="M118 588c-40 0 -70 31 -70 70c0 40 30 71 70 71c41 0 72 -31 72 -71c0 -39 -31 -70 -72 -70zM202 -104l11 -80c-9 -3 -32 -6 -53 -6c-70 0 -117 40 -117 100c0 28 17 65 39 90h-18v504h109v-504c-20 -20 -38 -48 -38 -70c0 -23 16 -37 39 -37c13 0 24 2 28 3z" />
    <glyph glyph-name="itilde" unicode="&#x129;" horiz-adv-x="238" 
d="M8 576l-76 12c2 70 50 118 118 118c28 0 53 -8 80 -27c23 -14 36 -25 59 -25s38 17 41 50l77 -12c-3 -71 -51 -118 -118 -118c-31 0 -57 11 -81 26c-22 15 -36 27 -58 27c-23 0 -38 -17 -42 -51zM64 0v504h109v-504h-109z" />
    <glyph glyph-name="j" unicode="j" horiz-adv-x="240" 
d="M123 588c-40 0 -70 31 -70 70c0 40 30 71 70 71c41 0 72 -31 72 -71c0 -39 -31 -70 -72 -70zM7 -190l-27 1l-2 96c9 -1 10 -1 17 -1c50 0 74 34 74 92v506h109v-520c0 -104 -67 -174 -171 -174z" />
    <glyph glyph-name="uni0237" unicode="&#x237;" horiz-adv-x="240" 
d="M7 -190l-27 1l-2 96c9 -1 10 -1 17 -1c50 0 74 34 74 92v506h109v-520c0 -104 -67 -174 -171 -174z" />
    <glyph glyph-name="jcircumflex" unicode="&#x135;" horiz-adv-x="240" 
d="M77 708h91l115 -148h-82l-78 82l-79 -82h-82zM7 -190l-27 1l-2 96c9 -1 10 -1 17 -1c50 0 74 34 74 92v506h109v-520c0 -104 -67 -174 -171 -174z" />
    <glyph glyph-name="k" unicode="k" horiz-adv-x="549" 
d="M406 0l-169 232l-63 -59v-173h-110v708h110v-394l208 190h141l-209 -199l225 -305h-133z" />
    <glyph glyph-name="kcommaaccent" unicode="&#x137;" horiz-adv-x="549" 
d="M314 305l225 -305h-133l-169 232l-63 -59v-173h-110v708h110v-394l208 190h141zM158 -190l41 148h121l-84 -148h-78z" />
    <glyph glyph-name="kgreenlandic" unicode="&#x138;" horiz-adv-x="549" 
d="M406 0l-170 234l-62 -59v-175h-110v504h110v-192l210 192h137l-208 -197l226 -307h-133z" />
    <glyph glyph-name="l" unicode="l" horiz-adv-x="238" 
d="M64 0v708h109v-708h-109z" />
    <glyph glyph-name="lacute" unicode="&#x13a;" horiz-adv-x="238" 
d="M65 756l67 148h130l-119 -148h-78zM64 0v708h109v-708h-109z" />
    <glyph glyph-name="lcaron" unicode="&#x13e;" horiz-adv-x="342" 
d="M218 560l32 181h107l-75 -181h-64zM64 0v708h109v-708h-109z" />
    <glyph glyph-name="lcommaaccent" unicode="&#x13c;" horiz-adv-x="238" 
d="M64 0v708h109v-708h-109zM17 -190l41 148h121l-84 -148h-78z" />
    <glyph glyph-name="ldot" unicode="&#x140;" horiz-adv-x="424" 
d="M64 0v708h109v-708h-109zM289 278c-41 0 -71 30 -71 70s30 70 71 70s71 -30 71 -70s-30 -70 -71 -70z" />
    <glyph glyph-name="lslash" unicode="&#x142;" horiz-adv-x="300" 
d="M292 483v-95l-88 -41v-347h-109v296l-87 -41v95l87 41v317h109v-266z" />
    <glyph glyph-name="m" unicode="m" horiz-adv-x="889" 
d="M64 0v504h109v-85c27 55 75 93 148 93c81 0 139 -35 160 -100c27 55 87 100 166 100c108 0 178 -70 178 -172v-340h-109v313c0 63 -36 105 -100 105c-75 0 -118 -66 -118 -163v-255h-108v313c0 63 -35 105 -99 105c-75 0 -118 -67 -118 -163v-255h-109z" />
    <glyph glyph-name="n" unicode="n" horiz-adv-x="585" 
d="M64 0v504h109v-84c34 54 92 92 166 92c107 0 182 -71 182 -180v-332h-109v307c0 63 -39 107 -103 107c-85 0 -136 -72 -136 -193v-221h-109z" />
    <glyph glyph-name="nacute" unicode="&#x144;" horiz-adv-x="585" 
d="M238 560l67 148h130l-119 -148h-78zM64 0v504h109v-84c34 54 92 92 166 92c107 0 182 -71 182 -180v-332h-109v307c0 63 -39 107 -103 107c-85 0 -136 -72 -136 -193v-221h-109z" />
    <glyph glyph-name="napostrophe" unicode="&#x149;" horiz-adv-x="585" 
d="M79 560l32 181h107l-75 -181h-64zM64 0v504h109v-84c34 54 92 92 166 92c107 0 182 -71 182 -180v-332h-109v307c0 63 -39 107 -103 107c-85 0 -136 -72 -136 -193v-221h-109z" />
    <glyph glyph-name="ncaron" unicode="&#x148;" horiz-adv-x="585" 
d="M244 560l-115 148h82l79 -82l78 82h82l-115 -148h-91zM64 0v504h109v-84c34 54 92 92 166 92c107 0 182 -71 182 -180v-332h-109v307c0 63 -39 107 -103 107c-85 0 -136 -72 -136 -193v-221h-109z" />
    <glyph glyph-name="ncommaaccent" unicode="&#x146;" horiz-adv-x="585" 
d="M64 0v504h109v-84c34 54 92 92 166 92c107 0 182 -71 182 -180v-332h-109v307c0 63 -39 107 -103 107c-85 0 -136 -72 -136 -193v-221h-109zM190 -190l41 148h121l-84 -148h-78z" />
    <glyph glyph-name="eng" unicode="&#x14b;" horiz-adv-x="585" 
d="M339 512c107 0 182 -71 182 -180v-357c0 -97 -72 -165 -180 -165c-7 0 -13 0 -20 1l-3 96h18c52 1 76 31 76 96v304c0 63 -39 107 -103 107c-85 0 -136 -72 -136 -193v-221h-109v504h109v-84c34 54 92 92 166 92z" />
    <glyph glyph-name="ntilde" unicode="&#xf1;" horiz-adv-x="585" 
d="M180 576l-76 12c2 70 50 118 118 118c28 0 53 -8 80 -27c23 -14 36 -25 59 -25s38 17 41 50l77 -12c-3 -71 -51 -118 -118 -118c-31 0 -57 11 -81 26c-22 15 -36 27 -58 27c-23 0 -38 -17 -42 -51zM64 0v504h109v-84c34 54 92 92 166 92c107 0 182 -71 182 -180v-332
h-109v307c0 63 -39 107 -103 107c-85 0 -136 -72 -136 -193v-221h-109z" />
    <glyph glyph-name="o" unicode="o" horiz-adv-x="594" 
d="M297 -8c-152 0 -260 109 -260 260s108 260 260 260c151 0 260 -109 260 -260s-109 -260 -260 -260zM297 87c89 0 150 68 150 165s-61 165 -150 165c-90 0 -150 -68 -150 -165s60 -165 150 -165z" />
    <glyph glyph-name="oacute" unicode="&#xf3;" horiz-adv-x="594" 
d="M245 560l67 148h130l-119 -148h-78zM297 -8c-152 0 -260 109 -260 260s108 260 260 260c151 0 260 -109 260 -260s-109 -260 -260 -260zM297 87c89 0 150 68 150 165s-61 165 -150 165c-90 0 -150 -68 -150 -165s60 -165 150 -165z" />
    <glyph glyph-name="obreve" unicode="&#x14f;" horiz-adv-x="594" 
d="M297 557c-77 0 -134 56 -134 132h82c0 -34 21 -58 52 -58s53 24 53 58h83c0 -76 -58 -132 -136 -132zM297 -8c-152 0 -260 109 -260 260s108 260 260 260c151 0 260 -109 260 -260s-109 -260 -260 -260zM297 87c89 0 150 68 150 165s-61 165 -150 165
c-90 0 -150 -68 -150 -165s60 -165 150 -165z" />
    <glyph glyph-name="ocircumflex" unicode="&#xf4;" horiz-adv-x="594" 
d="M251 708h91l115 -148h-82l-78 82l-79 -82h-82zM297 -8c-152 0 -260 109 -260 260s108 260 260 260c151 0 260 -109 260 -260s-109 -260 -260 -260zM297 87c89 0 150 68 150 165s-61 165 -150 165c-90 0 -150 -68 -150 -165s60 -165 150 -165z" />
    <glyph glyph-name="odieresis" unicode="&#xf6;" horiz-adv-x="594" 
d="M204 581c-39 0 -66 27 -66 63c0 37 27 65 66 65s67 -28 67 -65c0 -36 -28 -63 -67 -63zM388 581c-37 0 -65 27 -65 63c0 37 28 65 65 65c39 0 68 -28 68 -65c0 -36 -29 -63 -68 -63zM297 -8c-152 0 -260 109 -260 260s108 260 260 260c151 0 260 -109 260 -260
s-109 -260 -260 -260zM297 87c89 0 150 68 150 165s-61 165 -150 165c-90 0 -150 -68 -150 -165s60 -165 150 -165z" />
    <glyph glyph-name="ograve" unicode="&#xf2;" horiz-adv-x="594" 
d="M338 560h-78l-119 148h130zM297 -8c-152 0 -260 109 -260 260s108 260 260 260c151 0 260 -109 260 -260s-109 -260 -260 -260zM297 87c89 0 150 68 150 165s-61 165 -150 165c-90 0 -150 -68 -150 -165s60 -165 150 -165z" />
    <glyph glyph-name="ohungarumlaut" unicode="&#x151;" horiz-adv-x="594" 
d="M163 560l67 148h97l-75 -148h-89zM316 560l66 148h102l-80 -148h-88zM297 -8c-152 0 -260 109 -260 260s108 260 260 260c151 0 260 -109 260 -260s-109 -260 -260 -260zM297 87c89 0 150 68 150 165s-61 165 -150 165c-90 0 -150 -68 -150 -165s60 -165 150 -165z" />
    <glyph glyph-name="omacron" unicode="&#x14d;" horiz-adv-x="594" 
d="M160 587v86h273v-86h-273zM297 -8c-152 0 -260 109 -260 260s108 260 260 260c151 0 260 -109 260 -260s-109 -260 -260 -260zM297 87c89 0 150 68 150 165s-61 165 -150 165c-90 0 -150 -68 -150 -165s60 -165 150 -165z" />
    <glyph glyph-name="oslash" unicode="&#xf8;" horiz-adv-x="594" 
d="M297 512c151 0 260 -109 260 -260s-109 -260 -260 -260c-152 0 -260 109 -260 260s108 260 260 260zM297 417c-90 0 -150 -68 -150 -165c0 -34 7 -64 20 -89l200 237c-20 11 -44 17 -70 17zM297 87c89 0 150 68 150 165c0 39 -10 73 -27 100l-206 -241
c23 -15 51 -24 83 -24z" />
    <glyph glyph-name="otilde" unicode="&#xf5;" horiz-adv-x="594" 
d="M187 576l-76 12c2 70 50 118 118 118c28 0 53 -8 80 -27c23 -14 36 -25 59 -25s38 17 41 50l77 -12c-3 -71 -51 -118 -118 -118c-31 0 -57 11 -81 26c-22 15 -36 27 -58 27c-23 0 -38 -17 -42 -51zM297 -8c-152 0 -260 109 -260 260s108 260 260 260
c151 0 260 -109 260 -260s-109 -260 -260 -260zM297 87c89 0 150 68 150 165s-61 165 -150 165c-90 0 -150 -68 -150 -165s60 -165 150 -165z" />
    <glyph glyph-name="oe" unicode="&#x153;" horiz-adv-x="981" 
d="M945 271c0 -15 -1 -36 -2 -45h-385c10 -87 66 -141 146 -141c66 0 113 31 126 86l103 -26c-27 -97 -113 -153 -231 -153c-89 0 -156 38 -199 95c-46 -59 -119 -95 -206 -95c-152 0 -260 109 -260 260s108 260 260 260c86 0 159 -36 205 -94c41 56 107 94 195 94
c162 0 248 -118 248 -241zM563 309h266c-7 68 -52 117 -132 117c-69 0 -118 -42 -134 -117zM297 87c89 0 150 68 150 165s-61 165 -150 165c-90 0 -150 -68 -150 -165s60 -165 150 -165z" />
    <glyph glyph-name="p" unicode="p" horiz-adv-x="604" 
d="M64 -182v686h109v-64c28 41 87 72 157 72c149 0 237 -108 237 -260s-92 -260 -243 -260c-61 0 -120 26 -151 66v-240h-109zM312 87c88 0 146 66 146 165c0 100 -58 165 -146 165s-146 -65 -146 -165c0 -99 58 -165 146 -165z" />
    <glyph glyph-name="thorn" unicode="&#xfe;" horiz-adv-x="604" 
d="M64 -204v908h110v-258c37 40 96 66 156 66c149 0 237 -108 237 -260s-92 -260 -243 -260c-65 0 -123 25 -150 58v-254h-110zM311 87c93 0 147 65 147 165c0 99 -54 165 -147 165c-92 0 -145 -66 -145 -165c0 -100 53 -165 145 -165z" />
    <glyph glyph-name="q" unicode="q" horiz-adv-x="604" 
d="M540 -182h-109v240c-31 -40 -90 -66 -151 -66c-151 0 -243 108 -243 260s88 260 237 260c70 0 129 -31 157 -72v64h109v-686zM292 87c88 0 146 66 146 165c0 100 -58 165 -146 165s-146 -65 -146 -165c0 -99 58 -165 146 -165z" />
    <glyph glyph-name="r" unicode="r" horiz-adv-x="396" 
d="M377 398c-18 8 -42 12 -65 12c-74 0 -139 -66 -139 -222v-188h-109v504h109v-96c27 60 93 104 154 104c19 0 41 -3 56 -9z" />
    <glyph glyph-name="racute" unicode="&#x155;" horiz-adv-x="396" 
d="M169 560l67 148h130l-119 -148h-78zM377 398c-18 8 -42 12 -65 12c-74 0 -139 -66 -139 -222v-188h-109v504h109v-96c27 60 93 104 154 104c19 0 41 -3 56 -9z" />
    <glyph glyph-name="rcaron" unicode="&#x159;" horiz-adv-x="396" 
d="M175 560l-115 148h82l79 -82l78 82h82l-115 -148h-91zM377 398c-18 8 -42 12 -65 12c-74 0 -139 -66 -139 -222v-188h-109v504h109v-96c27 60 93 104 154 104c19 0 41 -3 56 -9z" />
    <glyph glyph-name="rcommaaccent" unicode="&#x157;" horiz-adv-x="396" 
d="M377 398c-18 8 -42 12 -65 12c-74 0 -139 -66 -139 -222v-188h-109v504h109v-96c27 60 93 104 154 104c19 0 41 -3 56 -9zM15 -190l41 148h121l-84 -148h-78z" />
    <glyph glyph-name="s" unicode="s" horiz-adv-x="462" 
d="M238 -8c-123 0 -193 76 -216 148l90 38c17 -54 56 -99 126 -99c52 0 87 30 87 66c0 109 -281 38 -281 229c0 79 69 138 178 138c95 0 175 -50 197 -124l-90 -38c-13 50 -60 78 -106 78c-48 0 -78 -19 -78 -52c0 -97 283 -23 283 -230c0 -87 -76 -154 -190 -154z" />
    <glyph glyph-name="sacute" unicode="&#x15b;" horiz-adv-x="462" 
d="M175 560l67 148h130l-119 -148h-78zM238 -8c-123 0 -193 76 -216 148l90 38c17 -54 56 -99 126 -99c52 0 87 30 87 66c0 109 -281 38 -281 229c0 79 69 138 178 138c95 0 175 -50 197 -124l-90 -38c-13 50 -60 78 -106 78c-48 0 -78 -19 -78 -52c0 -97 283 -23 283 -230
c0 -87 -76 -154 -190 -154z" />
    <glyph glyph-name="scaron" unicode="&#x161;" horiz-adv-x="462" 
d="M181 560l-115 148h82l79 -82l78 82h82l-115 -148h-91zM238 -8c-123 0 -193 76 -216 148l90 38c17 -54 56 -99 126 -99c52 0 87 30 87 66c0 109 -281 38 -281 229c0 79 69 138 178 138c95 0 175 -50 197 -124l-90 -38c-13 50 -60 78 -106 78c-48 0 -78 -19 -78 -52
c0 -97 283 -23 283 -230c0 -87 -76 -154 -190 -154z" />
    <glyph glyph-name="scedilla" unicode="&#x15f;" horiz-adv-x="462" 
d="M428 146c0 -77 -59 -138 -152 -151l-65 -142h-130l114 142c-97 16 -153 82 -173 145l90 38c17 -54 56 -99 126 -99c52 0 87 30 87 66c0 109 -281 38 -281 229c0 79 69 138 178 138c95 0 175 -50 197 -124l-90 -38c-13 50 -60 78 -106 78c-48 0 -78 -19 -78 -52
c0 -97 283 -23 283 -230z" />
    <glyph glyph-name="scircumflex" unicode="&#x15d;" horiz-adv-x="462" 
d="M181 708h91l115 -148h-82l-78 82l-79 -82h-82zM238 -8c-123 0 -193 76 -216 148l90 38c17 -54 56 -99 126 -99c52 0 87 30 87 66c0 109 -281 38 -281 229c0 79 69 138 178 138c95 0 175 -50 197 -124l-90 -38c-13 50 -60 78 -106 78c-48 0 -78 -19 -78 -52
c0 -97 283 -23 283 -230c0 -87 -76 -154 -190 -154z" />
    <glyph glyph-name="scommaaccent" unicode="&#x219;" horiz-adv-x="462" 
d="M238 -8c-123 0 -193 76 -216 148l90 38c17 -54 56 -99 126 -99c52 0 87 30 87 66c0 109 -281 38 -281 229c0 79 69 138 178 138c95 0 175 -50 197 -124l-90 -38c-13 50 -60 78 -106 78c-48 0 -78 -19 -78 -52c0 -97 283 -23 283 -230c0 -87 -76 -154 -190 -154zM120 -190
l41 148h121l-84 -148h-78z" />
    <glyph glyph-name="germandbls" unicode="&#xdf;" horiz-adv-x="608" 
d="M341 -8c-30 0 -75 4 -86 7v102c22 -5 47 -9 75 -9c83 1 129 46 129 116c0 83 -65 119 -161 119h-43v101h44c72 0 115 37 115 98c0 55 -41 93 -107 93c-63 0 -107 -42 -107 -125v-494h-117v327h-57v101h57v65c0 143 105 215 224 215c134 0 217 -74 217 -175
c0 -70 -40 -127 -93 -140c78 -24 144 -82 144 -185c0 -144 -96 -216 -234 -216z" />
    <glyph glyph-name="longs" unicode="&#x17f;" horiz-adv-x="373" 
d="M112 0v415h-83v89h83v43c0 114 70 177 166 177c25 0 50 -4 72 -11l-6 -92c-18 7 -36 10 -52 10c-43 0 -73 -31 -73 -83v-548h-107z" />
    <glyph glyph-name="t" unicode="t" horiz-adv-x="378" 
d="M350 4c-24 -8 -52 -12 -80 -12c-95 0 -166 52 -166 167v252h-88v93h88v150h109v-150h130v-93h-130v-246c0 -50 28 -76 69 -76c19 0 42 3 61 12z" />
    <glyph glyph-name="tbar" unicode="&#x167;" horiz-adv-x="378" 
d="M343 101l7 -97c-24 -8 -52 -12 -80 -12c-95 0 -166 52 -166 167v53h-86v80h86v119h-88v93h88v150h109v-150h130v-93h-130v-119h118v-80h-118v-47c0 -50 28 -76 69 -76c19 0 42 3 61 12z" />
    <glyph glyph-name="tcaron" unicode="&#x165;" horiz-adv-x="378" 
d="M285 560l32 181h107l-75 -181h-64zM350 4c-24 -8 -52 -12 -80 -12c-95 0 -166 52 -166 167v252h-88v93h88v150h109v-150h130v-93h-130v-246c0 -50 28 -76 69 -76c19 0 42 3 61 12z" />
    <glyph glyph-name="uni0163" unicode="&#x163;" horiz-adv-x="378" 
d="M350 4c-24 -8 -52 -12 -80 -12h-4l-64 -139h-130l122 153c-55 22 -90 72 -90 153v252h-88v93h88v150h109v-150h130v-93h-130v-246c0 -50 28 -76 69 -76c19 0 42 3 61 12z" />
    <glyph glyph-name="uni021B" unicode="&#x21b;" horiz-adv-x="378" 
d="M350 4c-24 -8 -52 -12 -80 -12c-95 0 -166 52 -166 167v252h-88v93h88v150h109v-150h130v-93h-130v-246c0 -50 28 -76 69 -76c19 0 42 3 61 12zM111 -190l41 148h121l-84 -148h-78z" />
    <glyph glyph-name="u" unicode="u" horiz-adv-x="585" 
d="M521 504v-504h-109v84c-34 -54 -92 -92 -166 -92c-107 0 -182 71 -182 180v332h109v-307c0 -63 39 -107 103 -107c85 0 136 72 136 193v221h109z" />
    <glyph glyph-name="uacute" unicode="&#xfa;" horiz-adv-x="585" 
d="M237 560l67 148h130l-119 -148h-78zM521 504v-504h-109v84c-34 -54 -92 -92 -166 -92c-107 0 -182 71 -182 180v332h109v-307c0 -63 39 -107 103 -107c85 0 136 72 136 193v221h109z" />
    <glyph glyph-name="ubreve" unicode="&#x16d;" horiz-adv-x="585" 
d="M289 557c-77 0 -134 56 -134 132h82c0 -34 21 -58 52 -58s53 24 53 58h83c0 -76 -58 -132 -136 -132zM521 504v-504h-109v84c-34 -54 -92 -92 -166 -92c-107 0 -182 71 -182 180v332h109v-307c0 -63 39 -107 103 -107c85 0 136 72 136 193v221h109z" />
    <glyph glyph-name="ucircumflex" unicode="&#xfb;" horiz-adv-x="585" 
d="M243 708h91l115 -148h-82l-78 82l-79 -82h-82zM521 504v-504h-109v84c-34 -54 -92 -92 -166 -92c-107 0 -182 71 -182 180v332h109v-307c0 -63 39 -107 103 -107c85 0 136 72 136 193v221h109z" />
    <glyph glyph-name="udieresis" unicode="&#xfc;" horiz-adv-x="585" 
d="M196 581c-39 0 -66 27 -66 63c0 37 27 65 66 65s67 -28 67 -65c0 -36 -28 -63 -67 -63zM380 581c-37 0 -65 27 -65 63c0 37 28 65 65 65c39 0 68 -28 68 -65c0 -36 -29 -63 -68 -63zM521 504v-504h-109v84c-34 -54 -92 -92 -166 -92c-107 0 -182 71 -182 180v332h109
v-307c0 -63 39 -107 103 -107c85 0 136 72 136 193v221h109z" />
    <glyph glyph-name="ugrave" unicode="&#xf9;" horiz-adv-x="585" 
d="M330 560h-78l-119 148h130zM521 504v-504h-109v84c-34 -54 -92 -92 -166 -92c-107 0 -182 71 -182 180v332h109v-307c0 -63 39 -107 103 -107c85 0 136 72 136 193v221h109z" />
    <glyph glyph-name="uhungarumlaut" unicode="&#x171;" horiz-adv-x="585" 
d="M155 560l67 148h97l-75 -148h-89zM308 560l66 148h102l-80 -148h-88zM521 504v-504h-109v84c-34 -54 -92 -92 -166 -92c-107 0 -182 71 -182 180v332h109v-307c0 -63 39 -107 103 -107c85 0 136 72 136 193v221h109z" />
    <glyph glyph-name="umacron" unicode="&#x16b;" horiz-adv-x="585" 
d="M152 587v86h273v-86h-273zM521 504v-504h-109v84c-34 -54 -92 -92 -166 -92c-107 0 -182 71 -182 180v332h109v-307c0 -63 39 -107 103 -107c85 0 136 72 136 193v221h109z" />
    <glyph glyph-name="uogonek" unicode="&#x173;" horiz-adv-x="585" 
d="M545 -104l11 -80c-9 -3 -32 -6 -53 -6c-70 0 -117 40 -117 100c0 28 17 65 39 90h-13v84c-34 -54 -92 -92 -166 -92c-107 0 -182 71 -182 180v332h109v-307c0 -63 39 -107 103 -107c85 0 136 72 136 193v221h109v-504h-5c-20 -20 -38 -48 -38 -70c0 -23 16 -37 39 -37
c13 0 24 2 28 3z" />
    <glyph glyph-name="uring" unicode="&#x16f;" horiz-adv-x="585" 
d="M289 542c-65 0 -113 45 -113 106s48 107 113 107c66 0 114 -46 114 -107s-48 -106 -114 -106zM289 600c30 0 51 20 51 48c0 29 -21 49 -51 49c-28 0 -50 -20 -50 -49c0 -28 22 -48 50 -48zM521 504v-504h-109v84c-34 -54 -92 -92 -166 -92c-107 0 -182 71 -182 180v332
h109v-307c0 -63 39 -107 103 -107c85 0 136 72 136 193v221h109z" />
    <glyph glyph-name="utilde" unicode="&#x169;" horiz-adv-x="585" 
d="M179 576l-76 12c2 70 50 118 118 118c28 0 53 -8 80 -27c23 -14 36 -25 59 -25s38 17 41 50l77 -12c-3 -71 -51 -118 -118 -118c-31 0 -57 11 -81 26c-22 15 -36 27 -58 27c-23 0 -38 -17 -42 -51zM521 504v-504h-109v84c-34 -54 -92 -92 -166 -92
c-107 0 -182 71 -182 180v332h109v-307c0 -63 39 -107 103 -107c85 0 136 72 136 193v221h109z" />
    <glyph glyph-name="v" unicode="v" horiz-adv-x="493" 
d="M194 0l-184 504h111l125 -377l125 377h112l-184 -504h-105z" />
    <glyph glyph-name="w" unicode="w" horiz-adv-x="778" 
d="M180 0l-156 504h111l95 -352l109 352h101l108 -352l95 352h111l-155 -504h-101l-109 351l-109 -351h-100z" />
    <glyph glyph-name="wacute" unicode="&#x1e83;" horiz-adv-x="778" 
d="M337 560l67 148h130l-119 -148h-78zM180 0l-156 504h111l95 -352l109 352h101l108 -352l95 352h111l-155 -504h-101l-109 351l-109 -351h-100z" />
    <glyph glyph-name="wcircumflex" unicode="&#x175;" horiz-adv-x="778" 
d="M343 708h91l115 -148h-82l-78 82l-79 -82h-82zM180 0l-156 504h111l95 -352l109 352h101l108 -352l95 352h111l-155 -504h-101l-109 351l-109 -351h-100z" />
    <glyph glyph-name="wdieresis" unicode="&#x1e85;" horiz-adv-x="778" 
d="M296 581c-39 0 -66 27 -66 63c0 37 27 65 66 65s67 -28 67 -65c0 -36 -28 -63 -67 -63zM480 581c-37 0 -65 27 -65 63c0 37 28 65 65 65c39 0 68 -28 68 -65c0 -36 -29 -63 -68 -63zM180 0l-156 504h111l95 -352l109 352h101l108 -352l95 352h111l-155 -504h-101
l-109 351l-109 -351h-100z" />
    <glyph glyph-name="wgrave" unicode="&#x1e81;" horiz-adv-x="778" 
d="M430 560h-78l-119 148h130zM180 0l-156 504h111l95 -352l109 352h101l108 -352l95 352h111l-155 -504h-101l-109 351l-109 -351h-100z" />
    <glyph glyph-name="x" unicode="x" horiz-adv-x="501" 
d="M483 0h-121l-111 167l-112 -167h-121l173 257l-165 247h119l106 -157l105 157h119l-165 -247z" />
    <glyph glyph-name="y" unicode="y" horiz-adv-x="506" 
d="M126 -182l77 202l-193 484h112l136 -359l130 359h108l-265 -686h-105z" />
    <glyph glyph-name="yacute" unicode="&#xfd;" horiz-adv-x="506" 
d="M200 560l67 148h130l-119 -148h-78zM126 -182l77 202l-193 484h112l136 -359l130 359h108l-265 -686h-105z" />
    <glyph glyph-name="ycircumflex" unicode="&#x177;" horiz-adv-x="506" 
d="M206 708h91l115 -148h-82l-78 82l-79 -82h-82zM126 -182l77 202l-193 484h112l136 -359l130 359h108l-265 -686h-105z" />
    <glyph glyph-name="ydieresis" unicode="&#xff;" horiz-adv-x="506" 
d="M159 581c-39 0 -66 27 -66 63c0 37 27 65 66 65s67 -28 67 -65c0 -36 -28 -63 -67 -63zM343 581c-37 0 -65 27 -65 63c0 37 28 65 65 65c39 0 68 -28 68 -65c0 -36 -29 -63 -68 -63zM126 -182l77 202l-193 484h112l136 -359l130 359h108l-265 -686h-105z" />
    <glyph glyph-name="ygrave" unicode="&#x1ef3;" horiz-adv-x="506" 
d="M293 560h-78l-119 148h130zM126 -182l77 202l-193 484h112l136 -359l130 359h108l-265 -686h-105z" />
    <glyph glyph-name="z" unicode="z" horiz-adv-x="493" 
d="M32 0v83l288 328h-271v93h407v-83l-286 -328h290v-93h-428z" />
    <glyph glyph-name="zacute" unicode="&#x17a;" horiz-adv-x="493" 
d="M206 560l67 148h130l-119 -148h-78zM32 0v83l288 328h-271v93h407v-83l-286 -328h290v-93h-428z" />
    <glyph glyph-name="zcaron" unicode="&#x17e;" horiz-adv-x="493" 
d="M212 560l-115 148h82l79 -82l78 82h82l-115 -148h-91zM32 0v83l288 328h-271v93h407v-83l-286 -328h290v-93h-428z" />
    <glyph glyph-name="zdotaccent" unicode="&#x17c;" horiz-adv-x="493" 
d="M258 588c-40 0 -70 31 -70 70c0 40 30 71 70 71c41 0 72 -31 72 -71c0 -39 -31 -70 -72 -70zM32 0v83l288 328h-271v93h407v-83l-286 -328h290v-93h-428z" />
    <glyph glyph-name="r.calt" horiz-adv-x="377" 
d="M340 404c0 0 -15 3 -34 3c-74 0 -133 -63 -133 -219v-188h-109v504h109v-96c24 61 84 104 145 104c17 0 29 -2 29 -2z" />
    <glyph glyph-name="racute.calt" horiz-adv-x="377" 
d="M158 560l67 148h130l-119 -148h-78zM340 404c0 0 -15 3 -34 3c-74 0 -133 -63 -133 -219v-188h-109v504h109v-96c24 61 84 104 145 104c17 0 29 -2 29 -2z" />
    <glyph glyph-name="rcaron.calt" horiz-adv-x="377" 
d="M164 560l-115 148h82l79 -82l78 82h82l-115 -148h-91zM340 404c0 0 -15 3 -34 3c-74 0 -133 -63 -133 -219v-188h-109v504h109v-96c24 61 84 104 145 104c17 0 29 -2 29 -2z" />
    <glyph glyph-name="rcommaaccent.calt" horiz-adv-x="377" 
d="M340 404c0 0 -15 3 -34 3c-74 0 -133 -63 -133 -219v-188h-109v504h109v-96c24 61 84 104 145 104c17 0 29 -2 29 -2zM15 -190l41 148h121l-84 -148h-78z" />
    <glyph glyph-name="a.ss01" horiz-adv-x="604" 
d="M539 504v-504h-109v64c-24 -42 -85 -72 -152 -72c-154 0 -241 108 -241 260s87 260 239 260c65 0 124 -29 154 -71v63h109zM292 87c88 0 146 66 146 165c0 100 -58 165 -146 165s-146 -65 -146 -165c0 -99 58 -165 146 -165z" />
    <glyph glyph-name="aacute.ss01" horiz-adv-x="604" 
d="M251 560l67 148h130l-119 -148h-78zM539 504v-504h-109v64c-24 -42 -85 -72 -152 -72c-154 0 -241 108 -241 260s87 260 239 260c65 0 124 -29 154 -71v63h109zM292 87c88 0 146 66 146 165c0 100 -58 165 -146 165s-146 -65 -146 -165c0 -99 58 -165 146 -165z" />
    <glyph glyph-name="abreve.ss01" horiz-adv-x="604" 
d="M303 557c-77 0 -134 56 -134 132h82c0 -34 21 -58 52 -58s53 24 53 58h83c0 -76 -58 -132 -136 -132zM539 504v-504h-109v64c-24 -42 -85 -72 -152 -72c-154 0 -241 108 -241 260s87 260 239 260c65 0 124 -29 154 -71v63h109zM292 87c88 0 146 66 146 165
c0 100 -58 165 -146 165s-146 -65 -146 -165c0 -99 58 -165 146 -165z" />
    <glyph glyph-name="acircumflex.ss01" horiz-adv-x="604" 
d="M257 708h91l115 -148h-82l-78 82l-79 -82h-82zM539 504v-504h-109v64c-24 -42 -85 -72 -152 -72c-154 0 -241 108 -241 260s87 260 239 260c65 0 124 -29 154 -71v63h109zM292 87c88 0 146 66 146 165c0 100 -58 165 -146 165s-146 -65 -146 -165c0 -99 58 -165 146 -165
z" />
    <glyph glyph-name="adieresis.ss01" horiz-adv-x="604" 
d="M210 581c-39 0 -66 27 -66 63c0 37 27 65 66 65s67 -28 67 -65c0 -36 -28 -63 -67 -63zM394 581c-37 0 -65 27 -65 63c0 37 28 65 65 65c39 0 68 -28 68 -65c0 -36 -29 -63 -68 -63zM539 504v-504h-109v64c-24 -42 -85 -72 -152 -72c-154 0 -241 108 -241 260
s87 260 239 260c65 0 124 -29 154 -71v63h109zM292 87c88 0 146 66 146 165c0 100 -58 165 -146 165s-146 -65 -146 -165c0 -99 58 -165 146 -165z" />
    <glyph glyph-name="agrave.ss01" horiz-adv-x="604" 
d="M344 560h-78l-119 148h130zM539 504v-504h-109v64c-24 -42 -85 -72 -152 -72c-154 0 -241 108 -241 260s87 260 239 260c65 0 124 -29 154 -71v63h109zM292 87c88 0 146 66 146 165c0 100 -58 165 -146 165s-146 -65 -146 -165c0 -99 58 -165 146 -165z" />
    <glyph glyph-name="amacron.ss01" horiz-adv-x="604" 
d="M166 587v86h273v-86h-273zM539 504v-504h-109v64c-24 -42 -85 -72 -152 -72c-154 0 -241 108 -241 260s87 260 239 260c65 0 124 -29 154 -71v63h109zM292 87c88 0 146 66 146 165c0 100 -58 165 -146 165s-146 -65 -146 -165c0 -99 58 -165 146 -165z" />
    <glyph glyph-name="aogonek.ss01" horiz-adv-x="604" 
d="M568 -104l11 -80c-9 -3 -32 -6 -53 -6c-70 0 -117 40 -117 100c0 28 17 65 39 90h-18v64c-24 -42 -85 -72 -152 -72c-154 0 -241 108 -241 260s87 260 239 260c65 0 124 -29 154 -71v63h109v-504c-20 -20 -38 -48 -38 -70c0 -23 16 -37 39 -37c13 0 24 2 28 3zM292 87
c88 0 146 66 146 165c0 100 -58 165 -146 165s-146 -65 -146 -165c0 -99 58 -165 146 -165z" />
    <glyph glyph-name="aring.ss01" horiz-adv-x="604" 
d="M303 542c-65 0 -113 45 -113 106s48 107 113 107c66 0 114 -46 114 -107s-48 -106 -114 -106zM303 600c30 0 51 20 51 48c0 29 -21 49 -51 49c-28 0 -50 -20 -50 -49c0 -28 22 -48 50 -48zM539 504v-504h-109v64c-24 -42 -85 -72 -152 -72c-154 0 -241 108 -241 260
s87 260 239 260c65 0 124 -29 154 -71v63h109zM292 87c88 0 146 66 146 165c0 100 -58 165 -146 165s-146 -65 -146 -165c0 -99 58 -165 146 -165z" />
    <glyph glyph-name="aringacute.ss01" horiz-adv-x="604" 
d="M303 542c-65 0 -113 45 -113 106c0 49 31 88 77 102l63 140h130l-114 -142c43 -15 71 -53 71 -100c0 -61 -48 -106 -114 -106zM303 697c-28 0 -50 -20 -50 -49c0 -28 22 -48 50 -48c30 0 51 20 51 48c0 29 -21 49 -51 49zM430 504h109v-504h-109v64
c-24 -42 -85 -72 -152 -72c-154 0 -241 108 -241 260s87 260 239 260c65 0 124 -29 154 -71v63zM292 87c88 0 146 66 146 165c0 100 -58 165 -146 165s-146 -65 -146 -165c0 -99 58 -165 146 -165z" />
    <glyph glyph-name="atilde.ss01" horiz-adv-x="604" 
d="M193 576l-76 12c2 70 50 118 118 118c28 0 53 -8 80 -27c23 -14 36 -25 59 -25s38 17 41 50l77 -12c-3 -71 -51 -118 -118 -118c-31 0 -57 11 -81 26c-22 15 -36 27 -58 27c-23 0 -38 -17 -42 -51zM539 504v-504h-109v64c-24 -42 -85 -72 -152 -72
c-154 0 -241 108 -241 260s87 260 239 260c65 0 124 -29 154 -71v63h109zM292 87c88 0 146 66 146 165c0 100 -58 165 -146 165s-146 -65 -146 -165c0 -99 58 -165 146 -165z" />
    <glyph glyph-name="ae.ss01" horiz-adv-x="975" 
d="M938 271c0 -15 -1 -36 -2 -45h-385c10 -87 65 -141 146 -141c65 0 113 31 126 86l103 -26c-27 -97 -104 -153 -222 -153c-69 0 -126 28 -165 75v-67h-109v64c-24 -42 -85 -72 -152 -72c-154 0 -241 108 -241 260s87 260 239 260c65 0 124 -29 154 -71v63h109v-65
c38 46 93 73 160 73c162 0 239 -118 239 -241zM556 309h266c-7 68 -52 117 -132 117c-69 0 -118 -42 -134 -117zM292 87c88 0 146 66 146 165c0 100 -58 165 -146 165s-146 -65 -146 -165c0 -99 58 -165 146 -165z" />
    <glyph glyph-name="aeacute.ss01" horiz-adv-x="975" 
d="M647 708l-119 -148h-78l67 148h130zM938 271c0 -15 -1 -36 -2 -45h-385c10 -87 65 -141 146 -141c65 0 113 31 126 86l103 -26c-27 -97 -104 -153 -222 -153c-69 0 -126 28 -165 75v-67h-109v64c-24 -42 -85 -72 -152 -72c-154 0 -241 108 -241 260s87 260 239 260
c65 0 124 -29 154 -71v63h109v-65c38 46 93 73 160 73c162 0 239 -118 239 -241zM556 309h266c-7 68 -52 117 -132 117c-69 0 -118 -42 -134 -117zM292 87c88 0 146 66 146 165c0 100 -58 165 -146 165s-146 -65 -146 -165c0 -99 58 -165 146 -165z" />
    <glyph glyph-name="g.ss02" horiz-adv-x="529" 
d="M329 103c109 0 179 -47 179 -139c0 -107 -103 -154 -239 -154c-146 0 -240 49 -240 144c0 39 21 76 51 100c-23 18 -36 42 -36 74c0 46 30 80 71 98c-28 29 -44 68 -44 114c0 104 83 172 197 172c34 0 65 -6 92 -18l76 73l63 -63l-67 -64c21 -28 33 -62 33 -100
c0 -104 -82 -171 -197 -171c-31 0 -59 5 -84 14c-24 -12 -35 -27 -35 -44c0 -26 24 -36 54 -36h126zM268 427c-52 0 -93 -33 -93 -87c0 -53 41 -85 93 -85c51 0 93 32 93 85c0 54 -42 87 -93 87zM269 -101c89 0 133 22 133 61c0 44 -35 57 -91 57h-98c-17 0 -34 1 -49 4
c-22 -19 -29 -40 -29 -62c0 -39 41 -60 134 -60z" />
    <glyph glyph-name="gbreve.ss02" horiz-adv-x="529" 
d="M265 557c-77 0 -134 56 -134 132h82c0 -34 21 -58 52 -58s53 24 53 58h83c0 -76 -58 -132 -136 -132zM329 103c109 0 179 -47 179 -139c0 -107 -103 -154 -239 -154c-146 0 -240 49 -240 144c0 39 21 76 51 100c-23 18 -36 42 -36 74c0 46 30 80 71 98
c-28 29 -44 68 -44 114c0 104 83 172 197 172c34 0 65 -6 92 -18l76 73l63 -63l-67 -64c21 -28 33 -62 33 -100c0 -104 -82 -171 -197 -171c-31 0 -59 5 -84 14c-24 -12 -35 -27 -35 -44c0 -26 24 -36 54 -36h126zM268 427c-52 0 -93 -33 -93 -87c0 -53 41 -85 93 -85
c51 0 93 32 93 85c0 54 -42 87 -93 87zM269 -101c89 0 133 22 133 61c0 44 -35 57 -91 57h-98c-17 0 -34 1 -49 4c-22 -19 -29 -40 -29 -62c0 -39 41 -60 134 -60z" />
    <glyph glyph-name="gcircumflex.ss02" horiz-adv-x="529" 
d="M265 642l-79 -82h-82l115 148h91l115 -148h-82zM329 103c109 0 179 -47 179 -139c0 -107 -103 -154 -239 -154c-146 0 -240 49 -240 144c0 39 21 76 51 100c-23 18 -36 42 -36 74c0 46 30 80 71 98c-28 29 -44 68 -44 114c0 104 83 172 197 172c34 0 65 -6 92 -18l76 73
l63 -63l-67 -64c21 -28 33 -62 33 -100c0 -104 -82 -171 -197 -171c-31 0 -59 5 -84 14c-24 -12 -35 -27 -35 -44c0 -26 24 -36 54 -36h126zM268 427c-52 0 -93 -33 -93 -87c0 -53 41 -85 93 -85c51 0 93 32 93 85c0 54 -42 87 -93 87zM269 -101c89 0 133 22 133 61
c0 44 -35 57 -91 57h-98c-17 0 -34 1 -49 4c-22 -19 -29 -40 -29 -62c0 -39 41 -60 134 -60z" />
    <glyph glyph-name="gcommaaccent.ss02" horiz-adv-x="529" 
d="M367 708l-28 -148h-117l61 148h84zM329 103c109 0 179 -47 179 -139c0 -107 -103 -154 -239 -154c-146 0 -240 49 -240 144c0 39 21 76 51 100c-23 18 -36 42 -36 74c0 46 30 80 71 98c-28 29 -44 68 -44 114c0 104 83 172 197 172c34 0 65 -6 92 -18l76 73l63 -63
l-67 -64c21 -28 33 -62 33 -100c0 -104 -82 -171 -197 -171c-31 0 -59 5 -84 14c-24 -12 -35 -27 -35 -44c0 -26 24 -36 54 -36h126zM268 427c-52 0 -93 -33 -93 -87c0 -53 41 -85 93 -85c51 0 93 32 93 85c0 54 -42 87 -93 87zM269 -101c89 0 133 22 133 61
c0 44 -35 57 -91 57h-98c-17 0 -34 1 -49 4c-22 -19 -29 -40 -29 -62c0 -39 41 -60 134 -60z" />
    <glyph glyph-name="gdotaccent.ss02" horiz-adv-x="529" 
d="M265 588c-40 0 -70 31 -70 70c0 40 30 71 70 71c41 0 72 -31 72 -71c0 -39 -31 -70 -72 -70zM329 103c109 0 179 -47 179 -139c0 -107 -103 -154 -239 -154c-146 0 -240 49 -240 144c0 39 21 76 51 100c-23 18 -36 42 -36 74c0 46 30 80 71 98c-28 29 -44 68 -44 114
c0 104 83 172 197 172c34 0 65 -6 92 -18l76 73l63 -63l-67 -64c21 -28 33 -62 33 -100c0 -104 -82 -171 -197 -171c-31 0 -59 5 -84 14c-24 -12 -35 -27 -35 -44c0 -26 24 -36 54 -36h126zM268 427c-52 0 -93 -33 -93 -87c0 -53 41 -85 93 -85c51 0 93 32 93 85
c0 54 -42 87 -93 87zM269 -101c89 0 133 22 133 61c0 44 -35 57 -91 57h-98c-17 0 -34 1 -49 4c-22 -19 -29 -40 -29 -62c0 -39 41 -60 134 -60z" />
    <glyph glyph-name="f_f" horiz-adv-x="687" 
d="M604 631c-43 0 -71 -32 -71 -82v-45h123v-93h-123v-411h-109v411h-204v-411h-109v411h-83v93h83v43c0 114 70 177 166 177c25 0 50 -4 72 -11l-6 -92c-18 7 -35 10 -52 10c-43 0 -71 -32 -71 -82v-45h204v43c0 114 70 177 166 177c25 0 50 -4 72 -11l-6 -92
c-18 7 -35 10 -52 10z" />
    <glyph glyph-name="f_f_i" horiz-adv-x="868" 
d="M748 588c-40 0 -70 31 -70 70c0 40 30 71 70 71c41 0 72 -31 72 -71c0 -39 -31 -70 -72 -70zM803 504v-504h-109v411h-204v-411h-107v411h-163v-411h-109v411h-83v93h83v43c0 114 70 177 166 177c25 0 50 -4 72 -11l-6 -92c-18 7 -35 10 -52 10c-43 0 -71 -32 -71 -82
v-45h163v43c0 114 71 177 166 177c25 0 51 -4 73 -11l-7 -92c-17 7 -35 10 -51 10c-43 0 -74 -31 -74 -83v-44h313z" />
    <glyph glyph-name="f_f_l" horiz-adv-x="886" 
d="M712 708h109v-708h-109v411h-222v-411h-107v411h-163v-411h-109v411h-83v93h83v43c0 114 70 177 166 177c25 0 50 -4 72 -11l-6 -92c-18 7 -35 10 -52 10c-43 0 -71 -32 -71 -82v-45h163v43c0 114 71 177 166 177c25 0 51 -4 73 -11l-7 -92c-17 7 -35 10 -51 10
c-43 0 -74 -31 -74 -83v-44h222v204z" />
    <glyph glyph-name="f_i" horiz-adv-x="589" 
d="M469 588c-40 0 -70 31 -70 70c0 40 30 71 70 71c41 0 72 -31 72 -71c0 -39 -31 -70 -72 -70zM524 504v-504h-109v411h-199v-411h-107v411h-81v93h81v43c0 114 70 177 166 177c25 0 50 -4 72 -11l-6 -92c-18 7 -35 10 -51 10c-43 0 -74 -31 -74 -83v-44h308z" />
    <glyph glyph-name="f_l" horiz-adv-x="606" 
d="M432 708h109v-708h-109v411h-216v-411h-107v411h-81v93h81v43c0 114 70 177 166 177c25 0 50 -4 72 -11l-6 -92c-18 7 -35 10 -51 10c-43 0 -74 -31 -74 -83v-44h216v204z" />
    <glyph glyph-name="ordfeminine" unicode="&#xaa;" horiz-adv-x="336" 
d="M161 708c81 0 138 -45 138 -126v-198h-71v47c-19 -32 -57 -52 -99 -52c-62 0 -106 41 -106 94c0 62 47 96 145 106l60 6v4c0 40 -27 63 -67 63c-37 0 -64 -22 -68 -60l-65 11c10 64 65 105 133 105zM145 434c53 0 83 37 83 90v8l-61 -6c-49 -6 -74 -25 -74 -51
c0 -24 21 -41 52 -41z" />
    <glyph glyph-name="ordmasculine" unicode="&#xba;" horiz-adv-x="376" 
d="M188 379c-96 0 -165 69 -165 165c0 95 69 164 165 164s165 -69 165 -164c0 -96 -69 -165 -165 -165zM188 442c55 0 92 41 92 102c0 59 -37 102 -92 102c-56 0 -92 -43 -92 -102c0 -61 36 -102 92 -102z" />
    <glyph glyph-name="pi" unicode="&#x3c0;" horiz-adv-x="628" 
d="M572 88c6 0 8 0 17 1l-3 -96s-18 -1 -27 -1c-103 0 -170 70 -170 174v246h-149v-412h-106v412h-95v92h549v-92h-90v-232c0 -58 24 -92 74 -92z" />
    <glyph glyph-name="zero" unicode="0" horiz-adv-x="630" 
d="M315 -8c-177 0 -277 143 -277 358s100 358 277 358c176 0 277 -143 277 -358s-101 -358 -277 -358zM315 95c103 0 159 97 159 255s-56 256 -159 256c-104 0 -159 -98 -159 -256s55 -255 159 -255z" />
    <glyph glyph-name="one" unicode="1" horiz-adv-x="365" 
d="M187 0v565c-47 -41 -99 -63 -162 -76v105c67 15 131 52 181 106h91v-700h-110z" />
    <glyph glyph-name="two" unicode="2" horiz-adv-x="568" 
d="M29 0v97l254 217c79 67 113 121 113 177c0 70 -47 115 -120 115c-86 0 -136 -64 -126 -162l-113 8c-12 148 92 256 239 256c144 0 239 -87 239 -217c0 -86 -50 -164 -162 -255l-160 -133h321v-103h-485z" />
    <glyph glyph-name="three" unicode="3" horiz-adv-x="581" 
d="M282 -8c-142 0 -244 81 -257 205l108 17c10 -72 69 -119 149 -119c85 0 142 51 142 129c0 80 -53 127 -138 127c-25 0 -56 -7 -78 -22l-48 76l204 193h-319v102h457v-97l-188 -174c135 8 229 -74 229 -208c0 -137 -104 -229 -261 -229z" />
    <glyph glyph-name="four" unicode="4" horiz-adv-x="623" 
d="M382 0v157h-360v102l347 441h130v-441h94v-102h-94v-157h-117zM145 259h237v303z" />
    <glyph glyph-name="five" unicode="5" horiz-adv-x="577" 
d="M289 -8c-137 0 -237 76 -256 194l107 19c13 -67 69 -110 145 -110c82 0 136 55 136 138c0 85 -56 138 -144 138c-61 0 -108 -27 -141 -76l-85 18l56 387h381v-102h-295l-28 -185c34 31 88 53 137 53c142 0 237 -93 237 -233c0 -145 -98 -241 -250 -241z" />
    <glyph glyph-name="six" unicode="6" horiz-adv-x="608" 
d="M317 471c144 0 247 -100 247 -239c0 -140 -109 -240 -261 -240c-158 0 -265 130 -265 324c0 259 146 392 328 392c73 0 144 -23 199 -68l-56 -87c-38 33 -88 53 -142 53c-124 0 -214 -95 -220 -228c33 57 98 93 170 93zM305 95c83 0 142 59 142 142
c1 82 -59 140 -142 140s-143 -58 -143 -140c0 -83 60 -142 143 -142z" />
    <glyph glyph-name="seven" unicode="7" horiz-adv-x="556" 
d="M109 0c23 190 146 406 297 598h-375v102h496v-102c-157 -208 -284 -424 -300 -598h-118z" />
    <glyph glyph-name="eight" unicode="8" horiz-adv-x="579" 
d="M291 -8c-147 0 -255 82 -255 212c0 80 50 148 128 173c-60 27 -99 84 -99 145c0 107 90 186 226 186c133 0 222 -79 222 -186c0 -62 -39 -119 -99 -145c78 -25 129 -93 129 -173c0 -130 -108 -212 -252 -212zM291 420c67 0 112 39 113 98c0 59 -45 97 -113 97
c-71 0 -117 -38 -116 -97c0 -59 46 -98 116 -98zM290 90c83 0 137 45 137 115s-54 116 -137 116c-84 0 -139 -46 -139 -116s55 -115 139 -115z" />
    <glyph glyph-name="nine" unicode="9" horiz-adv-x="610" 
d="M293 229c-144 0 -247 100 -247 239c0 140 109 240 261 240c158 0 265 -130 265 -324c0 -259 -146 -392 -328 -392c-73 0 -144 23 -199 68l56 87c38 -33 88 -53 142 -53c124 0 214 95 220 228c-33 -57 -98 -93 -170 -93zM305 605c-83 0 -142 -59 -142 -142
c-1 -82 59 -140 142 -140s143 58 143 140c0 83 -60 142 -143 142z" />
    <glyph glyph-name="uni2460" unicode="&#x2460;" horiz-adv-x="792" 
d="M396 -8c-206 0 -358 152 -358 358s152 358 358 358s359 -152 359 -358s-153 -358 -359 -358zM396 54c168 0 293 127 293 296s-125 296 -293 296c-169 0 -293 -127 -293 -296s124 -296 293 -296zM381 167v299c-26 -17 -53 -32 -83 -38v73c31 8 67 29 97 51h62v-385h-76z
" />
    <glyph glyph-name="uni2461" unicode="&#x2461;" horiz-adv-x="792" 
d="M396 -8c-206 0 -358 152 -358 358s152 358 358 358s359 -152 359 -358s-153 -358 -359 -358zM396 54c168 0 293 127 293 296s-125 296 -293 296c-169 0 -293 -127 -293 -296s124 -296 293 -296zM262 167l-1 65l123 102c46 38 70 69 70 99c0 32 -22 52 -56 52
c-40 0 -62 -31 -58 -80l-78 6c-8 82 55 145 136 145c83 0 139 -51 139 -123c0 -49 -29 -93 -97 -145l-64 -50h161v-71h-275z" />
    <glyph glyph-name="uni2462" unicode="&#x2462;" horiz-adv-x="792" 
d="M396 -8c-206 0 -358 152 -358 358s152 358 358 358s359 -152 359 -358s-153 -358 -359 -358zM396 54c168 0 293 127 293 296s-125 296 -293 296c-169 0 -293 -127 -293 -296s124 -296 293 -296zM395 163c-79 0 -138 45 -145 114l74 12c7 -33 36 -55 72 -55
c40 0 66 23 66 59s-25 59 -64 59c-14 0 -31 -4 -44 -13l-32 54l99 89h-160v70h257v-70l-94 -79c71 3 120 -40 120 -112c0 -78 -59 -128 -149 -128z" />
    <glyph glyph-name="uni2463" unicode="&#x2463;" horiz-adv-x="792" 
d="M396 -8c-206 0 -358 152 -358 358s152 358 358 358s359 -152 359 -358s-153 -358 -359 -358zM396 54c168 0 293 127 293 296s-125 296 -293 296c-169 0 -293 -127 -293 -296s124 -296 293 -296zM406 167v76h-194v71l188 238h88v-238h49v-71h-49v-76h-82zM296 314h110v139
z" />
    <glyph glyph-name="uni2464" unicode="&#x2464;" horiz-adv-x="792" 
d="M396 -8c-206 0 -358 152 -358 358s152 358 358 358s359 -152 359 -358s-153 -358 -359 -358zM396 54c168 0 293 127 293 296s-125 296 -293 296c-169 0 -293 -127 -293 -296s124 -296 293 -296zM398 163c-77 0 -133 41 -144 107l74 13c7 -30 32 -49 67 -49
c37 0 62 25 62 62c0 39 -26 63 -66 63c-29 0 -51 -12 -69 -36l-58 12l31 217h215v-71h-156l-14 -85c19 17 42 27 73 27c74 0 126 -51 126 -127c0 -81 -56 -133 -141 -133z" />
    <glyph glyph-name="uni2465" unicode="&#x2465;" horiz-adv-x="792" 
d="M396 -8c-206 0 -358 152 -358 358s152 358 358 358s359 -152 359 -358s-153 -358 -359 -358zM396 54c168 0 293 127 293 296s-125 296 -293 296c-169 0 -293 -127 -293 -296s124 -296 293 -296zM401 422c78 0 135 -55 135 -131c0 -78 -62 -132 -148 -132
c-88 0 -150 74 -150 181c0 143 89 213 184 213c42 0 84 -14 114 -41l-37 -54c-18 16 -45 24 -75 24c-62 0 -103 -42 -108 -102c17 27 49 42 85 42zM390 230c38 0 65 27 66 66c1 38 -28 64 -66 64s-65 -27 -65 -64c0 -38 27 -66 65 -66z" />
    <glyph glyph-name="uni2466" unicode="&#x2466;" horiz-adv-x="792" 
d="M396 -8c-206 0 -358 152 -358 358s152 358 358 358s359 -152 359 -358s-153 -358 -359 -358zM396 54c168 0 293 127 293 296s-125 296 -293 296c-169 0 -293 -127 -293 -296s124 -296 293 -296zM297 167c29 97 77 210 158 314h-198v71h278v-71
c-85 -116 -135 -229 -158 -314h-80z" />
    <glyph glyph-name="uni2467" unicode="&#x2467;" horiz-adv-x="792" 
d="M396 -8c-206 0 -358 152 -358 358s152 358 358 358s359 -152 359 -358s-153 -358 -359 -358zM396 54c168 0 293 127 293 296s-125 296 -293 296c-169 0 -293 -127 -293 -296s124 -296 293 -296zM397 163c-79 0 -144 45 -144 118c0 42 28 80 69 93c-31 15 -52 46 -52 79
c0 57 52 103 127 103s125 -46 125 -103c0 -34 -20 -65 -52 -79c42 -13 69 -50 69 -93c0 -73 -63 -118 -142 -118zM397 405c30 0 52 17 52 44s-22 45 -52 45c-32 0 -52 -17 -52 -45c0 -27 20 -44 52 -44zM397 229c38 0 62 21 62 54c0 31 -24 52 -62 52s-63 -21 -63 -52
c0 -33 25 -54 63 -54z" />
    <glyph glyph-name="uni2468" unicode="&#x2468;" horiz-adv-x="792" 
d="M396 -8c-206 0 -358 152 -358 358s152 358 358 358s359 -152 359 -358s-153 -358 -359 -358zM396 54c168 0 293 127 293 296s-125 296 -293 296c-169 0 -293 -127 -293 -296s124 -296 293 -296zM387 289c-79 0 -135 55 -135 131c0 78 63 132 148 132
c87 0 149 -74 149 -181c0 -143 -88 -213 -183 -213c-42 0 -83 14 -115 41l38 54c19 -16 45 -24 75 -24c62 0 103 42 109 102c-18 -27 -50 -42 -86 -42zM398 481c-37 0 -64 -26 -64 -65c-1 -38 27 -65 64 -65c38 0 66 27 66 65s-28 65 -66 65z" />
    <glyph glyph-name="three.ss04" horiz-adv-x="579" 
d="M291 -8c-147 0 -255 85 -255 215l115 7c0 -72 55 -124 139 -124c82 0 137 44 137 109c0 72 -56 112 -140 112c-21 0 -42 0 -54 -1l-2 96c12 -1 29 -1 42 -1c78 0 130 52 131 113c0 59 -51 97 -120 97c-71 0 -125 -52 -124 -115l-109 7c0 112 97 201 233 201
c134 0 229 -79 229 -186c0 -79 -55 -145 -135 -161c98 -4 165 -72 165 -166c0 -119 -104 -203 -252 -203z" />
    <glyph glyph-name="uni2462.ss04" horiz-adv-x="792" 
d="M396 -8c-206 0 -358 152 -358 358s152 358 358 358s359 -152 359 -358s-153 -358 -359 -358zM396 54c168 0 293 127 293 296s-125 296 -293 296c-169 0 -293 -127 -293 -296s124 -296 293 -296zM394 169c-79 0 -142 47 -142 120l77 3c0 -33 26 -58 64 -58
c39 0 65 21 65 51c0 34 -27 54 -67 54h-28l-1 63c7 -1 16 -1 23 -1c37 0 60 25 60 55c1 27 -22 45 -56 45c-33 0 -59 -23 -58 -55l-72 5c0 60 55 111 130 111s129 -45 129 -103c0 -43 -29 -79 -71 -87c52 -3 88 -40 88 -90c0 -66 -58 -113 -141 -113z" />
    <glyph glyph-name="zero.tf" horiz-adv-x="618" 
d="M304 -8c-177 0 -277 143 -277 358s100 358 277 358c176 0 277 -143 277 -358s-101 -358 -277 -358zM304 95c103 0 159 97 159 255s-56 256 -159 256c-104 0 -159 -98 -159 -256s55 -255 159 -255z" />
    <glyph glyph-name="one.tf" horiz-adv-x="618" 
d="M388 103h167v-103h-477v103h200v462c-47 -41 -99 -63 -162 -76v105c67 15 131 52 181 106h91v-597z" />
    <glyph glyph-name="two.tf" horiz-adv-x="618" 
d="M64 0v97l254 217c79 67 113 121 113 177c0 70 -47 115 -120 115c-86 0 -136 -64 -126 -162l-113 8c-12 148 92 256 239 256c144 0 239 -87 239 -217c0 -86 -50 -164 -162 -255l-160 -133h321v-103h-485z" />
    <glyph glyph-name="three.tf" horiz-adv-x="618" 
d="M306 -8c-142 0 -244 81 -257 205l108 17c10 -72 69 -119 149 -119c85 0 142 51 142 129c0 80 -53 127 -138 127c-25 0 -56 -7 -78 -22l-48 76l204 193h-319v102h457v-97l-188 -174c135 8 229 -74 229 -208c0 -137 -104 -229 -261 -229z" />
    <glyph glyph-name="four.tf" horiz-adv-x="618" 
d="M381 0v157h-360v102l347 441h130v-441h94v-102h-94v-157h-117zM144 259h237v303z" />
    <glyph glyph-name="five.tf" horiz-adv-x="618" 
d="M320 -8c-137 0 -237 76 -256 194l107 19c13 -67 69 -110 145 -110c82 0 136 55 136 138c0 85 -56 138 -144 138c-61 0 -108 -27 -141 -76l-85 18l56 387h381v-102h-295l-28 -185c34 31 88 53 137 53c142 0 237 -93 237 -233c0 -145 -98 -241 -250 -241z" />
    <glyph glyph-name="six.tf" horiz-adv-x="618" 
d="M323 471c144 0 247 -100 247 -239c0 -140 -109 -240 -261 -240c-158 0 -265 130 -265 324c0 259 146 392 328 392c73 0 144 -23 199 -68l-56 -87c-38 33 -88 53 -142 53c-124 0 -214 -95 -220 -228c33 57 98 93 170 93zM311 95c83 0 142 59 142 142
c1 82 -59 140 -142 140s-143 -58 -143 -140c0 -83 60 -142 143 -142z" />
    <glyph glyph-name="seven.tf" horiz-adv-x="618" 
d="M580 700v-102c-157 -208 -284 -424 -300 -598h-118c23 190 146 406 297 598h-295v-121h-109v223h525z" />
    <glyph glyph-name="eight.tf" horiz-adv-x="618" 
d="M311 -8c-147 0 -255 82 -255 212c0 80 50 148 128 173c-60 27 -99 84 -99 145c0 107 90 186 226 186c133 0 222 -79 222 -186c0 -62 -39 -119 -99 -145c78 -25 129 -93 129 -173c0 -130 -108 -212 -252 -212zM311 420c67 0 112 39 113 98c0 59 -45 97 -113 97
c-71 0 -117 -38 -116 -97c0 -59 46 -98 116 -98zM310 90c83 0 137 45 137 115s-54 116 -137 116c-84 0 -139 -46 -139 -116s55 -115 139 -115z" />
    <glyph glyph-name="nine.tf" horiz-adv-x="618" 
d="M295 233c-144 0 -247 100 -247 239c0 140 109 240 261 240c158 0 265 -130 265 -324c0 -259 -146 -392 -328 -392c-73 0 -144 23 -199 68l56 87c38 -33 88 -53 142 -53c124 0 214 95 220 228c-33 -57 -98 -93 -170 -93zM307 609c-83 0 -142 -59 -142 -142
c-1 -82 59 -140 142 -140s143 58 143 140c0 83 -60 142 -143 142z" />
    <glyph glyph-name="three.tf.ss04" horiz-adv-x="618" 
d="M318 -8c-147 0 -255 85 -255 215l115 7c0 -72 55 -124 139 -124c82 0 137 44 137 109c0 72 -56 112 -140 112c-21 0 -42 0 -54 -1l-2 96c12 -1 29 -1 42 -1c78 0 130 52 131 113c0 59 -51 97 -120 97c-71 0 -125 -52 -124 -115l-109 7c0 112 97 201 233 201
c134 0 229 -79 229 -186c0 -79 -55 -145 -135 -161c98 -4 165 -72 165 -166c0 -119 -104 -203 -252 -203z" />
    <glyph glyph-name="zero.subs" horiz-adv-x="369" 
d="M184 -174c-101 0 -162 78 -162 197c0 118 61 196 162 196c100 0 162 -78 162 -196c0 -119 -62 -197 -162 -197zM184 -103c52 0 80 46 80 126c0 79 -28 125 -80 125c-51 0 -79 -46 -79 -125c0 -80 28 -126 79 -126z" />
    <glyph glyph-name="one.subs" horiz-adv-x="222" 
d="M109 -170v299c-26 -17 -53 -32 -83 -38v73c31 8 67 29 97 51h62v-385h-76z" />
    <glyph glyph-name="two.subs" horiz-adv-x="336" 
d="M30 -170l-1 65l123 102c46 38 70 69 70 99c0 32 -22 52 -56 52c-40 0 -62 -31 -58 -80l-78 6c-8 82 55 145 136 145c83 0 139 -51 139 -123c0 -49 -29 -93 -97 -145l-64 -50h161v-71h-275z" />
    <glyph glyph-name="three.subs" horiz-adv-x="341" 
d="M168 -174c-79 0 -138 45 -145 114l74 12c7 -33 36 -55 72 -55c40 0 66 23 66 59s-25 59 -64 59c-14 0 -31 -4 -44 -13l-32 54l99 89h-160v70h257v-70l-94 -79c71 3 120 -40 120 -112c0 -78 -59 -128 -149 -128z" />
    <glyph glyph-name="four.subs" horiz-adv-x="370" 
d="M217 -170v76h-194v71l188 238h88v-238h49v-71h-49v-76h-82zM107 -23h110v139z" />
    <glyph glyph-name="five.subs" horiz-adv-x="335" 
d="M169 -174c-77 0 -133 41 -144 107l74 13c7 -30 32 -49 67 -49c37 0 62 25 62 62c0 39 -26 63 -66 63c-29 0 -51 -12 -69 -36l-58 12l31 217h215v-71h-156l-14 -85c19 17 42 27 73 27c74 0 126 -51 126 -127c0 -81 -56 -133 -141 -133z" />
    <glyph glyph-name="six.subs" horiz-adv-x="357" 
d="M192 89c78 0 135 -55 135 -131c0 -78 -62 -132 -148 -132c-88 0 -150 74 -150 181c0 143 89 213 184 213c42 0 84 -14 114 -41l-37 -54c-18 16 -45 24 -75 24c-62 0 -103 -42 -108 -102c17 27 49 42 85 42zM181 -103c38 0 65 27 66 66c1 38 -28 64 -66 64
s-65 -27 -65 -64c0 -39 27 -66 65 -66z" />
    <glyph glyph-name="seven.subs" horiz-adv-x="307" 
d="M58 -170c29 97 77 210 158 314h-198v71h278v-71c-85 -116 -135 -229 -158 -314h-80z" />
    <glyph glyph-name="eight.subs" horiz-adv-x="345" 
d="M173 -174c-79 0 -144 45 -144 118c0 42 28 80 69 93c-31 15 -52 46 -52 79c0 57 52 103 127 103s125 -46 125 -103c0 -34 -20 -65 -52 -79c42 -13 69 -50 69 -93c0 -73 -63 -118 -142 -118zM173 68c30 0 52 18 52 44c0 27 -21 45 -52 45s-52 -18 -52 -45
c0 -26 21 -44 52 -44zM173 -108c38 0 62 21 62 54c0 31 -24 52 -62 52s-63 -21 -63 -52c0 -33 25 -54 63 -54z" />
    <glyph glyph-name="nine.subs" horiz-adv-x="357" 
d="M165 -44c-79 0 -135 55 -135 131c0 78 63 132 148 132c87 0 149 -74 149 -181c0 -143 -88 -213 -183 -213c-42 0 -83 14 -115 41l38 54c19 -16 45 -24 75 -24c62 0 103 42 109 102c-18 -27 -50 -42 -86 -42zM176 148c-37 0 -64 -26 -64 -65c-1 -38 27 -65 64 -65
c38 0 66 27 66 65s-28 65 -66 65z" />
    <glyph glyph-name="zero.dnom" horiz-adv-x="369" 
d="M184 -4c-101 0 -162 78 -162 197c0 118 61 196 162 196c100 0 162 -78 162 -196c0 -119 -62 -197 -162 -197zM184 67c52 0 80 46 80 126c0 79 -28 125 -80 125c-51 0 -79 -46 -79 -125c0 -80 28 -126 79 -126z" />
    <glyph glyph-name="one.dnom" horiz-adv-x="222" 
d="M109 0v299c-26 -17 -53 -32 -83 -38v73c31 8 67 29 97 51h62v-385h-76z" />
    <glyph glyph-name="two.dnom" horiz-adv-x="336" 
d="M30 0l-1 65l123 102c46 38 70 69 70 99c0 32 -22 52 -56 52c-40 0 -62 -31 -58 -80l-78 6c-8 82 55 145 136 145c83 0 139 -51 139 -123c0 -49 -29 -93 -97 -145l-64 -50h161v-71h-275z" />
    <glyph glyph-name="three.dnom" horiz-adv-x="341" 
d="M168 -4c-79 0 -138 45 -145 114l74 12c7 -33 36 -55 72 -55c40 0 66 23 66 59s-25 59 -64 59c-14 0 -31 -4 -44 -13l-32 54l99 89h-160v70h257v-70l-94 -79c71 3 120 -40 120 -112c0 -78 -59 -128 -149 -128z" />
    <glyph glyph-name="four.dnom" horiz-adv-x="370" 
d="M217 0v76h-194v71l188 238h88v-238h49v-71h-49v-76h-82zM107 147h110v139z" />
    <glyph glyph-name="five.dnom" horiz-adv-x="335" 
d="M169 -4c-77 0 -133 41 -144 107l74 13c7 -30 32 -49 67 -49c37 0 62 25 62 62c0 39 -26 63 -66 63c-29 0 -51 -12 -69 -36l-58 12l31 217h215v-71h-156l-14 -85c19 17 42 27 73 27c74 0 126 -51 126 -127c0 -81 -56 -133 -141 -133z" />
    <glyph glyph-name="six.dnom" horiz-adv-x="357" 
d="M192 259c78 0 135 -55 135 -131c0 -78 -62 -132 -148 -132c-88 0 -150 74 -150 181c0 143 89 213 184 213c42 0 84 -14 114 -41l-37 -54c-18 16 -45 24 -75 24c-62 0 -103 -42 -108 -102c17 27 49 42 85 42zM181 67c38 0 65 27 66 66c1 38 -28 64 -66 64s-65 -27 -65 -64
c0 -38 27 -66 65 -66z" />
    <glyph glyph-name="seven.dnom" horiz-adv-x="307" 
d="M58 0c29 97 77 210 158 314h-198v71h278v-71c-85 -116 -135 -229 -158 -314h-80z" />
    <glyph glyph-name="eight.dnom" horiz-adv-x="345" 
d="M173 -4c-79 0 -144 45 -144 118c0 42 28 80 69 93c-31 15 -52 46 -52 79c0 57 52 103 127 103s125 -46 125 -103c0 -34 -20 -65 -52 -79c42 -13 69 -50 69 -93c0 -73 -63 -118 -142 -118zM173 238c30 0 52 17 52 44s-22 45 -52 45c-32 0 -52 -17 -52 -45
c0 -27 20 -44 52 -44zM173 62c38 0 62 21 62 54c0 31 -24 52 -62 52s-63 -21 -63 -52c0 -33 25 -54 63 -54z" />
    <glyph glyph-name="nine.dnom" horiz-adv-x="357" 
d="M165 126c-79 0 -135 55 -135 131c0 78 63 132 148 132c87 0 149 -74 149 -181c0 -143 -88 -213 -183 -213c-42 0 -83 14 -115 41l38 54c19 -16 45 -24 75 -24c62 0 103 42 109 102c-18 -27 -50 -42 -86 -42zM176 318c-37 0 -64 -26 -64 -65c-1 -38 27 -65 64 -65
c38 0 66 27 66 65s-28 65 -66 65z" />
    <glyph glyph-name="zero.numr" horiz-adv-x="369" 
d="M184 311c-101 0 -162 78 -162 197c0 118 61 196 162 196c100 0 162 -78 162 -196c0 -119 -62 -197 -162 -197zM184 382c52 0 80 46 80 126c0 79 -28 125 -80 125c-51 0 -79 -46 -79 -125c0 -80 28 -126 79 -126z" />
    <glyph glyph-name="one.numr" horiz-adv-x="222" 
d="M109 315v299c-26 -17 -53 -32 -83 -38v73c31 8 67 29 97 51h62v-385h-76z" />
    <glyph glyph-name="two.numr" horiz-adv-x="336" 
d="M30 315l-1 65l123 102c46 38 70 69 70 99c0 32 -22 52 -56 52c-40 0 -62 -31 -58 -80l-78 6c-8 82 55 145 136 145c83 0 139 -51 139 -123c0 -49 -29 -93 -97 -145l-64 -50h161v-71h-275z" />
    <glyph glyph-name="three.numr" horiz-adv-x="341" 
d="M168 311c-79 0 -138 45 -145 114l74 12c7 -33 36 -55 72 -55c40 0 66 23 66 59s-25 59 -64 59c-14 0 -31 -4 -44 -13l-32 54l99 89h-160v70h257v-70l-94 -79c71 3 120 -40 120 -112c0 -78 -59 -128 -149 -128z" />
    <glyph glyph-name="four.numr" horiz-adv-x="370" 
d="M217 315v76h-194v71l188 238h88v-238h49v-71h-49v-76h-82zM107 462h110v139z" />
    <glyph glyph-name="five.numr" horiz-adv-x="335" 
d="M169 311c-77 0 -133 41 -144 107l74 13c7 -30 32 -49 67 -49c37 0 62 25 62 62c0 39 -26 63 -66 63c-29 0 -51 -12 -69 -36l-58 12l31 217h215v-71h-156l-14 -85c19 17 42 27 73 27c74 0 126 -51 126 -127c0 -81 -56 -133 -141 -133z" />
    <glyph glyph-name="six.numr" horiz-adv-x="357" 
d="M192 574c78 0 135 -55 135 -131c0 -78 -62 -132 -148 -132c-88 0 -150 74 -150 181c0 143 89 213 184 213c42 0 84 -14 114 -41l-37 -54c-18 16 -45 24 -75 24c-62 0 -103 -42 -108 -102c17 27 49 42 85 42zM181 382c38 0 65 27 66 66c1 38 -28 64 -66 64
s-65 -27 -65 -64c0 -38 27 -66 65 -66z" />
    <glyph glyph-name="seven.numr" horiz-adv-x="307" 
d="M58 315c29 97 77 210 158 314h-198v71h278v-71c-85 -116 -135 -229 -158 -314h-80z" />
    <glyph glyph-name="eight.numr" horiz-adv-x="345" 
d="M173 311c-79 0 -144 45 -144 118c0 42 28 80 69 93c-31 15 -52 46 -52 79c0 57 52 103 127 103s125 -46 125 -103c0 -34 -20 -65 -52 -79c42 -13 69 -50 69 -93c0 -73 -63 -118 -142 -118zM173 553c30 0 52 17 52 44s-22 45 -52 45c-32 0 -52 -17 -52 -45
c0 -27 20 -44 52 -44zM173 377c38 0 62 21 62 54c0 31 -24 52 -62 52s-63 -21 -63 -52c0 -33 25 -54 63 -54z" />
    <glyph glyph-name="nine.numr" horiz-adv-x="357" 
d="M165 441c-79 0 -135 55 -135 131c0 78 63 132 148 132c87 0 149 -74 149 -181c0 -143 -88 -213 -183 -213c-42 0 -83 14 -115 41l38 54c19 -16 45 -24 75 -24c62 0 103 42 109 102c-18 -27 -50 -42 -86 -42zM176 633c-37 0 -64 -26 -64 -65c-1 -38 27 -65 64 -65
c38 0 66 27 66 65s-28 65 -66 65z" />
    <glyph glyph-name="uni00B9" unicode="&#xb9;" horiz-adv-x="222" 
d="M109 375v299c-26 -17 -53 -32 -83 -38v73c31 8 67 29 97 51h62v-385h-76z" />
    <glyph glyph-name="uni00B2" unicode="&#xb2;" horiz-adv-x="336" 
d="M30 375l-1 65l123 102c46 38 70 69 70 99c0 32 -22 52 -56 52c-40 0 -62 -31 -58 -80l-78 6c-8 82 55 145 136 145c83 0 139 -51 139 -123c0 -49 -29 -93 -97 -145l-64 -50h161v-71h-275z" />
    <glyph glyph-name="uni00B3" unicode="&#xb3;" horiz-adv-x="341" 
d="M168 371c-79 0 -138 45 -145 114l74 12c7 -33 36 -55 72 -55c40 0 66 23 66 59s-25 59 -64 59c-14 0 -31 -4 -44 -13l-32 54l99 89h-160v70h257v-70l-94 -79c71 3 120 -40 120 -112c0 -78 -59 -128 -149 -128z" />
    <glyph glyph-name="zero.sups" horiz-adv-x="369" 
d="M184 371c-101 0 -162 78 -162 197c0 118 61 196 162 196c100 0 162 -78 162 -196c0 -119 -62 -197 -162 -197zM184 442c52 0 80 46 80 126c0 79 -28 125 -80 125c-51 0 -79 -46 -79 -125c0 -80 28 -126 79 -126z" />
    <glyph glyph-name="one.sups" horiz-adv-x="222" 
d="M109 375v299c-26 -17 -53 -32 -83 -38v73c31 8 67 29 97 51h62v-385h-76z" />
    <glyph glyph-name="two.sups" horiz-adv-x="336" 
d="M30 375l-1 65l123 102c46 38 70 69 70 99c0 32 -22 52 -56 52c-40 0 -62 -31 -58 -80l-78 6c-8 82 55 145 136 145c83 0 139 -51 139 -123c0 -49 -29 -93 -97 -145l-64 -50h161v-71h-275z" />
    <glyph glyph-name="three.sups" horiz-adv-x="341" 
d="M168 371c-79 0 -138 45 -145 114l74 12c7 -33 36 -55 72 -55c40 0 66 23 66 59s-25 59 -64 59c-14 0 -31 -4 -44 -13l-32 54l99 89h-160v70h257v-70l-94 -79c71 3 120 -40 120 -112c0 -78 -59 -128 -149 -128z" />
    <glyph glyph-name="four.sups" horiz-adv-x="370" 
d="M217 375v76h-194v71l188 238h88v-238h49v-71h-49v-76h-82zM107 522h110v139z" />
    <glyph glyph-name="five.sups" horiz-adv-x="335" 
d="M169 371c-77 0 -133 41 -144 107l74 13c7 -30 32 -49 67 -49c37 0 62 25 62 62c0 39 -26 63 -66 63c-29 0 -51 -12 -69 -36l-58 12l31 217h215v-71h-156l-14 -85c19 17 42 27 73 27c74 0 126 -51 126 -127c0 -81 -56 -133 -141 -133z" />
    <glyph glyph-name="six.sups" horiz-adv-x="357" 
d="M192 634c78 0 135 -55 135 -131c0 -78 -62 -132 -148 -132c-88 0 -150 74 -150 181c0 143 89 213 184 213c42 0 84 -14 114 -41l-37 -54c-18 16 -45 24 -75 24c-62 0 -103 -42 -108 -102c17 27 49 42 85 42zM181 442c38 0 65 27 66 66c1 38 -28 64 -66 64
s-65 -27 -65 -64c0 -38 27 -66 65 -66z" />
    <glyph glyph-name="seven.sups" horiz-adv-x="307" 
d="M58 375c29 97 77 210 158 314h-198v71h278v-71c-85 -116 -135 -229 -158 -314h-80z" />
    <glyph glyph-name="eight.sups" horiz-adv-x="345" 
d="M173 371c-79 0 -144 45 -144 118c0 42 28 80 69 93c-31 15 -52 46 -52 79c0 57 52 103 127 103s125 -46 125 -103c0 -34 -20 -65 -52 -79c42 -13 69 -50 69 -93c0 -73 -63 -118 -142 -118zM173 613c30 0 52 18 52 44c0 27 -21 45 -52 45s-52 -18 -52 -45
c0 -26 21 -44 52 -44zM173 437c38 0 62 21 62 54c0 31 -24 52 -62 52s-63 -21 -63 -52c0 -33 25 -54 63 -54z" />
    <glyph glyph-name="nine.sups" horiz-adv-x="357" 
d="M165 501c-79 0 -135 55 -135 131c0 78 63 132 148 132c87 0 149 -74 149 -181c0 -143 -88 -213 -183 -213c-42 0 -83 14 -115 41l38 54c19 -16 45 -24 75 -24c62 0 103 42 109 102c-18 -27 -50 -42 -86 -42zM176 693c-37 0 -64 -26 -64 -65c-1 -38 27 -65 64 -65
c38 0 66 27 66 65s-28 65 -66 65z" />
    <glyph glyph-name="fraction" unicode="&#x2044;" horiz-adv-x="259" 
d="M-150 0l468 700h91l-468 -700h-91z" />
    <glyph glyph-name="onehalf" unicode="&#xbd;" horiz-adv-x="797" 
d="M109 315v299c-26 -17 -53 -32 -83 -38v73c31 8 67 29 97 51h62v-385h-76zM82 0l468 700h91l-468 -700h-91zM491 0l-1 65l123 102c46 38 70 69 70 99c0 32 -22 52 -56 52c-40 0 -62 -31 -58 -80l-78 6c-8 82 55 145 136 145c83 0 139 -51 139 -123c0 -49 -29 -93 -97 -145
l-64 -50h161v-71h-275z" />
    <glyph glyph-name="onequarter" unicode="&#xbc;" horiz-adv-x="770" 
d="M109 315v299c-26 -17 -53 -32 -83 -38v73c31 8 67 29 97 51h62v-385h-76zM91 0l468 700h91l-468 -700h-91zM618 0v76h-194v71l188 238h88v-238h49v-71h-49v-76h-82zM508 147h110v139z" />
    <glyph glyph-name="threequarters" unicode="&#xbe;" horiz-adv-x="836" 
d="M168 311c-79 0 -138 45 -145 114l74 12c7 -33 36 -55 72 -55c40 0 66 23 66 59s-25 59 -64 59c-14 0 -31 -4 -44 -13l-32 54l99 89h-160v70h257v-70l-94 -79c71 3 120 -40 120 -112c0 -78 -59 -128 -149 -128zM150 0l468 700h91l-468 -700h-91zM683 0v76h-194v71l188 238
h88v-238h49v-71h-49v-76h-82zM573 147h110v139z" />
    <glyph glyph-name="oneeighth" unicode="&#x215b;" horiz-adv-x="808" 
d="M109 315v299c-26 -17 -53 -32 -83 -38v73c31 8 67 29 97 51h62v-385h-76zM103 0l468 700h91l-468 -700h-91zM636 -4c-79 0 -144 45 -144 118c0 42 28 80 69 93c-31 15 -52 46 -52 79c0 57 52 103 127 103s125 -46 125 -103c0 -34 -20 -65 -52 -79c42 -13 69 -50 69 -93
c0 -73 -63 -118 -142 -118zM636 238c30 0 52 17 52 44s-22 45 -52 45c-32 0 -52 -17 -52 -45c0 -27 20 -44 52 -44zM636 62c38 0 62 21 62 54c0 31 -24 52 -62 52s-63 -21 -63 -52c0 -33 25 -54 63 -54z" />
    <glyph glyph-name="threeeighths" unicode="&#x215c;" horiz-adv-x="878" 
d="M168 311c-79 0 -138 45 -145 114l74 12c7 -33 36 -55 72 -55c40 0 66 23 66 59s-25 59 -64 59c-14 0 -31 -4 -44 -13l-32 54l99 89h-160v70h257v-70l-94 -79c71 3 120 -40 120 -112c0 -78 -59 -128 -149 -128zM151 0l468 700h91l-468 -700h-91zM706 -4
c-79 0 -144 45 -144 118c0 42 28 80 69 93c-31 15 -52 46 -52 79c0 57 52 103 127 103s125 -46 125 -103c0 -34 -20 -65 -52 -79c42 -13 69 -50 69 -93c0 -73 -63 -118 -142 -118zM706 238c30 0 52 17 52 44s-22 45 -52 45c-32 0 -52 -17 -52 -45c0 -27 20 -44 52 -44z
M706 62c38 0 62 21 62 54c0 31 -24 52 -62 52s-63 -21 -63 -52c0 -33 25 -54 63 -54z" />
    <glyph glyph-name="fiveeighths" unicode="&#x215d;" horiz-adv-x="878" 
d="M169 311c-77 0 -133 41 -144 107l74 13c7 -30 32 -49 67 -49c37 0 62 25 62 62c0 39 -26 63 -66 63c-29 0 -51 -12 -69 -36l-58 12l31 217h215v-71h-156l-14 -85c19 17 42 27 73 27c74 0 126 -51 126 -127c0 -81 -56 -133 -141 -133zM160 0l468 700h91l-468 -700h-91z
M706 -4c-79 0 -144 45 -144 118c0 42 28 80 69 93c-31 15 -52 46 -52 79c0 57 52 103 127 103s125 -46 125 -103c0 -34 -20 -65 -52 -79c42 -13 69 -50 69 -93c0 -73 -63 -118 -142 -118zM706 238c30 0 52 17 52 44s-22 45 -52 45c-32 0 -52 -17 -52 -45
c0 -27 20 -44 52 -44zM706 62c38 0 62 21 62 54c0 31 -24 52 -62 52s-63 -21 -63 -52c0 -33 25 -54 63 -54z" />
    <glyph glyph-name="seveneighths" unicode="&#x215e;" horiz-adv-x="798" 
d="M58 315c29 97 77 210 158 314h-198v71h278v-71c-85 -116 -135 -229 -158 -314h-80zM75 0l468 700h91l-468 -700h-91zM626 -4c-79 0 -144 45 -144 118c0 42 28 80 69 93c-31 15 -52 46 -52 79c0 57 52 103 127 103s125 -46 125 -103c0 -34 -20 -65 -52 -79
c42 -13 69 -50 69 -93c0 -73 -63 -118 -142 -118zM626 238c30 0 52 17 52 44s-22 45 -52 45c-32 0 -52 -17 -52 -45c0 -27 20 -44 52 -44zM626 62c38 0 62 21 62 54c0 31 -24 52 -62 52s-63 -21 -63 -52c0 -33 25 -54 63 -54z" />
    <glyph glyph-name="three.subs.ss04" horiz-adv-x="335" 
d="M165 -174c-79 0 -142 47 -142 120l77 3c0 -33 26 -58 64 -58c39 0 65 21 65 51c0 34 -27 54 -67 54h-28l-1 63c7 -1 16 -1 23 -1c37 0 60 25 60 55c1 27 -22 45 -56 45c-33 0 -59 -23 -58 -55l-72 5c0 60 55 111 130 111s129 -45 129 -103c0 -43 -29 -79 -71 -87
c52 -3 88 -40 88 -90c0 -66 -58 -113 -141 -113z" />
    <glyph glyph-name="three.dnom.ss04" horiz-adv-x="335" 
d="M165 -8c-79 0 -142 47 -142 120l77 3c0 -33 26 -58 64 -58c39 0 65 21 65 51c0 34 -27 54 -67 54h-28l-1 63c7 -1 16 -1 23 -1c37 0 60 25 60 55c1 27 -22 45 -56 45c-33 0 -59 -23 -58 -55l-72 5c0 60 55 111 130 111s129 -45 129 -103c0 -43 -29 -79 -71 -87
c52 -3 88 -40 88 -90c0 -66 -58 -113 -141 -113z" />
    <glyph glyph-name="three.numr.ss04" horiz-adv-x="335" 
d="M165 317c-79 0 -142 47 -142 120l77 3c0 -33 26 -58 64 -58c39 0 65 21 65 51c0 34 -27 54 -67 54h-28l-1 63c7 -1 16 -1 23 -1c37 0 60 25 60 55c1 27 -22 45 -56 45c-33 0 -59 -23 -58 -55l-72 5c0 60 55 111 130 111s129 -45 129 -103c0 -43 -29 -79 -71 -87
c52 -3 88 -40 88 -90c0 -66 -58 -113 -141 -113z" />
    <glyph glyph-name="uni00B3.ss04" horiz-adv-x="335" 
d="M165 371c-79 0 -142 47 -142 120l77 3c0 -33 26 -58 64 -58c39 0 65 21 65 51c0 34 -27 54 -67 54h-28l-1 63c7 -1 16 -1 23 -1c37 0 60 25 60 55c1 27 -22 45 -56 45c-33 0 -59 -23 -58 -55l-72 5c0 60 55 111 130 111s129 -45 129 -103c0 -43 -29 -79 -71 -87
c52 -3 88 -40 88 -90c0 -66 -58 -113 -141 -113z" />
    <glyph glyph-name="three.sups.ss04" horiz-adv-x="335" 
d="M165 371c-79 0 -142 47 -142 120l77 3c0 -33 26 -58 64 -58c39 0 65 21 65 51c0 34 -27 54 -67 54h-28l-1 63c7 -1 16 -1 23 -1c37 0 60 25 60 55c1 27 -22 45 -56 45c-33 0 -59 -23 -58 -55l-72 5c0 60 55 111 130 111s129 -45 129 -103c0 -43 -29 -79 -71 -87
c52 -3 88 -40 88 -90c0 -66 -58 -113 -141 -113z" />
    <glyph glyph-name="uni2160" unicode="&#x2160;" horiz-adv-x="472" 
d="M404 598h-110v-495h110v-103h-335v103h108v495h-108v102h335v-102z" />
    <glyph glyph-name="uni2161" unicode="&#x2161;" horiz-adv-x="736" 
d="M667 598h-109v-495h109v-103h-598v103h108v495h-108v102h598v-102zM441 103v495h-147v-495h147z" />
    <glyph glyph-name="uni2162" unicode="&#x2162;" horiz-adv-x="1000" 
d="M931 598h-109v-495h109v-103h-862v103h108v495h-108v102h862v-102zM294 103h147v495h-147v-495zM705 103v495h-147v-495h147z" />
    <glyph glyph-name="uni2163" unicode="&#x2163;" horiz-adv-x="1129" 
d="M1061 598h-97l-183 -495h280v-103h-992v103h109v495h-109v102h992v-102zM295 103h295l-182 495h-113v-495zM685 138l162 460h-322z" />
    <glyph glyph-name="uni2164" unicode="&#x2164;" horiz-adv-x="903" 
d="M835 598h-102l-183 -495h260v-103h-716v103h265l-182 495h-108v102h766v-102zM454 138l162 460h-322z" />
    <glyph glyph-name="uni2165" unicode="&#x2165;" horiz-adv-x="1129" 
d="M1061 598h-109v-495h109v-103h-992v103h291l-182 495h-109v102h992v-102zM617 598h-322l160 -460zM835 103v495h-101l-183 -495h284z" />
    <glyph glyph-name="uni2166" unicode="&#x2166;" horiz-adv-x="1393" 
d="M1324 598h-109v-495h109v-103h-1255v103h291l-182 495h-109v102h1255v-102zM617 598h-322l160 -460zM551 103h283v495h-100zM951 103h147v495h-147v-495z" />
    <glyph glyph-name="uni2167" unicode="&#x2167;" horiz-adv-x="1657" 
d="M1588 598h-109v-495h109v-103h-1519v103h291l-182 495h-109v102h1519v-102zM617 598h-322l160 -460zM551 103h283v495h-100zM951 103h147v495h-147v-495zM1215 103h147v495h-147v-495z" />
    <glyph glyph-name="uni2168" unicode="&#x2168;" horiz-adv-x="1114" 
d="M946 598l-177 -248l176 -247h101v-103h-977v103h108v495h-108v102h977v-102h-100zM456 103l177 247l-178 248h-161v-495h162zM701 445l109 153h-219zM809 103l-108 152l-109 -152h217z" />
    <glyph glyph-name="uni2169" unicode="&#x2169;" horiz-adv-x="828" 
d="M660 598l-177 -248l176 -247h101v-103h-691v103h101l177 247l-178 248h-100v102h691v-102h-100zM305 598l110 -153l109 153h-219zM523 103l-108 152l-109 -152h217z" />
    <glyph glyph-name="uni216A" unicode="&#x216a;" horiz-adv-x="1062" 
d="M993 598h-108v-495h108v-103h-925v103h101l177 247l-178 248h-100v102h925v-102zM304 598l110 -153l109 153h-219zM768 103v495h-109l-177 -248l176 -247h110zM414 255l-109 -152h217z" />
    <glyph glyph-name="uni216B" unicode="&#x216b;" horiz-adv-x="1348" 
d="M1279 598h-108v-495h108v-103h-1211v103h101l177 247l-178 248h-100v102h1211v-102zM304 598l110 -153l109 153h-219zM768 103v495h-109l-177 -248l176 -247h110zM1054 103v495h-169v-495h169zM414 255l-109 -152h217z" />
    <glyph glyph-name="uni216C" unicode="&#x216c;" horiz-adv-x="642" 
d="M630 93h-1v-93h-560v103h109v495h-109v102h335v-102h-109v-495h232l-1 108h102z" />
    <glyph glyph-name="uni216D" unicode="&#x216d;" horiz-adv-x="724" 
d="M687 0l-103 -1v77c-50 -54 -118 -84 -202 -84c-181 0 -344 119 -344 358s165 358 344 358c85 0 154 -30 202 -85v76l101 1l1 -220l-116 -25c-20 94 -91 151 -188 151c-128 0 -225 -90 -225 -256s96 -255 225 -255c98 0 164 53 186 141l117 -25z" />
    <glyph glyph-name="uni216E" unicode="&#x216e;" horiz-adv-x="791" 
d="M397 700c195 0 356 -119 356 -350s-161 -350 -356 -350h-328v103h108v495h-108v102h328zM389 103c126 0 244 68 244 247s-118 248 -244 248h-97v-495h97z" />
    <glyph glyph-name="uni216F" unicode="&#x216f;" horiz-adv-x="1071" 
d="M1002 598h-109v-495h109v-103h-221v481l-200 -481h-91l-201 481v-481h-220v103h108v495h-108v102h243l223 -532l223 532h244v-102z" />
    <glyph glyph-name="asterisk" unicode="*" horiz-adv-x="488" 
d="M455 514l-144 -42l92 -120l-67 -50l-92 125l-92 -125l-67 50l92 120l-143 42l24 81l145 -46l-1 151h84l-1 -151l145 46z" />
    <glyph glyph-name="backslash" unicode="\" horiz-adv-x="442" 
d="M435 -1h-112l-315 701h113z" />
    <glyph glyph-name="periodcentered" unicode="&#xb7;" horiz-adv-x="267" 
d="M136 290c-41 0 -71 30 -71 70s30 70 71 70s71 -30 71 -70s-30 -70 -71 -70z" />
    <glyph glyph-name="bullet" unicode="&#x2022;" horiz-adv-x="475" 
d="M240 72c-113 0 -202 89 -202 200c0 110 89 200 202 200c109 0 198 -90 198 -200c0 -111 -89 -200 -198 -200z" />
    <glyph glyph-name="colon" unicode=":" horiz-adv-x="271" 
d="M135 372c-41 0 -71 30 -71 70s30 70 71 70s71 -30 71 -70s-30 -70 -71 -70zM135 -8c-41 0 -71 30 -71 70s30 70 71 70s71 -30 71 -70s-30 -70 -71 -70z" />
    <glyph glyph-name="comma" unicode="," horiz-adv-x="282" 
d="M26 -117l62 238h136l-125 -238h-73z" />
    <glyph glyph-name="ellipsis" unicode="&#x2026;" horiz-adv-x="813" 
d="M135 -8c-41 0 -71 30 -71 70s30 70 71 70s71 -30 71 -70s-30 -70 -71 -70zM406 -8c-41 0 -71 30 -71 70s30 70 71 70s71 -30 71 -70s-30 -70 -71 -70zM677 -8c-41 0 -71 30 -71 70s30 70 71 70s71 -30 71 -70s-30 -70 -71 -70z" />
    <glyph glyph-name="exclam" unicode="!" horiz-adv-x="283" 
d="M100 214l-27 486h137l-27 -486h-83zM141 -8c-41 0 -71 30 -71 70s30 70 71 70s71 -30 71 -70s-30 -70 -71 -70z" />
    <glyph glyph-name="exclamdown" unicode="&#xa1;" horiz-adv-x="283" 
d="M141 504c41 0 71 -30 71 -70s-30 -70 -71 -70s-71 30 -71 70s30 70 71 70zM100 282h83l27 -486h-137z" />
    <glyph glyph-name="numbersign" unicode="#" horiz-adv-x="687" 
d="M657 417h-137l-29 -134h124v-83h-142l-44 -200h-87l44 200h-146l-44 -200h-87l44 200h-123v83h141l29 134h-127v83h145l44 200h87l-44 -200h146l44 200h87l-44 -200h119v-83zM404 283l29 134h-146l-29 -134h146z" />
    <glyph glyph-name="period" unicode="." horiz-adv-x="271" 
d="M135 -8c-41 0 -71 30 -71 70s30 70 71 70s71 -30 71 -70s-30 -70 -71 -70z" />
    <glyph glyph-name="question" unicode="?" horiz-adv-x="521" 
d="M179 207c-10 185 191 171 191 302c0 61 -44 103 -110 103c-77 0 -125 -50 -122 -128l-105 12c-1 127 89 212 227 212c135 0 224 -79 224 -197c0 -187 -202 -165 -198 -304h-107zM238 -8c-41 0 -71 30 -71 70s30 70 71 70s71 -30 71 -70s-30 -70 -71 -70z" />
    <glyph glyph-name="questiondown" unicode="&#xbf;" horiz-adv-x="454" 
d="M240 504c41 0 71 -30 71 -70s-30 -70 -71 -70s-71 30 -71 70s30 70 71 70zM299 289c10 -185 -191 -171 -191 -302c0 -61 44 -103 110 -103c77 0 125 50 122 128l105 -12c1 -127 -89 -212 -227 -212c-135 0 -224 79 -224 197c0 187 202 165 198 304h107z" />
    <glyph glyph-name="quotedbl" unicode="&#x22;" horiz-adv-x="390" 
d="M70 482l-25 226h122l-24 -226h-73zM248 482l-25 226h122l-24 -226h-73z" />
    <glyph glyph-name="quotesingle" unicode="'" horiz-adv-x="212" 
d="M70 482l-25 226h122l-24 -226h-73z" />
    <glyph glyph-name="semicolon" unicode=";" horiz-adv-x="291" 
d="M176 358c-41 0 -71 30 -71 70s30 70 71 70s71 -30 71 -70s-30 -70 -71 -70zM21 -117l62 238h136l-125 -238h-73z" />
    <glyph glyph-name="slash" unicode="/" horiz-adv-x="442" 
d="M7 -1l314 701h113l-315 -701h-112z" />
    <glyph glyph-name="underscore" unicode="_" horiz-adv-x="500" 
d="M23 -94v94h454v-94h-454z" />
    <glyph glyph-name="bullet.case" horiz-adv-x="475" 
d="M240 142c-113 0 -202 89 -202 200c0 110 89 200 202 200c109 0 198 -90 198 -200c0 -111 -89 -200 -198 -200z" />
    <glyph glyph-name="colon.case" horiz-adv-x="271" 
d="M135 462c-41 0 -71 30 -71 70s30 70 71 70s71 -30 71 -70s-30 -70 -71 -70zM135 82c-41 0 -71 30 -71 70s30 70 71 70s71 -30 71 -70s-30 -70 -71 -70z" />
    <glyph glyph-name="comma.tf" horiz-adv-x="618" 
d="M202 -117l62 238h136l-125 -238h-73z" />
    <glyph glyph-name="period.tf" horiz-adv-x="618" 
d="M309 -8c-41 0 -71 30 -71 70s30 70 71 70s71 -30 71 -70s-30 -70 -71 -70z" />
    <glyph glyph-name="braceleft" unicode="{" horiz-adv-x="331" 
d="M252 -146c-71 0 -120 52 -120 126v209c0 63 -28 87 -86 88v93c58 1 86 25 86 87v210c0 74 49 125 120 125h57v-90h-24c-38 0 -55 -20 -55 -57v-213c0 -66 -33 -92 -77 -108c44 -18 77 -42 77 -110v-213c0 -37 17 -56 55 -56h24v-91h-57z" />
    <glyph glyph-name="braceright" unicode="}" horiz-adv-x="331" 
d="M79 -146h-57v91h24c38 0 55 19 55 56v213c0 68 33 92 77 110c-44 16 -77 42 -77 108v213c0 37 -17 57 -55 57h-24v90h57c71 0 120 -51 120 -125v-210c0 -62 28 -86 86 -87v-93c-58 -1 -86 -25 -86 -88v-209c0 -74 -49 -126 -120 -126z" />
    <glyph glyph-name="bracketleft" unicode="[" horiz-adv-x="312" 
d="M69 -153v941h215v-88h-118v-766h118v-87h-215z" />
    <glyph glyph-name="bracketright" unicode="]" horiz-adv-x="312" 
d="M243 -153h-215v87h118v766h-118v88h215v-941z" />
    <glyph glyph-name="parenleft" unicode="(" horiz-adv-x="284" 
d="M193 -178c-108 134 -166 302 -166 480c0 177 58 345 166 477l75 -56c-92 -131 -138 -271 -138 -421c0 -152 46 -291 138 -423z" />
    <glyph glyph-name="parenright" unicode=")" horiz-adv-x="284" 
d="M91 -178l-75 57c92 132 138 271 138 423c0 150 -46 290 -138 421l75 56c108 -132 166 -300 166 -477c0 -178 -58 -346 -166 -480z" />
    <glyph glyph-name="braceleft.case" horiz-adv-x="331" 
d="M252 -121c-71 0 -120 52 -120 126v209c0 63 -28 87 -86 88v93c58 1 86 25 86 87v210c0 74 49 125 120 125h57v-90h-24c-38 0 -55 -20 -55 -57v-213c0 -66 -33 -92 -77 -108c44 -18 77 -42 77 -110v-213c0 -37 17 -56 55 -56h24v-91h-57z" />
    <glyph glyph-name="braceright.case" horiz-adv-x="331" 
d="M79 -121h-57v91h24c38 0 55 19 55 56v213c0 68 33 92 77 110c-44 16 -77 42 -77 108v213c0 37 -17 57 -55 57h-24v90h57c71 0 120 -51 120 -125v-210c0 -62 28 -86 86 -87v-93c-58 -1 -86 -25 -86 -88v-209c0 -74 -49 -126 -120 -126z" />
    <glyph glyph-name="bracketleft.case" horiz-adv-x="312" 
d="M69 -128v941h215v-88h-118v-766h118v-87h-215z" />
    <glyph glyph-name="bracketright.case" horiz-adv-x="312" 
d="M243 -128h-215v87h118v766h-118v88h215v-941z" />
    <glyph glyph-name="parenleft.case" horiz-adv-x="284" 
d="M193 -153c-108 134 -166 302 -166 480c0 177 58 345 166 477l75 -56c-92 -131 -138 -271 -138 -421c0 -152 46 -291 138 -423z" />
    <glyph glyph-name="parenright.case" horiz-adv-x="284" 
d="M91 -153l-75 57c92 132 138 271 138 423c0 150 -46 290 -138 421l75 56c108 -132 166 -300 166 -477c0 -178 -58 -346 -166 -480z" />
    <glyph glyph-name="emdash" unicode="&#x2014;" horiz-adv-x="1000" 
d="M23 242v94h954v-94h-954z" />
    <glyph glyph-name="endash" unicode="&#x2013;" horiz-adv-x="500" 
d="M23 242v94h454v-94h-454z" />
    <glyph glyph-name="hyphen" unicode="-" horiz-adv-x="367" 
d="M28 242v94h311v-94h-311z" />
    <glyph glyph-name="uni00AD" unicode="&#xad;" horiz-adv-x="367" 
d="M28 242v94h311v-94h-311z" />
    <glyph glyph-name="emdash.case" horiz-adv-x="1000" 
d="M23 313v94h954v-94h-954z" />
    <glyph glyph-name="endash.case" horiz-adv-x="500" 
d="M23 313v94h454v-94h-454z" />
    <glyph glyph-name="hyphen.case" horiz-adv-x="367" 
d="M28 313v94h311v-94h-311z" />
    <glyph glyph-name="uni00AD.case" horiz-adv-x="367" 
d="M28 313v94h311v-94h-311z" />
    <glyph glyph-name="guillemotleft" unicode="&#xab;" horiz-adv-x="589" 
d="M302 61l-271 210v66l271 210v-111l-172 -132l172 -132v-111zM553 61l-271 210v66l271 210v-111l-172 -132l172 -132v-111z" />
    <glyph glyph-name="guillemotright" unicode="&#xbb;" horiz-adv-x="609" 
d="M37 61v111l172 132l-172 132v111l271 -210v-66zM307 61v111l172 132l-172 132v111l271 -210v-66z" />
    <glyph glyph-name="guilsinglleft" unicode="&#x2039;" horiz-adv-x="339" 
d="M302 61l-271 210v66l271 210v-111l-172 -132l172 -132v-111z" />
    <glyph glyph-name="guilsinglright" unicode="&#x203a;" horiz-adv-x="339" 
d="M37 61v111l172 132l-172 132v111l271 -210v-66z" />
    <glyph glyph-name="quotedblbase" unicode="&#x201e;" horiz-adv-x="419" 
d="M24 -105l58 226h131l-118 -226h-71zM195 -105l58 226h131l-118 -226h-71z" />
    <glyph glyph-name="quotedblleft" unicode="&#x201c;" horiz-adv-x="419" 
d="M224 708l-58 -226h-131l118 226h71zM395 708l-58 -226h-131l118 226h71z" />
    <glyph glyph-name="quotedblright" unicode="&#x201d;" horiz-adv-x="419" 
d="M24 483l58 226h131l-118 -226h-71zM195 483l58 226h131l-118 -226h-71z" />
    <glyph glyph-name="quoteleft" unicode="&#x2018;" horiz-adv-x="248" 
d="M224 707l-58 -226h-131l118 226h71z" />
    <glyph glyph-name="quoteright" unicode="&#x2019;" horiz-adv-x="248" 
d="M24 483l58 226h131l-118 -226h-71z" />
    <glyph glyph-name="quotesinglbase" unicode="&#x201a;" horiz-adv-x="248" 
d="M24 -105l58 226h131l-118 -226h-71z" />
    <glyph glyph-name="quotedblbase.alt" horiz-adv-x="390" 
d="M178 60c0 -23 -4 -35 -41 -100l-36 -65h-57l44 97c-31 8 -52 36 -52 68c0 40 32 72 72 72c38 0 70 -32 70 -72zM355 60c0 -23 -4 -35 -41 -100l-36 -65h-57l44 97c-31 8 -52 36 -52 68c0 40 32 72 72 72c38 0 70 -32 70 -72z" />
    <glyph glyph-name="quotedblleft.alt" horiz-adv-x="390" 
d="M35 543c0 23 4 35 41 100l36 65h57l-44 -97c31 -8 52 -36 52 -68c0 -40 -32 -72 -72 -72c-38 0 -70 32 -70 72zM212 543c0 23 4 35 41 100l36 65h57l-44 -97c31 -8 52 -36 52 -68c0 -40 -32 -72 -72 -72c-38 0 -70 32 -70 72z" />
    <glyph glyph-name="quotedblright.alt" horiz-adv-x="390" 
d="M178 639c0 -23 -4 -35 -41 -100l-36 -65h-57l44 97c-31 8 -52 36 -52 68c0 40 32 72 72 72c38 0 70 -32 70 -72zM355 639c0 -23 -4 -35 -41 -100l-36 -65h-57l44 97c-31 8 -52 36 -52 68c0 40 32 72 72 72c38 0 70 -32 70 -72z" />
    <glyph glyph-name="quoteleft.alt" horiz-adv-x="213" 
d="M35 539c0 23 4 35 41 100l36 65h57l-44 -97c31 -8 52 -36 52 -68c0 -40 -32 -72 -72 -72c-38 0 -70 32 -70 72z" />
    <glyph glyph-name="quoteright.alt" horiz-adv-x="213" 
d="M178 639c0 -23 -4 -35 -41 -100l-36 -65h-57l44 97c-31 8 -52 36 -52 68c0 40 32 72 72 72c38 0 70 -32 70 -72z" />
    <glyph glyph-name="quotesinglbase.alt" horiz-adv-x="213" 
d="M178 60c0 -23 -4 -35 -41 -100l-36 -65h-57l44 97c-31 8 -52 36 -52 68c0 40 32 72 72 72c38 0 70 -32 70 -72z" />
    <glyph glyph-name="space" unicode=" " horiz-adv-x="240" 
 />
    <glyph glyph-name="uni00A0" unicode="&#xa0;" horiz-adv-x="240" 
 />
    <glyph glyph-name="space.tf" horiz-adv-x="618" 
 />
    <glyph glyph-name="CR" unicode="&#xd;" horiz-adv-x="240" 
 />
    <glyph glyph-name="cent" unicode="&#xa2;" horiz-adv-x="556" 
d="M521 160c-18 -90 -84 -149 -180 -164v-107l-99 1v106c-124 20 -205 118 -205 256s81 236 205 256v107h99v-107c97 -16 164 -77 179 -166l-106 -21c-10 57 -57 96 -121 96c-87 0 -143 -65 -143 -165s57 -165 143 -165c64 0 109 35 121 94z" />
    <glyph glyph-name="currency" unicode="&#xa4;" horiz-adv-x="657" 
d="M589 252c0 -57 -15 -107 -42 -149l73 -73l-71 -70l-73 74c-41 -27 -91 -42 -147 -42c-57 0 -107 15 -149 42l-72 -74l-71 70l74 74c-27 41 -42 92 -42 148s15 106 41 147l-73 75l70 70l73 -74c42 27 92 42 149 42c56 0 106 -15 147 -42l74 74l70 -70l-73 -74
c27 -41 42 -92 42 -148zM329 87c89 0 150 68 150 165s-61 165 -150 165c-90 0 -150 -68 -150 -165s60 -165 150 -165z" />
    <glyph glyph-name="dollar" unicode="$" horiz-adv-x="589" 
d="M555 195c0 -108 -81 -184 -208 -200v-99l-99 1v99c-114 18 -203 101 -221 214l107 33c12 -90 81 -149 165 -149c83 0 137 39 137 99c0 166 -383 75 -383 327c0 98 81 170 195 185v91h99v-92c105 -17 183 -81 200 -171l-105 -43c-14 71 -69 116 -149 116
c-76 0 -122 -32 -122 -86c0 -141 384 -43 384 -325z" />
    <glyph glyph-name="Euro" unicode="&#x20ac;" horiz-adv-x="792" 
d="M459 95c97 0 163 53 183 141l118 -25c-34 -135 -145 -219 -301 -219c-146 0 -279 79 -324 237h-98v80h84c-1 13 -2 27 -2 41c0 16 1 31 2 45h-84v81h100c46 155 180 232 322 232c161 0 277 -89 302 -228l-116 -25c-19 94 -89 151 -186 151c-90 0 -164 -43 -199 -130h292
l-25 -81h-287c-1 -14 -2 -29 -2 -45c0 -14 1 -28 2 -41h256l-24 -80h-214c34 -90 110 -134 201 -134z" />
    <glyph glyph-name="florin" unicode="&#x192;" horiz-adv-x="478" 
d="M321 548l-7 -44h133v-89h-146l-37 -246c-18 -116 -74 -177 -166 -177c-25 0 -50 3 -73 10l7 92c18 -7 35 -10 51 -10c42 0 65 27 74 84l37 247h-98v89h112l6 43c18 116 74 177 166 177c25 0 50 -4 73 -11l-7 -92c-17 7 -35 10 -51 10c-42 0 -65 -26 -74 -83z" />
    <glyph glyph-name="sterling" unicode="&#xa3;" horiz-adv-x="589" 
d="M477 173l96 -53c-41 -77 -91 -120 -166 -120h-340v97c53 54 84 107 84 177c0 10 -1 21 -4 31h-112v94h76c-13 31 -24 64 -24 101c0 129 89 208 223 208c115 0 200 -63 219 -159l-108 -32c-15 58 -52 89 -111 89c-62 0 -106 -39 -106 -111c0 -36 12 -66 26 -96h214v-94
h-178c2 -10 3 -21 3 -32c0 -60 -33 -135 -75 -170h192c43 0 69 29 91 70z" />
    <glyph glyph-name="yen" unicode="&#xa5;" horiz-adv-x="609" 
d="M606 700l-195 -328h136v-82h-184v-85h184v-82h-184v-123h-117v123h-183v82h183v85h-183v82h135l-195 328h128l173 -298l174 298h128z" />
    <glyph glyph-name="plus" unicode="+" horiz-adv-x="555" 
d="M522 375v-94h-197v-197h-94v198h-198v94h197v197h94v-198h198z" />
    <glyph glyph-name="minus" unicode="&#x2212;" horiz-adv-x="544" 
d="M33 281v94h478v-94h-478z" />
    <glyph glyph-name="multiply" unicode="&#xd7;" horiz-adv-x="556" 
d="M513 490l-161 -161l161 -160l-74 -74l-161 161l-161 -161l-74 74l161 160l-161 161l74 73l161 -160l161 160z" />
    <glyph glyph-name="divide" unicode="&#xf7;" horiz-adv-x="544" 
d="M274 462c-41 0 -71 30 -71 70s30 70 71 70s71 -30 71 -70s-30 -70 -71 -70zM33 281v94h478v-94h-478zM274 54c-41 0 -71 30 -71 70s30 70 71 70s71 -30 71 -70s-30 -70 -71 -70z" />
    <glyph glyph-name="equal" unicode="=" horiz-adv-x="544" 
d="M33 385v94h478v-94h-478zM33 177v94h478v-94h-478z" />
    <glyph glyph-name="notequal" unicode="&#x2260;" horiz-adv-x="544" 
d="M511 385h-150l-66 -114h216v-94h-270l-86 -149l-77 41l62 108h-107v94h162l65 114h-227v94h282l74 129l77 -40l-51 -89h96v-94z" />
    <glyph glyph-name="greater" unicode="&#x3e;" horiz-adv-x="544" 
d="M33 41v112l346 138l-346 137v112l478 -200v-99z" />
    <glyph glyph-name="less" unicode="&#x3c;" horiz-adv-x="544" 
d="M511 41l-478 200v99l478 200v-112l-346 -137l346 -138v-112z" />
    <glyph glyph-name="greaterequal" unicode="&#x2265;" horiz-adv-x="553" 
d="M42 96v112l346 138l-346 137v112l478 -200v-99zM42 0v94h478v-94h-478z" />
    <glyph glyph-name="lessequal" unicode="&#x2264;" horiz-adv-x="553" 
d="M511 96l-478 200v99l478 200v-112l-346 -137l346 -138v-112zM511 0h-478v94h478v-94z" />
    <glyph glyph-name="plusminus" unicode="&#xb1;" horiz-adv-x="555" 
d="M522 439v-94h-197v-197h-94v198h-198v94h197v197h94v-198h198zM517 0h-478v94h478v-94z" />
    <glyph glyph-name="approxequal" unicode="&#x2248;" horiz-adv-x="594" 
d="M386 361c-41 0 -74 14 -107 35c-30 20 -51 38 -83 38c-33 0 -57 -23 -64 -70l-91 14c6 92 68 152 155 152c40 0 74 -14 107 -35c30 -20 50 -38 83 -38s57 24 64 70l90 -14c-5 -92 -67 -152 -154 -152zM386 140c-41 0 -74 14 -107 35c-30 20 -51 38 -83 38
c-33 0 -57 -23 -64 -70l-91 14c6 92 68 152 155 152c40 0 74 -14 107 -35c30 -20 50 -38 83 -38s57 24 64 70l90 -14c-5 -92 -67 -152 -154 -152z" />
    <glyph glyph-name="asciitilde" unicode="~" horiz-adv-x="581" 
d="M386 246c-41 0 -74 14 -107 35c-30 20 -51 38 -83 38c-33 0 -57 -23 -64 -70l-91 14c6 92 68 152 155 152c40 0 74 -14 107 -35c30 -20 50 -38 83 -38s57 24 64 70l90 -14c-5 -92 -67 -152 -154 -152z" />
    <glyph glyph-name="logicalnot" unicode="&#xac;" horiz-adv-x="588" 
d="M424 138v172h-377v94h486v-266h-109z" />
    <glyph glyph-name="infinity" unicode="&#x221e;" horiz-adv-x="931" 
d="M672 572c132 0 223 -87 223 -213s-91 -213 -223 -213c-78 0 -150 40 -206 115c-58 -75 -129 -115 -206 -115c-132 0 -223 87 -223 213s91 213 223 213c77 0 149 -40 206 -114c57 74 128 114 206 114zM260 250c53 0 107 37 148 109c-41 72 -95 109 -148 109
c-75 0 -116 -41 -116 -109s41 -109 116 -109zM672 250c74 0 116 41 116 109s-42 109 -116 109c-54 0 -107 -37 -148 -109c41 -72 94 -109 148 -109z" />
    <glyph glyph-name="integral" unicode="&#x222b;" horiz-adv-x="304" 
d="M30 -190l-27 1l-2 96c5 -1 8 -1 17 -1c50 0 74 34 74 92v536c0 104 67 174 171 174l27 -1l2 -96c-7 1 -11 1 -17 1c-50 0 -74 -34 -74 -92v-536c0 -104 -67 -174 -171 -174z" />
    <glyph glyph-name="uni2126" unicode="&#x2126;" horiz-adv-x="735" 
d="M697 378c0 -116 -59 -215 -149 -275h140v-103h-248v134c86 51 140 145 140 240c0 138 -87 234 -213 234c-124 0 -211 -96 -211 -234c0 -95 54 -189 139 -240v-31h1v-103h-249v103h141c-90 60 -150 159 -150 275c0 190 140 330 330 330c189 0 329 -140 329 -330z" />
    <glyph glyph-name="uni2206" unicode="&#x2206;" horiz-adv-x="670" 
d="M389 700l273 -700h-654l272 700h109zM166 101h338l-169 445z" />
    <glyph glyph-name="product" unicode="&#x220f;" horiz-adv-x="665" 
d="M69 0v700h527v-700h-122v598h-284v-598h-121z" />
    <glyph glyph-name="summation" unicode="&#x2211;" horiz-adv-x="551" 
d="M41 0v98l225 252l-225 252v98h464v-102h-321l188 -203v-90l-188 -202h321v-103h-464z" />
    <glyph glyph-name="radical" unicode="&#x221a;" horiz-adv-x="572" 
d="M231 0l-97 292h-108v103h179l80 -250l171 555h111l-226 -700h-110z" />
    <glyph glyph-name="uni00B5" unicode="&#xb5;" horiz-adv-x="576" 
d="M407 504h109v-504h-109v84c-26 -54 -80 -92 -147 -92c-35 0 -66 14 -92 37v-219h-109v694h109v-307c0 -63 40 -107 104 -107c84 0 135 72 135 193v221z" />
    <glyph glyph-name="partialdiff" unicode="&#x2202;" horiz-adv-x="635" 
d="M227 707c9 1 17 1 26 1c181 0 328 -133 328 -392c0 -194 -108 -324 -265 -324c-152 0 -261 100 -261 240c0 139 103 239 246 239c73 0 142 -38 171 -96c-6 136 -94 231 -220 231c-13 0 -24 -1 -36 -4zM313 95c84 0 143 59 143 142c0 82 -59 140 -143 140
c-82 0 -142 -58 -142 -140c1 -83 60 -142 142 -142z" />
    <glyph glyph-name="percent" unicode="%" horiz-adv-x="798" 
d="M192 356c-98 0 -164 74 -164 176c0 103 66 176 164 176c97 0 163 -73 163 -176c0 -102 -66 -176 -163 -176zM119 0l468 700h91l-468 -700h-91zM192 433c47 0 76 38 76 99s-29 99 -76 99c-48 0 -77 -38 -77 -99s29 -99 77 -99zM607 -8c-98 0 -164 74 -164 176
c0 103 66 176 164 176c97 0 163 -73 163 -176c0 -102 -66 -176 -163 -176zM607 69c47 0 76 38 76 99s-29 99 -76 99c-48 0 -77 -38 -77 -99s29 -99 77 -99z" />
    <glyph glyph-name="perthousand" unicode="&#x2030;" horiz-adv-x="1039" 
d="M355 532c0 -102 -66 -176 -163 -176c-98 0 -164 74 -164 176c0 103 66 176 164 176c97 0 163 -73 163 -176zM587 700h91l-468 -700h-91zM115 532c0 -61 29 -99 77 -99c47 0 76 38 76 99s-29 99 -76 99c-48 0 -77 -38 -77 -99zM848 344c97 0 163 -73 163 -176
c0 -102 -66 -176 -163 -176c-50 0 -92 19 -121 52c-29 -33 -70 -52 -120 -52c-98 0 -164 74 -164 176c0 103 66 176 164 176c50 0 91 -19 120 -52c29 33 71 52 121 52zM607 69c47 0 76 38 76 99s-29 99 -76 99c-48 0 -77 -38 -77 -99s29 -99 77 -99zM848 69
c47 0 76 38 76 99s-29 99 -76 99c-48 0 -77 -38 -77 -99s29 -99 77 -99z" />
    <glyph glyph-name="percent.part" horiz-adv-x="383" 
d="M192 356c-98 0 -164 74 -164 176c0 103 66 176 164 176c97 0 163 -73 163 -176c0 -102 -66 -176 -163 -176zM192 433c47 0 76 38 76 99s-29 99 -76 99c-48 0 -77 -38 -77 -99s29 -99 77 -99z" />
    <glyph glyph-name="arrowup" unicode="&#x2191;" horiz-adv-x="640" 
d="M604 362l-59 -60l-178 178v-480h-94v480l-178 -179l-60 60l285 284z" />
    <glyph glyph-name="uni2197" unicode="&#x2197;" horiz-adv-x="586" 
d="M118 492h403v-401l-84 -1v252l-339 -340l-67 67l340 339l-253 -1v85z" />
    <glyph glyph-name="arrowright" unicode="&#x2192;" horiz-adv-x="717" 
d="M397 548l284 -285l-283 -284l-60 59l178 178h-480v94h480l-179 178z" />
    <glyph glyph-name="uni2198" unicode="&#x2198;" horiz-adv-x="590" 
d="M441 403h85v-403h-401l-1 84h252l-340 339l67 67l339 -340z" />
    <glyph glyph-name="arrowdown" unicode="&#x2193;" horiz-adv-x="640" 
d="M545 341l60 -60l-285 -284l-284 283l59 60l178 -178v480h94v-480z" />
    <glyph glyph-name="uni2199" unicode="&#x2199;" horiz-adv-x="590" 
d="M554 423l-340 -339h252l-1 -84h-401v403h85l-1 -253l339 340z" />
    <glyph glyph-name="arrowleft" unicode="&#x2190;" horiz-adv-x="717" 
d="M681 310v-94h-480l178 -178l-60 -59l-283 284l284 285l60 -60l-179 -178h480z" />
    <glyph glyph-name="uni2196" unicode="&#x2196;" horiz-adv-x="590" 
d="M555 69l-67 -67l-339 340v-252l-84 1v401h403v-85l-253 1z" />
    <glyph glyph-name="arrowboth" unicode="&#x2194;" horiz-adv-x="1045" 
d="M725 548l284 -285l-283 -284l-60 59l178 178h-643l178 -178l-60 -59l-283 284l284 285l60 -60l-179 -178h643l-179 178z" />
    <glyph glyph-name="arrowupdn" unicode="&#x2195;" horiz-adv-x="640" 
d="M367 -10l178 179l60 -60l-285 -284l-284 283l59 60l178 -178v643l-178 -178l-59 60l284 283l285 -284l-60 -60l-178 179v-643z" />
    <glyph glyph-name="uni25CF" unicode="&#x25cf;" horiz-adv-x="792" 
d="M398 -8c-207 0 -360 152 -360 358s153 358 360 358c205 0 357 -152 357 -358s-152 -358 -357 -358z" />
    <glyph glyph-name="circle" unicode="&#x25cb;" horiz-adv-x="792" 
d="M396 -8c-206 0 -358 152 -358 358s152 358 358 358s359 -152 359 -358s-153 -358 -359 -358zM396 54c168 0 293 127 293 296s-125 296 -293 296c-169 0 -293 -127 -293 -296s124 -296 293 -296z" />
    <glyph glyph-name="lozenge" unicode="&#x25ca;" horiz-adv-x="581" 
d="M240 0l-193 350l193 350h101l193 -350l-193 -350h-101zM290 97l139 253l-139 253l-138 -253z" />
    <glyph glyph-name="uniF8FF" unicode="&#xf8ff;" horiz-adv-x="782" 
d="M612 266c74 0 137 -63 137 -138c0 -74 -62 -136 -137 -136c-76 0 -138 62 -138 136v85h-167v-85c0 -74 -62 -136 -138 -136c-75 0 -136 61 -136 136c0 76 62 138 136 138h85v167h-85c-74 0 -136 62 -136 138c0 75 62 137 136 137c75 0 138 -63 138 -137v-85h167v85
c0 74 63 137 138 137s137 -62 137 -137s-63 -138 -137 -138h-85v-167h85zM169 486h85v85c0 46 -38 84 -85 84c-46 0 -83 -38 -83 -84c0 -47 37 -85 83 -85zM527 571v-85h85c46 0 84 38 84 85c0 46 -38 84 -84 84c-47 0 -85 -38 -85 -84zM307 266h167v167h-167v-167zM254 128
v85h-85c-46 0 -83 -38 -83 -85c0 -46 37 -83 83 -83c47 0 85 37 85 83zM612 45c46 0 84 37 84 83c0 47 -38 85 -84 85h-85v-85c0 -46 38 -83 85 -83z" />
    <glyph glyph-name="at" unicode="@" horiz-adv-x="912" 
d="M555 480h88v-262c0 -35 24 -57 52 -57c51 0 88 61 88 161c0 168 -134 281 -315 281c-195 0 -337 -136 -337 -324c0 -197 137 -332 338 -332c95 0 172 26 261 74l34 -88c-107 -50 -193 -72 -299 -72c-249 0 -424 172 -424 418c0 236 182 411 427 411
c233 0 406 -157 406 -368c0 -153 -75 -248 -184 -248c-53 0 -96 24 -116 66c-24 -41 -74 -67 -137 -67c-116 0 -193 80 -193 207c0 121 79 205 191 206c49 0 94 -21 120 -52v46zM447 150c69 0 114 51 114 130s-45 130 -114 130s-115 -51 -115 -130s47 -131 115 -130z" />
    <glyph glyph-name="ampersand" unicode="&#x26;" horiz-adv-x="672" 
d="M661 0h-138l-55 64c-56 -45 -121 -72 -194 -72c-136 0 -226 80 -226 210c0 100 66 150 138 187c-48 60 -68 101 -68 149c0 103 70 170 177 170c106 0 175 -67 175 -170c0 -90 -58 -139 -124 -176l120 -138l90 101l81 -75l-96 -112zM220 538c0 -29 27 -63 61 -103
c50 26 88 55 88 103c0 44 -31 73 -74 73c-44 0 -75 -30 -75 -73zM280 94c40 0 77 20 114 54l-142 164c-52 -28 -92 -59 -92 -110c0 -65 49 -108 120 -108z" />
    <glyph glyph-name="paragraph" unicode="&#xb6;" horiz-adv-x="707" 
d="M256 -182v473c-119 0 -214 91 -214 205c0 113 95 204 214 204h405v-97h-66v-785h-101v785h-138v-785h-100z" />
    <glyph glyph-name="section" unicode="&#xa7;" horiz-adv-x="588" 
d="M482 125c35 -28 58 -67 58 -128c0 -113 -98 -187 -240 -187c-129 0 -232 85 -252 201l93 29c14 -82 78 -136 159 -136s135 36 135 93c0 141 -357 61 -357 295c0 48 26 82 64 108c-38 28 -64 69 -64 132c0 102 93 176 219 176c116 0 216 -62 230 -169l-93 -24
c-11 61 -63 101 -137 101c-70 0 -118 -34 -118 -83c0 -147 361 -57 361 -297c0 -48 -23 -84 -58 -111zM179 294c0 -84 118 -91 219 -126c23 17 37 41 37 68c0 81 -115 89 -214 125c-27 -17 -42 -41 -42 -67z" />
    <glyph glyph-name="copyright" unicode="&#xa9;" horiz-adv-x="792" 
d="M396 -8c-206 0 -358 152 -358 358s152 358 358 358s359 -152 359 -358s-153 -358 -359 -358zM396 54c168 0 293 127 293 296s-125 296 -293 296c-169 0 -293 -127 -293 -296s124 -296 293 -296zM401 157c-114 0 -191 78 -191 196c0 117 78 197 191 197
c91 0 158 -52 170 -132l-72 -16c-9 52 -45 82 -98 82c-72 0 -117 -50 -117 -131s45 -131 117 -131c52 0 87 28 96 77l74 -15c-19 -79 -82 -127 -170 -127z" />
    <glyph glyph-name="registered" unicode="&#xae;" horiz-adv-x="792" 
d="M396 -8c-206 0 -358 152 -358 358s152 358 358 358s359 -152 359 -358s-153 -358 -359 -358zM396 54c168 0 293 127 293 296s-125 296 -293 296c-169 0 -293 -127 -293 -296s124 -296 293 -296zM570 171h-79l-96 159h-65v-159h-67l-1 379h143c74 0 122 -44 122 -110
c0 -44 -23 -80 -63 -97zM330 490v-100h67c40 0 62 19 62 50s-22 50 -62 50h-67z" />
    <glyph glyph-name="uni2117" unicode="&#x2117;" horiz-adv-x="792" 
d="M396 -8c-206 0 -358 152 -358 358s152 358 358 358s359 -152 359 -358s-153 -358 -359 -358zM396 54c168 0 293 127 293 296s-125 296 -293 296c-169 0 -293 -127 -293 -296s124 -296 293 -296zM422 319h-72v-148h-67l-1 379h140c73 0 125 -47 125 -116
c0 -68 -52 -115 -125 -115zM350 490v-110h67c39 0 62 20 62 54c0 35 -23 56 -62 56h-67z" />
    <glyph glyph-name="trademark" unicode="&#x2122;" horiz-adv-x="728" 
d="M109 350v287h-103v63h282v-63h-104v-287h-75zM323 350v350h83l103 -246l105 246h81v-350h-68v213l-90 -213h-54l-91 213v-213h-69z" />
    <glyph glyph-name="degree" unicode="&#xb0;" horiz-adv-x="348" 
d="M173 445c-76 0 -135 59 -135 134s59 134 135 133c77 1 137 -58 137 -133s-60 -134 -137 -134zM173 516c36 0 62 26 62 63c0 35 -26 62 -62 62c-35 0 -60 -27 -60 -62c0 -37 25 -63 60 -63z" />
    <glyph glyph-name="bar" unicode="|" horiz-adv-x="256" 
d="M69 -50v800h118v-800h-118z" />
    <glyph glyph-name="brokenbar" unicode="&#xa6;" horiz-adv-x="256" 
d="M69 401v349h118v-349h-118zM69 -50v349h118v-349h-118z" />
    <glyph glyph-name="dagger" unicode="&#x2020;" horiz-adv-x="367" 
d="M133 199v280h-123v83h123v138h101v-138h123v-83h-123v-280h-101z" />
    <glyph glyph-name="daggerdbl" unicode="&#x2021;" horiz-adv-x="367" 
d="M357 479h-123v-258h123v-83h-123v-138h-101v138h-123v83h123v258h-123v83h123v138h101v-138h123v-83z" />
    <glyph glyph-name="uni2116" unicode="&#x2116;" horiz-adv-x="1246" 
d="M947 193c-152 0 -260 109 -260 260s108 260 260 260c151 0 260 -109 260 -260s-109 -260 -260 -260zM69 0v700h123l321 -515v515h112v-700h-123l-322 514v-514h-111zM947 288c89 0 150 68 150 165s-61 165 -150 165c-90 0 -150 -68 -150 -165s60 -165 150 -165zM721 8v94
h454v-94h-454z" />
    <glyph glyph-name="asciicircum" unicode="^" horiz-adv-x="567" 
d="M37 417l202 283h89l202 -283h-111l-135 189l-136 -189h-111z" />
    <glyph glyph-name="at.case" horiz-adv-x="912" 
d="M555 500h88v-262c0 -35 24 -57 52 -57c51 0 88 61 88 161c0 168 -134 281 -315 281c-195 0 -337 -136 -337 -324c0 -197 137 -332 338 -332c95 0 172 26 261 74l34 -88c-107 -50 -193 -72 -299 -72c-249 0 -424 172 -424 418c0 236 182 411 427 411
c233 0 406 -157 406 -368c0 -153 -75 -248 -184 -248c-53 0 -96 24 -116 66c-24 -41 -74 -67 -137 -67c-116 0 -193 80 -193 207c0 121 79 205 191 206c49 0 94 -21 120 -52v46zM447 170c69 0 114 51 114 130s-45 130 -114 130s-115 -51 -115 -130s47 -131 115 -130z" />
    <glyph glyph-name="uni0308" unicode="&#x308;" 
d="M-302 581c-39 0 -66 27 -66 63c0 37 27 65 66 65s67 -28 67 -65c0 -36 -28 -63 -67 -63zM-118 581c-37 0 -65 27 -65 63c0 37 28 65 65 65c39 0 68 -28 68 -65c0 -36 -29 -63 -68 -63z" />
    <glyph glyph-name="uni0307" unicode="&#x307;" 
d="M-122 588c-40 0 -70 31 -70 70c0 40 30 71 70 71c41 0 72 -31 72 -71c0 -39 -31 -70 -72 -70z" />
    <glyph glyph-name="gravecomb" unicode="&#x300;" 
d="M-66 560h-78l-119 148h130z" />
    <glyph glyph-name="acutecomb" unicode="&#x301;" 
d="M-247 560l67 148h130l-119 -148h-78z" />
    <glyph glyph-name="uni030B" unicode="&#x30b;" 
d="M-371 560l67 148h97l-75 -148h-89zM-218 560l66 148h102l-80 -148h-88z" />
    <glyph glyph-name="caroncomb.alt" 
d="M-189 560l32 181h107l-75 -181h-64z" />
    <glyph glyph-name="uni0302" unicode="&#x302;" 
d="M-256 708h91l115 -148h-82l-78 82l-79 -82h-82z" />
    <glyph glyph-name="uni030C" unicode="&#x30c;" 
d="M-256 560l-115 148h82l79 -82l78 82h82l-115 -148h-91z" />
    <glyph glyph-name="uni0306" unicode="&#x306;" 
d="M-186 557c-77 0 -134 56 -134 132h82c0 -34 21 -58 52 -58s53 24 53 58h83c0 -76 -58 -132 -136 -132z" />
    <glyph glyph-name="uni030A" unicode="&#x30a;" 
d="M-164 542c-65 0 -113 45 -113 106s48 107 113 107c66 0 114 -46 114 -107s-48 -106 -114 -106zM-164 600c30 0 51 20 51 48c0 29 -21 49 -51 49c-28 0 -50 -20 -50 -49c0 -28 22 -48 50 -48z" />
    <glyph glyph-name="tildecomb" unicode="&#x303;" 
d="M-349 576l-76 12c2 70 50 118 118 118c28 0 53 -8 80 -27c23 -14 36 -25 59 -25s38 17 41 50l77 -12c-3 -71 -51 -118 -118 -118c-31 0 -57 11 -81 26c-22 15 -36 27 -58 27c-23 0 -38 -17 -42 -51z" />
    <glyph glyph-name="uni0304" unicode="&#x304;" 
d="M-323 587v86h273v-86h-273z" />
    <glyph glyph-name="uni0312" unicode="&#x312;" 
d="M-50 708l-28 -148h-117l61 148h84z" />
    <glyph glyph-name="uni0326" unicode="&#x326;" 
d="M-212 -190l41 148h121l-84 -148h-78z" />
    <glyph glyph-name="uni0327" unicode="&#x327;" 
d="M-50 1l-68 -148h-130l142 178z" />
    <glyph glyph-name="uni0328" unicode="&#x328;" 
d="M-103 -190c-70 0 -117 40 -117 100c0 32 21 74 48 99l82 -9c-20 -20 -38 -48 -38 -70c0 -23 16 -37 39 -37c13 0 24 2 28 3l11 -80c-9 -3 -32 -6 -53 -6z" />
    <glyph glyph-name="uni0335" unicode="&#x335;" 
d="M-363 566v80h313v-80h-313z" />
    <glyph glyph-name="uni0336" unicode="&#x336;" 
d="M-745 522v89h695v-89h-695z" />
    <glyph glyph-name="uni0337" unicode="&#x337;" 
d="M-50 406l-366 -171v95l366 170v-94z" />
    <glyph glyph-name="uni0338" unicode="&#x338;" 
d="M-389 130l-71 63l338 400l72 -63z" />
    </font>
</defs>
</svg>
